<?xml version="1.0" standalone="no"?>
<!DOCTYPE svg PUBLIC "-//W3C//DTD SVG 1.1//EN" "http://www.w3.org/Graphics/SVG/1.1/DTD/svg11.dtd" >
<svg xmlns="http://www.w3.org/2000/svg" xmlns:xlink="http://www.w3.org/1999/xlink" version="1.1">
<metadata></metadata>
<defs>
<font id="erasaurregular" horiz-adv-x="1300" >
<font-face units-per-em="2048" ascent="1638" descent="-410" />
<missing-glyph horiz-adv-x="1024" />
<glyph horiz-adv-x="0" />
<glyph horiz-adv-x="682" />
<glyph unicode=" "  horiz-adv-x="1024" />
<glyph unicode="&#x09;" horiz-adv-x="1024" />
<glyph unicode="&#xa0;" horiz-adv-x="1024" />
<glyph unicode="!" horiz-adv-x="495" d="M43 268h209q78 11 115 11q22 0 22 -5q0 -4 5 -76t5 -89q0 -13 -14.5 -40t-29.5 -48l-15 -21l-248 -4v90l-18 55zM88 416q-1 1 1.5 36t5.5 72.5t3 40.5q0 19 -5 88t-5 105q0 108 11.5 199t11.5 118q0 5 6 58.5t6 80.5q0 12 -3 29t-3 29q0 47 8 84t13.5 49t23.5 45l-37 109 l278 -27l-4 -119q31 -238 31 -297v-56v-63.5t-0.5 -60t-2 -66.5t-4 -61.5t-7 -66t-10 -59t-13.5 -61t-18 -53.5q-13 -33 -18 -80t-13 -61q-8 -13 -26.5 -25t-33.5 -18l-14 -6l-49 -4z" />
<glyph unicode="#" horiz-adv-x="1744" d="M39 291l100 256l33 -4q78 -9 141 -11q37 122 41 138q6 22 38.5 96t33.5 78q0 4 2 8l-121 -27l-112 41v209h159l197 8q86 159 86 181q0 18 8 54t17 36l32 -4h17l198 8v-101q0 -26 -16.5 -82t-38.5 -98l107 -2l122 8q11 36 13 47q3 16 3.5 64.5t1 87.5t3.5 39h2l2 -2 q5 0 16 13.5t19 26.5l8 13l219 8q-11 -11 -12 -51t-3 -105.5t-16 -121.5l109 -4q163 10 186 10q10 0 28.5 -33t31.5 -67l14 -33q-35 -105 -41 -105q-3 0 -139.5 -20.5t-138.5 -20.5h-117q-29 -171 -29 -227q0 -1 -1 -5.5t-1 -6.5q33 -3 70 -7.5t57 -7t21 -2.5t8.5 2 t20.5 4.5t30 5.5t41 5t49 2h123q-4 -162 -4 -172q0 -4 -24 -35t-48 -59l-24 -29q-25 -33 -60 -33q-10 0 -24 7t-80 12q-56 4 -250 8q-1 -15 -2 -43q-7 -135 -17 -163q-10 -25 -43 -44q-5 -4 -19 -11q-3 -2 -5 -3q-74 -9 -92 -9q-193 0 -193 15l2 4v96q0 25 20.5 80t20.5 70 q0 12 2 18h-235q-4 -40 -4 -59q-2 -29 -27 -77t-25 -65q0 -24 -32 -50.5t-43 -26.5l-226 -27q4 25 14.5 103t30.5 202zM623 551h4q28 0 141 20.5t127 20.5h18q20 43 29.5 63t19.5 44.5t13 32.5t16.5 46.5t22.5 65.5q-1 0 -283 12q-54 -138 -59 -158q-6 -20 -23.5 -70 t-25.5 -77z" />
<glyph unicode="$" horiz-adv-x="1228" d="M29 1020q0 23 4 33q46 143 116 260.5t170 249.5q12 17 104 79t101 62q1 0 41 -4v22q2 37 2 76q0 90 -10 98l201 -22q30 -99 30 -148q0 -7 -2 -24t-2 -29l123 -14l160 18l127 -159l-31 -97h-78l-204 74l-93 4q3 -90 16 -208t13 -165q0 -9 2 -85t2 -85q0 -3 -1 -23t-1 -34 q11 1 32.5 5.5t31.5 4.5q21 0 43 -12q101 -62 157 -191.5t56 -269.5q0 -65 -27.5 -175.5t-44.5 -133.5q-27 -35 -112 -76t-189 -57q0 -196 -4 -262q-4 -68 -4 -82q0 -3 -13.5 -11.5t-35 -16t-39.5 -7.5q-15 0 -27 6q-24 15 -41.5 30t-28 33.5t-16.5 32t-8.5 38t-2.5 37 t0.5 44t0.5 45.5q0 9 4 99q-50 -8 -105 -32t-73 -24q-32 0 -68 49q-23 31 -49.5 64t-35 44.5t-16 33t-11.5 53.5q-2 16 -12.5 80t-10.5 94q0 52 28 71t81 19q80 0 92 -45q44 -199 155 -199q15 0 25 2q1 38 4.5 110t6.5 127.5t3 59.5q0 3 -1 28t-2.5 64.5t-2.5 71.5 q-22 4 -70.5 15.5t-64.5 13.5q-68 10 -193.5 45.5t-134.5 62.5q-2 6 -15 39.5t-23.5 62t-19.5 66.5t-9 64zM238 1053q0 -17 1.5 -30.5t2.5 -24t6.5 -18t8 -13t13 -9t14.5 -6t20 -4t23 -2t29 -1t33 -1.5q40 -2 166 -22q-2 98 -7 187t-5 136q0 127 12 256q-170 0 -203 -74 q-16 -35 -45.5 -96t-39.5 -86t-19.5 -76t-9.5 -116zM778 350q30 30 46 103.5t16 126.5q0 30 -4 34q-4 6 -37 13q-7 -62 -11.5 -124.5t-7 -106t-2.5 -46.5z" />
<glyph unicode="%" horiz-adv-x="1517" d="M63 33q0 20 15.5 46.5t43 69t46.5 84.5q10 24 47 76t84 129.5t84 163.5q18 43 39.5 78t47.5 71.5t40 59.5q62 102 130 182t112 142q19 27 72 78t61 63q9 14 62 53.5t69 56.5q23 25 108 76t93 51q5 0 89 48.5t85 48.5q3 0 46.5 -49t43.5 -52q0 -1 -18.5 -21.5t-43.5 -50.5 t-37 -51q-12 -22 -61 -68t-108.5 -96.5t-67.5 -58.5q-36 -34 -88.5 -89.5t-67.5 -80.5q-3 -5 -67 -81.5t-88 -127.5q-23 -49 -80.5 -124t-65.5 -91q-5 -10 -39.5 -93.5t-56.5 -115.5q-27 -40 -54 -63.5t-38.5 -31.5t-19 -37t-7.5 -93l2 -102q-33 -46 -174 -37h-41h-8 q-9 0 -22.5 -0.5t-28.5 -1t-32.5 -0.5h-31.5q-39 0 -56.5 8.5t-17.5 30.5zM127 1249q0 4 16 82t17 78q2 0 18 78t19 100q2 15 18.5 50.5t32.5 63.5t18 28q7 0 31 -21t45 -43q46 -3 106.5 -11.5t75.5 -13.5q21 -8 64.5 -58t76.5 -95.5t33 -48.5q0 -22 -14 -78.5t-18 -65.5 q-2 -4 -48 -31.5t-98 -58.5t-63 -41q-14 -11 -52.5 -18.5t-78.5 -7.5q-13 0 -26.5 1t-24.5 3t-22 4.5t-20 5.5t-16.5 6t-13.5 5.5t-10 4.5t-5 3l-2 1q-9 5 -34 39.5t-25 38.5zM234.5 1354.5q0.5 -6.5 3 -17.5t9 -14.5t19 -8.5t31.5 -6t47 -1q76 0 110 10.5t41 28.5t7 63 q0 18 -2.5 31.5t-5.5 22.5t-12 15t-15 9t-22 4t-26 1t-33 -0.5t-38 -0.5h-29q-6 22 -12 49q-18 -33 -34.5 -57.5t-23 -32.5t-10 -18t-3.5 -25q0 -11 -1 -28.5t-0.5 -24zM821 133q0 4 16 82t17 78q2 0 18 78t19 100q2 15 18.5 50t33 63t18.5 28q7 0 30.5 -20.5t44.5 -42.5 q47 -3 107.5 -11.5t75.5 -13.5q21 -8 64.5 -58t76.5 -95.5t33 -48.5q0 -22 -14 -78.5t-19 -65.5q-2 -4 -48 -31.5t-98 -58.5t-63 -41q-14 -11 -53 -19t-78 -8q-13 0 -26.5 1t-24.5 3t-22 5t-19.5 6t-16 5.5t-13.5 5.5l-10 5l-6 3l-1 1q-9 5 -34.5 39.5t-25.5 38.5z M928.5 238.5q0.5 -6.5 3 -17.5t9 -14.5t19 -8.5t31.5 -6.5t47 -1.5q47 0 76 4t46 9.5t24.5 20t9.5 28t2 41.5q0 18 -2.5 31.5t-5.5 22.5t-12 15t-15 9t-22 4t-26 1t-33 -0.5t-38 -0.5h-28q-7 22 -13 49q-18 -33 -34.5 -57.5t-23 -32.5t-10 -18t-3.5 -25q0 -11 -1 -28.5 t-0.5 -24z" />
<glyph unicode="&#x26;" horiz-adv-x="1198" d="M51 293q0 13 1 25.5t3.5 27.5t4.5 26t7 28.5t7.5 26.5t9 29.5t9 27.5t10.5 30t10 29q18 53 48.5 94.5t66 77.5t48.5 55q4 6 17 23.5t18 25.5q-38 90 -116 215q-48 74 -73.5 152.5t-25.5 116.5q0 30 14.5 93t29.5 110l14 48l338 101l237 26q183 -134 195 -159 q12 -24 12 -131q0 -74 -90 -183q-7 -9 -43.5 -43.5t-68.5 -65.5t-34 -36q-14 -40 -98 -136.5t-104 -125.5q48 -81 84.5 -149.5t46.5 -86.5l125 -137q10 35 10 203q0 29 -2 75t-2 56q0 15 19 46t42.5 62t24.5 33q2 4 33 4q41 0 100 -6.5t59 -11.5q0 -2 7 -58.5t13.5 -121.5 t6.5 -88q0 -105 -41 -210t-100 -188l32 -41l197 -168l-119 -92q-197 93 -211 105q-5 3 -61 65q-102 -25 -183.5 -35t-201.5 -10q-27 0 -52.5 1.5t-42 3.5t-39 6.5t-31.5 7t-32.5 8.5t-29.5 8q-10 3 -18 6.5t-14 7t-11.5 11.5t-9 12.5t-8 18l-7 21t-9 28t-10.5 32.5 q-12 37 -12 74zM293 358q0 -104 176 -104q68 0 98 10q11 5 39 8q-44 52 -76.5 93.5t-51 66.5t-35.5 54.5t-22 39.5t-18.5 40t-17.5 40q-5 -13 -29.5 -62t-43.5 -99t-19 -87zM373 1081q1 -15 7.5 -33.5t20.5 -49t15 -33.5q18 16 59.5 51.5t52.5 46.5q49 49 146.5 195.5 t97.5 199.5q0 18 -15.5 23t-15.5 6q0 9 -49 36t-74 27q-40 0 -73.5 -21t-57.5 -59t-39 -74t-30 -83q-10 -32 -27.5 -112.5t-17.5 -113.5v-6z" />
<glyph unicode="'" horiz-adv-x="387" d="M49 1462l14 135l248 58v-103l-6 -317l-6 -281l-27 -82l-184 25l12 184l-37 230z" />
<glyph unicode="(" horiz-adv-x="843" d="M37 842q0 58 6.5 109t20.5 95.5t24 70.5t30 68t25 54q16 37 32.5 82t27 74.5t14.5 36.5q6 10 179.5 148.5t174.5 141.5q2 4 30.5 28t56.5 46l28 23l105 -90l-54 -134q-82 -22 -92 -22q-7 0 -57 -57t-62 -76q-33 -53 -106 -145.5t-88 -114.5q-13 -21 -39.5 -122.5 t-26.5 -142.5q0 -99 15 -245q10 -106 69 -267t123 -270q17 -28 46.5 -60.5t71 -70.5t46.5 -43q20 -20 37.5 -53t25.5 -39q18 -16 40 -53.5t22 -46.5q0 -15 -5 -41t-11 -45l-5 -19l-110 -22q-11 2 -50.5 7t-55 8t-49.5 12t-55 20t-49.5 30t-54.5 45q-41 41 -63 74 q-15 23 -85 198q-21 53 -34 85q-15 38 -36.5 89t-28 68.5t-12 44.5t-5.5 58q0 17 6.5 93.5t6.5 113.5q0 60 -14.5 133.5t-14.5 122.5z" />
<glyph unicode=")" horiz-adv-x="843" d="M53 -270l53 133q83 22 93 22q7 0 56.5 57t61.5 76q33 52 106 144.5t89 116.5q13 21 39.5 122t26.5 142q0 99 -15 245q-12 107 -70 267t-122 270q-17 28 -46.5 60.5t-71 70.5t-46.5 43q-20 20 -38 53t-26 39q-19 13 -40 51.5t-21 47.5q0 16 5 42.5t10 45.5l5 18l111 23 q8 -1 50 -7t55.5 -8.5t48.5 -12t55.5 -20.5t49 -30t54.5 -45q44 -44 64 -74q15 -23 85 -198q7 -17 11 -27t10.5 -26.5t12.5 -31.5q15 -38 36.5 -89.5t28 -68.5t12 -45t5.5 -59q0 -16 -6.5 -91.5t-6.5 -113.5q0 -60 14.5 -134.5t14.5 -123.5q0 -58 -6.5 -109t-20.5 -94.5 t-24.5 -70.5t-30 -67t-25.5 -54q-16 -37 -32.5 -82t-26.5 -74t-14 -36q-6 -10 -180 -149t-175 -142q-2 -4 -30.5 -28t-55.5 -46l-28 -22z" />
<glyph unicode="*" horiz-adv-x="1251" d="M49 1346h4q9 0 47 32t72 64l33 31l63 -97q20 -15 92.5 -58.5t155.5 -105.5v33q0 26 -12 99.5t-23.5 134t-11.5 57.5q0 -2 77.5 -4t155.5 -3l78 -1q-6 -160 -6 -174q0 -5 8 -119q61 52 148 104q4 2 18.5 11t24 14.5t22 12.5t22 10.5t15.5 3.5q3 0 8 -5q3 -8 77.5 -99 t76.5 -101q1 -4 8.5 -6t7.5 -4q0 -4 -33 -32.5t-80 -66.5t-94 -75t-81 -63l-33 -26q70 -73 137 -170q11 -17 36.5 -40.5t51 -43.5t29.5 -24q-4 -2 -39 -69t-51 -83q-1 -1 -9.5 -11.5t-17.5 -22t-20 -22t-17 -11.5q-10 -2 -33.5 -27.5t-27.5 -26.5q3 2 -31 29t-88.5 70.5 t-83.5 68.5q-2 -22 -4 -46.5t-2.5 -38.5t-2 -29.5t-3.5 -23.5t-6 -15t-9.5 -9.5t-13.5 -2.5q-3 0 -72 -3.5t-94 -3.5q-1 0 -3 -1q-19 -4 -26 26q-8 31 -8 92q0 18 5.5 54t5.5 77v12l-9 -8q-21 -19 -51 -52t-41 -42q-10 -8 -59 -33t-64 -37q-18 -14 -64 -31.5t-67 -17.5 q-8 0 -29.5 52t-21.5 67q0 2 28.5 43t56.5 81t26 40t16.5 21.5t42.5 47.5t37 39q70 70 129 117q-7 6 -20 15t-15 10q-5 3 -44.5 23.5t-64 34.5t-28.5 20q-3 5 -22 25t-34.5 38t-15.5 23q0 6 -64.5 125t-64.5 127zM1143 635l2 -2z" />
<glyph unicode="+" horiz-adv-x="1366" d="M10 684h6q14 0 61.5 3.5t90 7t43.5 3.5l309 -10l109 14q10 179 10 183l-37 237v86l92 41q86 7 86 15q5 0 43.5 -80.5t38.5 -85.5v-135q2 -60 2 -111q0 -36 -16 -164l293 -22q7 5 107 16.5t102 9.5q-11 -96 -15 -119q-1 -8 -13.5 -38t-12.5 -48q0 -14 -2.5 -31.5 t-4.5 -28.5l-2 -11l-133 41q-39 11 -183 40l-58 13l-86 -8q-2 -54 -2 -111q0 -73 5 -140t5 -120q0 -90 -15 -108.5t-94 -18.5q-16 0 -64 -4.5t-88 -9.5l-40 -4q-2 18 -2 45q0 56 17 167t37 218.5t22 126.5q-95 -70 -109 -70l-256 -8l-133 4l-53 -8q-2 6 -5 17t-10.5 41 t-14.5 56t-14 52.5t-11.5 42t-4.5 14.5z" />
<glyph unicode="," horiz-adv-x="534" d="M51 -389q0 12 12.5 42.5t12.5 37.5q0 30 5 49t19.5 30.5t28 17t43.5 16.5t53 22q9 4 27.5 10.5t30 11.5t25 12.5t20 16t6.5 19.5q0 12 -31 159q-11 54 -22 54q-8 0 -28 -47.5t-36 -47.5q-17 0 -34 2t-42.5 8.5t-41 23.5t-15.5 42q0 19 10.5 44t30 59.5t25.5 48.5 q12 27 21.5 36t14.5 5.5t13 3.5q6 5 49.5 8t84 4t40.5 2l45 4q-1 -134 15 -241.5t32 -194.5t16 -170q0 -4 -6.5 -16.5t-12.5 -22.5l-7 -10q-97 -29 -234 -70q-55 -16 -90 -16q-26 0 -45.5 11.5t-27 21.5t-7.5 14z" />
<glyph unicode="-" horiz-adv-x="1101" d="M68 496q0 8 19 61t19 92q0 20 -6 41h2q7 0 30 15.5t42 30.5l19 16q71 14 77 14q2 0 171 -2t175 -2l213 4l179 -23l26 -77l-22 -160q-136 -8 -146 -8q-3 0 -55 2t-68 2l-268 -15h-330q-42 -10 -55 -10q-22 0 -22 19z" />
<glyph unicode="." horiz-adv-x="434" d="M66 250q0 -4 2 -4zM68 246q4 0 15 8t19 16l9 9q186 -5 196 -5l41 -6q19 -119 19 -131l-33 -119q-69 -14 -98 -14l-152 10q0 27 -4 95q-6 79 -12 137z" />
<glyph unicode="/" horiz-adv-x="1167" d="M12 -41q52 68 60 82q4 7 65 129t66 131q66 118 86 160q8 16 39.5 117t48.5 137q61 131 127 248q9 16 32.5 60.5t43.5 79t38 60.5q22 31 45 96.5t37 86.5q16 24 25 84t20 73l82 92q23 -2 86 -8q77 -7 158.5 -21.5t87.5 -15.5l-168 -200q-67 -117 -149 -246 q-29 -46 -85 -111t-90 -116t-40 -103q-7 -55 -39.5 -141.5t-38.5 -153.5q-8 -87 -33.5 -154.5t-51 -99.5t-45.5 -64t-20 -57q0 -14 -10.5 -34t-20.5 -34l-10 -13q11 -9 -34.5 -19.5t-106 -23t-74.5 -21.5h-131z" />
<glyph unicode="0" horiz-adv-x="1056" d="M55 1034q0 144 66 312q12 30 43.5 68.5t78 86t56.5 58.5q30 33 102 72.5t111 39.5q69 0 264 -88q10 -5 21 -15.5t25.5 -31.5t23 -34t27.5 -43.5t24 -39.5q49 -79 49 -245q0 -34 23.5 -240.5t23.5 -355.5q0 -48 -3 -112t-3 -87q0 -37 -6 -63t-19.5 -61t-21.5 -67 q-10 -39 -49 -70.5t-85 -57t-61 -44.5q-34 -41 -112 -41q-23 0 -98 11t-136 30q-29 8 -54.5 30t-104.5 101q-43 43 -53 60t-9.5 35t-11.5 43q-35 72 -47.5 167t-12.5 240q0 39 3 39q0 3 -8.5 15.5t-17.5 23.5l-9 12q4 18 10 41q-4 0 -10 27.5t-6 34.5l-2 9q-1 9 -2.5 24 t-3.5 33t-3.5 40.5t-1.5 42.5zM293 899q55 -83 55 -129q0 -22 -6.5 -74t-7.5 -71q0 -9 -6.5 -34.5t-11.5 -78t-5 -133.5q0 -31 11.5 -54.5t25 -35.5t39 -30.5t39.5 -31.5q38 -35 49.5 -40.5t65.5 -12.5q28 0 111.5 26.5t103.5 45.5q18 16 33.5 54.5t15.5 94.5q0 11 -1 40 t-1 50q0 62 3.5 102.5t6 55t13.5 48t16 50.5q10 39 10 60q0 9 -3 20.5t-3 20.5q0 58 -53 248q-11 39 -19 64.5t-12.5 37.5t-7.5 17t-5.5 6t-4.5 1.5t-6 6.5t-9 18q-12 28 -30 49.5t-37 39.5t-27 28q-19 26 -66 47.5t-63 21.5q-4 0 -7.5 -3t-14 -9.5t-27.5 -13.5 q-24 -9 -29.5 -13.5t-7 -21t-6.5 -31.5q-7 -21 -11.5 -45.5t-8.5 -58t-7 -53.5q-4 -26 -22 -80t-38 -110.5t-22 -61.5q-3 -12 -12 -27z" />
<glyph unicode="1" horiz-adv-x="727" d="M12 1081q7 3 39.5 45t34.5 48q1 2 14.5 15t30 29.5t23.5 24.5q33 42 87.5 119t71.5 94q101 101 109 111q19 -2 39 -2q13 0 35 1t34 1h52l47 2q2 0 6 -3t10.5 -22t7.5 -51q1 -24 3.5 -87.5t2.5 -96.5q0 -21 -12 -90.5t-12 -124.5q0 -28 1 -70t1 -57q0 -102 -13.5 -253.5 t-13.5 -203.5q0 -101 4 -202.5t4 -131.5q0 -12 -3.5 -78t-6.5 -82q-40 15 -100 17.5t-101.5 0t-72.5 11t-31 49.5q0 10 21 115q2 11 32 105t37 175q1 14 16 93t15 118v82q0 45 14.5 132.5t14.5 152.5l-2 53q-68 -43 -76 -61q-9 -20 -42.5 -52.5t-77.5 -70t-58 -51.5 q-24 -24 -77.5 -58t-68.5 -45l-26 -8q-9 25 -9 60q0 67 7.5 114t7.5 51q0 9 -2 11t-5 17t-6.5 32t-5.5 22z" />
<glyph unicode="2" horiz-adv-x="1245" d="M57 1159q0 275 35 344q19 36 106.5 90.5t145.5 63.5q33 5 152.5 15.5t175.5 10.5q47 0 159.5 -21.5t133.5 -21.5q23 0 39 -10t45.5 -44.5t44.5 -49.5q21 -21 32.5 -47t14.5 -44.5t5.5 -51t4.5 -47.5q1 -10 8 -54t11 -75t8 -77.5t4 -82.5q0 -85 -6.5 -134.5t-15.5 -65.5 t-23.5 -43t-24.5 -60q-10 -35 -42 -78.5t-42 -61.5q-13 -24 -34.5 -42.5t-50 -38.5t-46.5 -39q-21 -22 -52.5 -38t-77 -30.5t-48.5 -15.5q-23 -9 -115 -71.5t-96 -64.5q4 1 39 1t74 2t57 6q52 12 186 12q2 0 31 1.5t65.5 3t57.5 1.5q24 0 41.5 -9t25 -19.5t11.5 -26t4 -19.5 v-10q0 -16 -1 -57.5t-1 -59.5q0 -16 -9.5 -28.5t-30 -19.5t-38.5 -11t-51 -5.5t-49.5 -2t-51.5 -0.5q-5 0 -89.5 -6.5t-94.5 -6.5q-76 0 -213.5 11.5t-232.5 11.5l-31 -2v18q0 2 -2 43t-2 66v50.5t4 37t6 27t12.5 24t17.5 24.5l28 32t36 43q24 28 91.5 82t78.5 65 q18 18 73.5 57t72.5 54q38 34 130.5 128.5t149.5 163.5q61 74 79.5 135.5t18.5 137.5q0 17 -3.5 34t-7 27.5t-11.5 30.5t-12 31q-8 22 -34.5 52.5t-70.5 65t-113.5 58.5t-148.5 24q-16 0 -26.5 -3t-29 -10t-42.5 -13q-79 -19 -149 -89t-110 -161t-40 -176v-41l-94 -60 q-6 5 -18.5 12.5t-15.5 12.5t-9 20t-7.5 42.5t-1.5 72.5z" />
<glyph unicode="3" horiz-adv-x="1165" d="M53 258q0 18 10 31q6 9 15 32.5t18 36t40 24t83 11.5q13 0 44.5 -19.5t39.5 -37.5q12 -26 35 -87l10 -24q0 -4 -5 -13.5t-5 -12.5q0 -6 10 -6q8 0 29 6q72 19 165.5 34.5t132 27.5t48.5 38q43 108 43 125q0 44 -0.5 68.5t-4.5 57t-11.5 50.5t-22 33t-35.5 20 q-65 17 -158.5 30t-146.5 13q-5 0 -7.5 -0.5t-3 -1.5t-0.5 -1.5t-1 -0.5q-10 0 -27.5 27.5t-17.5 58.5q0 30 2 61.5t5 56.5t6 45t5 31.5t2 12.5v7v10.5t0.5 13.5t1.5 16t3 16t5 16.5t8 15t11.5 12.5t15.5 8t19 4q23 1 63.5 2.5t68.5 2.5t64 4t60.5 8t47 12.5t33.5 20.5 t11 30q0 16 -15 44.5t-30 49t-17 20.5q9 0 9 2q0 9 -116 18t-159 9q-6 0 -59.5 -1t-73.5 -1q-15 0 -46 -3.5t-55.5 -7t-25.5 -3.5l-65 4l-3 84q27 94 27 104v2q-1 -3 41 -5.5t81.5 -3.5t51.5 -1q2 0 78 10.5t107 10.5q22 0 151.5 -3.5t179.5 -3.5h221q22 -27 42 -71t20 -80 q0 -6 -11 -26.5t-34 -52t-49 -58.5q-12 -13 -72.5 -86t-71.5 -82q-2 -2 -16 -17t-25 -24.5t-33.5 -19t-48.5 -9.5q-16 0 -52 3t-54 3l-113 -4v-6.5t3.5 -9.5t9.5 -11.5t20 -9t33 -6.5q114 -10 234 -49.5t143 -65.5q3 -4 20.5 -21.5t27 -34t11.5 -36.5q1 -15 10.5 -62 t17 -116.5t7.5 -153.5q0 -33 -1 -71.5t-1 -40.5q-2 -21 -49 -94t-80 -101q-18 -15 -34 -27t-26 -20t-22 -22q-10 -11 -20.5 -16.5t-19.5 -7.5t-34.5 -5t-48.5 -8q-32 -6 -57 -19.5t-56 -13.5q-10 0 -45 2t-53 2q-22 0 -60.5 -2t-56.5 -2q-65 0 -112 23q-27 13 -47.5 18 t-28 5.5t-18.5 10.5t-29 37q-12 17 -28.5 40t-23.5 33t-18 26t-15 23t-10.5 18t-8 17t-4 15t-3 17t-0.5 18z" />
<glyph unicode="4" horiz-adv-x="1443" d="M23 580q0 3 17 14.5t34 21.5l18 11q64 104 74 131q5 12 54.5 93.5t60.5 106.5q12 28 30.5 83t20.5 59q3 9 29 51t49.5 80.5t23.5 40.5l31 147l278 232l88 6l275 -51q25 -4 29 -19.5t4 -101.5q0 -41 -4.5 -137t-4.5 -115q0 -28 6 -64.5t18 -116t22 -180.5q4 -41 9.5 -93 t8 -79t2.5 -36q0 -11 -3 -71.5t-3 -66.5q0 -2 8 -96l57 12l-2 35l133 -8q15 -60 15 -76q0 -7 -7.5 -17.5t-15.5 -17.5l-8 -6l-12 -69h-141l2 -15v-121l10 -120h-113l-127 -13v86q0 12 9.5 57t9.5 95v37h-97l-77 -6h-181l-305 -21h-162l-143 12q-8 17 -14 124.5t-6 181.5z M193 479q276 -53 509 -53l158 -14l164 -11q12 49 12 177q0 44 -2 127t-2 122v166l-3 39q-31 512 -48 514q-68 0 -108 -6.5t-57 -19t-24.5 -25.5t-19.5 -32t-33 -33q-10 -7 -25.5 -70t-21.5 -72q-4 -7 -8 -18t-8.5 -27.5t-7.5 -29.5t-8 -34.5t-7 -31.5q-5 -23 -16.5 -46.5 t-20.5 -35.5l-8 -12q-18 -54 -53 -111q-20 -33 -77 -96.5t-62 -71.5q-9 -15 -68 -62.5t-61 -49.5q-14 -14 -25.5 -29t-20.5 -31.5t-16 -30t-13 -30.5t-8.5 -25t-6.5 -22z" />
<glyph unicode="5" horiz-adv-x="1173" d="M70 332q0 5 13.5 56t16.5 54q4 4 50 28t51 24q21 0 35 -61.5t20 -124.5l6 -62q3 -1 54 12.5t113 27t87 13.5h19q34 0 78.5 10.5t54.5 16.5q7 4 14.5 84.5t7.5 105.5v49q0 46 -2 66q-2 17 -9.5 44t-14.5 47.5t-7 22.5l3 7q2 7 2 12q0 22 -39 22q-1 0 -44 -5t-108 -5 q-41 0 -111 3t-86 3q-14 0 -27 -1t-16 -1q-14 0 -22 25q-2 5 -20 38t-31.5 70t-14.5 72q-1 22 -4.5 49.5t-8 52t-9 45.5t-7.5 34t-3 14q0 13 -3.5 125t-3.5 163q0 59 13 74q3 4 9.5 28.5t24.5 47.5t54 33q163 47 272 47q64 0 203 -6t166 -9q10 -2 41 -2l65 2l15 -120 l-41 -70h-310l-196 12h-199l-31 -37q25 -198 35 -243t11.5 -95.5t-1 -82t-1 -59.5t15.5 -41t45 -13q1 0 3 1t3 1q17 6 145.5 31t157.5 26q171 11 232 11q180 0 223 -82q62 -119 71 -201q11 -157 11 -254q0 -21 -12 -43.5t-33.5 -48.5t-22.5 -27q-7 -10 -44.5 -40t-81 -64 t-54.5 -43q-87 -76 -139 -95q-52 -20 -251 -60t-245 -40q-3 0 -32 -8t-48 -8q-56 0 -61 67q-6 59 -26.5 162t-20.5 113z" />
<glyph unicode="6" horiz-adv-x="1294" d="M43 285q0 20 8 92t8 106v97q0 15 -4 54t-4 62q0 115 166 336q28 37 82 88.5t94 114.5q32 50 70 96.5t60 68.5l22 21q80 23 117 54q29 24 52 42t46.5 32t34.5 21.5t35.5 16t29 10.5t35 10t35.5 9h94l188 -27l41 -84l-30 -100l-248 -37l-172 -6q-58 -41 -64 -47 q-5 -5 -72.5 -98.5t-70.5 -100.5q-7 -17 -85 -109t-110 -124l-22 -23l98 -33l1 -1q1 -1 4 -3t5.5 -4t6 -4.5t7 -4.5t7 -4.5t6.5 -4t5 -2t3 -0.5q7 2 59 9t81 7q20 0 77.5 -8.5t107 -16.5t50.5 -8q4 0 20.5 -5.5t38.5 -18t31 -27.5q6 -10 29 -64t39 -71q17 -19 31 -58t14 -71 q0 -64 -79 -193t-144 -186q-11 -10 -15 -22t-16.5 -19t-54.5 -16q-39 -9 -73.5 -15.5t-70 -10.5t-57 -6.5t-59 -3.5t-51.5 -1h-58.5h-56.5h-41q-22 0 -47 -3t-31 -3q-9 0 -32 9t-26 9h-6q-6 0 -14 9t-29 42q-18 29 -40.5 60.5t-29.5 42t-15 30.5t-9.5 39.5t-1.5 55.5z M332 539q0 -33 6 -45q3 -8 10.5 -30.5t18.5 -51.5q6 -16 8 -34t3 -27.5t10 -21t30 -20.5q57 -26 86.5 -31.5t83.5 -5.5q52 0 93.5 79.5t41.5 144.5q0 31 -16.5 81t-24.5 60q-24 23 -81.5 45.5t-86.5 22.5l-137 -5l-43 -24q0 -40 -1 -84.5t-1 -52.5z" />
<glyph unicode="7" horiz-adv-x="1308" d="M61 1296q0 13 5.5 101t5.5 116h4q8 0 41 4.5t39 4.5q68 -10 162.5 -17.5t140.5 -5.5q127 6 133 6q1 0 10.5 -0.5t23.5 -1t27 -0.5q25 0 62 6.5t73 6.5q19 0 40.5 -1t36.5 -2.5t16 -1.5q59 -12 165.5 -14t175 -4.5t68.5 -17.5q0 -5 -17.5 -47.5t-38 -90t-39 -89.5 t-19.5 -44q-80 -199 -115 -256q-22 -35 -44 -59.5t-99 -101.5l-31 -31l147 -2l47 -70q-27 -117 -37 -117l-196 -8q-74 -16 -84 -16q-72 0 -82 -21q-10 -28 -22 -48.5t-30.5 -46t-31.5 -48.5q-50 -85 -76 -166t-26 -125q0 -45 -51 -66.5t-171 -21.5q-35 0 -62.5 6t-38.5 12.5 t-11 10.5q0 7 36 56.5t74 99t39 51.5q6 14 74 103.5t107 174.5q4 12 8 18h-25l-74 11l-43 4l-73 16q-25 49 -25 53l43 62l51 33q66 32 68 34l9 -2h20q39 0 172 5q25 30 47 79q41 98 123 215q50 72 89.5 139t58 109.5t7.5 44.5h-241q-244 -49 -269 -61q-14 -7 -100 -25 t-98 -22q-68 -27 -131 -23q-48 37 -48 92z" />
<glyph unicode="8" horiz-adv-x="886" d="M63 950q0 40 2.5 152t2.5 223q0 51 11.5 82.5t12.5 40.5q1 14 7 20.5t12 7.5t24.5 1t32.5 2q13 1 58 7.5t93 11.5t87 5q51 0 78.5 -6t35 -12.5t17.5 -24t20 -28.5q53 -56 111 -91q35 -22 71.5 -75t59.5 -109q18 -44 18 -164q0 -26 -4.5 -64t-10 -63.5t-7.5 -23.5h-2 q-15 0 -99 -45q0 -3 1 -8.5t1 -8.5q0 -16 -4 -32q15 -1 34 -4t22 -3q41 -7 58 -75.5t17 -137.5q0 -40 -2 -151.5t-2 -222.5q0 -51 -11.5 -82.5t-12.5 -40.5q-1 -14 -7 -20.5t-12 -7.5t-24.5 -1t-32.5 -2q-7 -1 -43 -6.5t-62 -8.5t-64.5 -6.5t-68.5 -3.5q-51 0 -79 6 t-35.5 13t-17 24.5t-19.5 28.5q-51 54 -111 90q-35 22 -71.5 75t-59.5 110q-18 44 -18 161q0 26 4.5 64t10 64t7.5 26q17 0 101 45q-5 10 -5 18q0 6 3.5 17.5t3.5 13.5q-48 3 -56 6q-22 3 -38 27.5t-23.5 60t-11 67t-3.5 58.5zM178 367q0 -22 21.5 -68.5t21.5 -50.5 q3 -18 111.5 -36.5t173.5 -18.5q76 0 138.5 27.5t62.5 68.5q0 15 -7 41t-19 66t-19 73q-16 68 -69.5 112t-135.5 44q-15 0 -32 -2t-39.5 -5t-35.5 -4q-3 -1 -17 -2t-18 -4.5t0 -11.5q-18 -8 -35 -20t-24 -18.5t-27.5 -27.5t-25.5 -26t-15 -56t-10 -81zM180 1190q0 -15 7 -41 t19 -66t19 -73q16 -69 68.5 -112.5t136.5 -43.5q10 0 107 10q2 0 6 0.5t6.5 0.5t5.5 0.5t5.5 1t5 1.5t3.5 2.5l2 3t1 4t-1 5.5q18 7 35 18.5t25 19t27 27.5t26 27q5 5 15 56t10 81q0 22 -21.5 68.5t-21.5 50.5q-3 18 -112.5 36.5t-172.5 18.5q-75 0 -138 -28t-63 -68z" />
<glyph unicode="9" horiz-adv-x="1128" d="M20 1155q0 85 62 160q64 78 100 117q21 22 163.5 60t162.5 38l34 2q33 2 56 2q11 0 28 -1t23 -1q13 0 43 5t47 5t35 -8t37 -26t33 -32t34.5 -43.5t28.5 -41t28 -43t21 -33.5q11 -17 24.5 -28t20 -16t13 -26.5t10.5 -64.5q5 -61 14.5 -116t12.5 -101q2 -34 12 -70t10 -49 q0 -34 -19.5 -67.5t-44.5 -65t-32 -54.5q-16 -52 -36.5 -157.5t-20.5 -161.5q0 -70 11 -168t11 -109q0 -5 -4 -7l-4 -3q0 -1 1 -3t1 -3q-1 -9 -195 -25q1 0 -41 10.5l-86 21.5t-49 11q14 24 41.5 92.5t28.5 69.5q4 9 12.5 17.5t15.5 25t15 54.5q13 57 48.5 169t35.5 152 q0 3 -2 24t-2 35q0 7 2.5 30.5t6 63.5t5.5 83q-10 7 -20 10q0 -12 -27 -33q-14 -10 -37.5 -34t-41.5 -39t-32 -15q-6 0 -72.5 -6t-107.5 -6q-95 0 -209 59q-4 2 -24 9.5t-35.5 18.5t-30.5 31q-11 15 -32.5 31.5t-36 36.5t-21.5 57q-25 131 -25 156zM209 1167q0 -28 24 -67 q6 -9 20 -32t18 -29.5t15.5 -22.5t17 -20.5t17 -14.5t21.5 -13.5t24 -8t31 -7.5q113 -18 117 -18q28 0 55.5 8t71.5 14q50 6 75.5 13.5t31.5 14t15.5 19t24.5 23.5q0 45 -37.5 132.5t-62.5 109.5q-26 21 -46 32.5t-68 22t-117 10.5q-157 0 -191 -61q-8 -15 -24 -35 t-24.5 -36t-8.5 -34z" />
<glyph unicode=":" horiz-adv-x="430" d="M55 932h2q4 0 16 14t23 28l10 15h201l37 -26q8 -82 8 -111l-8 -160q-84 -18 -88 -18q-1 0 -13 -3t-30.5 -7t-40 -7.5t-46 -6.5t-42.5 -3q-14 0 -14 8q0 2 2 9t2 10q0 5 -9.5 123.5t-9.5 134.5zM94 76q0 21 4 40.5t4 88.5q0 117 -6 119l119 63l92 10q-4 -13 10.5 -57.5 t32 -104t17.5 -102.5q0 -17 -26.5 -38t-55.5 -21q-2 0 -28 -14.5t-28 -14.5q-135 0 -135 31z" />
<glyph unicode=";" horiz-adv-x="403" d="M55 -186q0 16 17.5 27.5t48.5 23t45 20.5q34 22 71 76.5t37 99.5q0 16 -6.5 28t-13.5 16l-6 4q-1 -3 -4 -8.5t-13.5 -19t-23 -23.5t-34 -18.5t-46.5 -8.5q-35 0 -35 22q0 6 4 15l4 10q0 2 -2 71t-2 74q0 4 50.5 35.5t50.5 36.5v2l96 -33l9 -9l8 -8t7 -7.5t6.5 -9 t5.5 -10.5t5 -13t3 -15.5t3 -20t1.5 -24.5t0.5 -30q0 -37 -4 -49q-4 -14 -7 -79t-16 -139q-18 -104 -82 -104l-18 4q-119 -37 -127 -37q-7 0 -20 37.5t-13 63.5zM59 989q-3 0 65 6.5t137 13.5l69 7v-76q0 -5 2 -57t2 -76l-4 -68q-179 -18 -230 -18q-30 0 -30 6q0 2 2 7t2 7 q-13 248 -15 248z" />
<glyph unicode="=" horiz-adv-x="1337" d="M53 975q0 -3 113 -6.5t180 -3.5h9.5h7.5t5.5 0.5t4 0.5h2.5t1.5 0.5t1.5 0.5h1q22 0 117.5 -9.5t226.5 -9.5q77 0 100 4q97 15 190.5 41.5t137.5 26.5q39 0 41 -12q3 -12 7.5 -71.5t7.5 -112.5l3 -54q-22 -8 -59 -8q-5 0 -124.5 -6t-176.5 -6q-20 0 -110 19t-132 19h-332 l-182 27q-1 5 -3 13t-7.5 29t-10 40t-9.5 38t-8 30t-3 10zM68 360v123l231 60l174 -15q172 -18 176 -18q1 0 28.5 0.5t70.5 1.5t90 2t93.5 1.5t74.5 0.5q44 0 92 10t74 20l26 11q2 -7 20 -41.5t34 -79t16 -86.5l-2 -4q-1 0 -25 1t-39 1q-24 0 -28 -2q-11 -3 -233.5 -12.5 t-303.5 -9.5q-129 0 -230.5 12t-150.5 12q-19 0 -45.5 -5t-40.5 -5q-20 0 -45.5 5.5t-40.5 10.5z" />
<glyph unicode="?" horiz-adv-x="1325" d="M23 1391q0 24 13.5 65t32 85.5t21.5 53.5q5 17 25 44.5t53.5 67.5t36.5 44q13 17 77 44t159 62t118 44q27 10 64 10q128 0 407 -92q43 -14 74.5 -42t45 -52t26.5 -53t18 -36q19 -27 42 -104.5t26 -132.5q2 -31 15 -112t13 -134q0 -33 -11.5 -60.5t-27 -44.5t-35.5 -42.5 t-32 -49.5q-13 -27 -29 -41t-31.5 -19.5t-43 -23.5t-56.5 -47q-49 -51 -49 -63q0 -2 1 -10t1 -15q0 -25 -22.5 -96t-42 -127.5t-15.5 -56.5q-4 -2 -17 -12.5t-24 -14.5t-35 -11t-65 -10t-99 -3q-33 0 -60 3.5t-41.5 8t-24 9t-12.5 7.5l-3 2q0 25 21 121q3 15 8 39 q12 62 23 75q9 12 54 29q60 23 111 48q114 56 239.5 194t125.5 223q0 38 -12.5 81.5t-30 87.5t-21.5 61q-39 145 -309 145q-95 0 -393 -31q-61 -7 -95.5 -15t-45 -18t-11.5 -19t-2 -20.5t-10 -19.5q-25 -23 -25 -110q0 -16 1 -38.5t1 -25.5v-4q-1 0 -5.5 -13.5t-16.5 -27.5 t-29 -14q-36 0 -41 55q-2 18 -16 69.5t-14 82.5zM526 143q0 9 14.5 69t14.5 62q0 3 13.5 6t27.5 5l14 2q3 -1 7.5 -3t19.5 -8t29 -12t33.5 -14.5t36 -16.5t33.5 -17.5t29 -17.5t19.5 -16t7.5 -14q0 -59 -10 -90q-4 -14 -36 -25.5t-73.5 -22t-54.5 -16.5q-24 -12 -53 -12 q-38 0 -53 15.5t-15 66.5v45q0 12 -2 12t-2 2z" />
<glyph unicode="@" horiz-adv-x="2293" d="M51 621q0 49 57 210t97 259q11 27 48.5 91.5t68 119.5t30.5 71t76.5 68.5t154.5 101t79 53.5q2 6 29 26.5t53 38.5l26 17l152 156h469l372 -96q22 -9 56 -24t107 -56t108 -76q87 -87 112 -328q5 -52 107 -469q4 -24 4 -49q0 -54 -11 -104.5t-24 -83t-39 -91.5t-41 -100 q-20 -53 -79.5 -99.5t-126 -73t-120.5 -41.5t-75 -15l-113 6l-90 45q-14 -14 -31.5 -27t-38 -27t-28.5 -20q-33 -25 -121 -43t-199 -18q-81 0 -153 26.5t-156 75.5q-14 8 -36 19.5t-27 15t-16 10.5t-17 16t-13.5 19t-21.5 31q-22 33 -30 60.5t-10 62.5t-5 53q-4 20 -4 29 q0 37 15.5 75t36 71.5t24.5 43.5q3 13 8 13l-17 176l29 -4q0 27 1 42.5t8 29t9.5 17.5t19.5 20t23 22q4 4 16.5 17.5t27.5 26.5t53 42q158 123 346 182q49 14 78 14q17 0 45 -5t47 -5h24q28 0 52 -10.5t34.5 -19t38.5 -33.5q27 -25 68 -155t41 -239q0 -133 -13.5 -281 t-35.5 -198q78 -20 114 -20q42 0 95 75t63 129q8 42 19 269q0 117 -19 188q-8 30 -49.5 119.5t-44.5 103.5q-6 24 -32.5 50t-82.5 63q-46 31 -80 64.5t-53 56.5t-45 46t-70.5 40.5t-115.5 30.5q-37 7 -72.5 14.5t-49.5 10.5t-31 5t-36 2q-27 0 -72 -28.5t-59 -34.5 q-46 -21 -104 -59.5t-86 -73.5q-44 -55 -104.5 -122.5t-100.5 -111t-84.5 -101.5t-70.5 -108.5t-43 -117.5t-17 -142q0 -119 8 -213q3 -33 9.5 -64.5t13 -49.5t14.5 -40t10 -28q7 -21 19.5 -72.5t24.5 -90.5t32 -81.5t51.5 -66t73.5 -23.5q126 0 264 15q20 2 47 2 q23 0 23 -5q-1 -6 -25 -20v-8q0 -25 -5.5 -100.5t-8.5 -92.5q-7 -50 -80 -87.5t-141 -37.5q-49 0 -87.5 19.5t-93.5 77.5q-35 38 -85 72t-60 46q-19 21 -71.5 128.5t-84.5 183.5q-14 33 -43 95t-49.5 107.5t-23.5 61.5q-2 11 -17 59t-28 99t-15 84zM858 516q1 0 11 -25 t26.5 -62t36.5 -74t45.5 -63t48.5 -26q7 0 46.5 21.5t90.5 27.5q77 8 119 19.5t45 11.5q24 3 66 58.5t74 123.5t32 103q0 60 -12.5 120.5t-28.5 88.5q-3 5 -14 7.5t-67 9.5q-71 9 -128 17q-68 9 -90 9q-26 0 -26 -13q0 -3 1 -9t1 -9q0 -25 -32.5 -45.5t-45.5 -20.5 q-4 0 -10 2.5t-9 2.5q-7 0 -30 -17q-16 -12 -34 -28.5t-31 -26t-34 -19.5l-6 -34q-45 -105 -45 -150z" />
<glyph unicode="A" d="M39 0l2 88l51 150q0 1 19 39.5t37 77.5t18 46q0 1 -1 3.5t-1 3.5q1 0 12.5 27t29.5 75t34 94q15 42 20.5 65.5t8 53t7.5 55.5q7 42 27.5 94t32.5 97q13 47 24 98q3 17 18 124.5t35 201t44 133.5q8 14 49 14q43 0 66.5 -5.5t31 -10t26.5 -29t32 -37.5q36 -40 63 -92.5 t41 -71.5q10 -15 36.5 -84.5t37.5 -109.5q7 -27 34 -81.5t44 -96.5q37 -93 55 -168q5 -23 14.5 -45t22 -48t18.5 -40q121 -276 191 -400q55 -99 55 -219q0 -10 -12 -10q-63 0 -103 2t-72 9.5t-49 17t-30 30t-19 42.5t-12 61q-5 23 -33 80t-33 71h-176q-13 4 -29.5 7.5l-33 7 t-33 6t-30.5 5t-25 4t-17 2.5l-6 1q-126 0 -153 -2l-21 -74q-6 -142 -14 -156q-6 -11 -38.5 -53.5t-35.5 -42.5zM453 481q3 -1 24.5 -6.5t43 -10.5t28.5 -5l117 24l94 95q36 -7 67 -13q-13 25 -48.5 124.5t-59.5 148.5q-5 9 -32.5 21.5t-45.5 12.5q-17 0 -36 -15.5 t-23 -25.5q-6 -14 -30 -55t-39 -81t-15 -85q0 -19 -45 -129z" />
<glyph unicode="B" horiz-adv-x="804" d="M74 1098q0 14 2 18q-2 18 -2 41q0 107 25 189.5t46 109.5q1 1 7 8t10 12t12.5 13.5t15.5 14.5t17 13.5t19 12t19.5 7.5t20.5 3q55 0 112.5 -7t92.5 -15l35 -7q25 0 43.5 -12.5t36 -34t20.5 -24.5q2 -2 15.5 -10t27 -21.5t27.5 -36.5t33.5 -54.5t23.5 -39t11 -27t7.5 -35 t0.5 -47.5q0 -15 -23.5 -71t-23.5 -58v-6q0 -28 -21 -28q-27 0 -41.5 -3t-21 -7t-24 -17t-38.5 -25q-30 -18 -71 -38t-56.5 -31t-19.5 -25q-1 -4 -8.5 -9t-15.5 -8l-7 -3l10 -29q2 -2 8 -16q3 -6 33 -38t37 -46q12 -27 41 -49q-1 -1 24.5 -29t59.5 -71t47 -73q8 -20 20 -51 t19 -47q4 -8 16.5 -25.5t21 -40t11.5 -59.5q8 -98 9 -108q0 -21 -6.5 -43t-29.5 -46t-61 -30q-83 -14 -131 -14q-13 0 -78.5 3t-116.5 3q-16 0 -50.5 -5t-62 -10.5t-28.5 -5.5h-43q-37 -10 -45 -10h-2q0 14 -4 62t-4 120q0 63 14 176.5t14 184.5q0 50 -3 109.5t-3 72.5 q0 39 3 70.5t3 33.5q0 23 -15 132t-15 137zM219 246l31 -105q6 -10 31 -10q13 0 61 9.5t57 9.5l142 2v32q0 4 0.5 34t0 45t-3 40t-8.5 42.5t-16 29.5q-13 15 -28.5 47t-20.5 39q-6 9 -22 18.5t-29 14.5l-13 6l-47 -25q-62 -49 -90 -51q-31 -45 -33 -45q-1 0 -6.5 -62 t-5.5 -71zM270 1077l15 -106l121 -10l100 114l29 60q2 14 2 26v10q-1 6 -15.5 42.5t-28.5 70.5l-14 33l-69 84l-76 -21l-64 -84v-219zM510 659h4h-4z" />
<glyph unicode="C" horiz-adv-x="894" d="M63 1036q0 34 18.5 166t24.5 139l97 132l106 14q345 -27 355 -27q7 0 35 -16.5t34 -22.5q2 -2 15.5 -25t27.5 -44t17 -21q4 0 7.5 -35.5t5.5 -70.5l1 -35l6 -158l-84 -10l-96 4v16q0 39 -7 83.5t-27.5 84t-49.5 39.5q-15 0 -50 -7.5t-62.5 -14.5t-28.5 -6 q-136 -150 -154 -177q-10 -14 -10 -43v-24l-2 -11q-2 -11 -5 -30t-6.5 -45t-7.5 -58.5t-7 -66.5t-5.5 -73.5t-4.5 -76.5q0 -42 29 -124.5t29 -104.5q0 -23 6.5 -41.5t26.5 -51t27 -46.5l11.5 -23t6 -13.5t8 -5.5t14.5 -4.5t28 -4.5t46 -11q47 -12 76 -12q30 0 57 31t27 65 q0 2 -14.5 92t-14.5 99q0 55 22 104t38 49l13 -1q12 -1 32 -2.5t41 -3.5t40 -4t27 -3q20 -3 33.5 -92.5t13.5 -202.5q0 -57 -11 -95t-24 -53.5t-39.5 -41t-41.5 -45.5q-8 -11 -39 -11q-25 0 -76 11.5t-61 11.5q-18 0 -44 -13.5t-40 -13.5q-9 0 -30.5 -1t-31.5 -1 q-34 0 -37 6q-2 3 -40 26.5t-46 33.5q-71 91 -121 237q0 1 -6.5 19t-14 39.5t-17 50.5t-17.5 54.5t-13 47.5t-5 33q0 22 -5.5 218t-5.5 218z" />
<glyph unicode="D" horiz-adv-x="786" d="M72 1307q0 38 16 92.5t16 70.5q0 9 -4 21l21 41h162l133 -27q19 -7 46.5 -21.5t77 -44t58.5 -34.5l35 -25q16 -25 18 -45q1 -9 31 -115t31 -119q-1 -11 13 -65q14 -58 15 -86q0 -15 2 -46.5t2 -49.5q0 -86 -41.5 -239t-72.5 -189q-23 -27 -54.5 -133t-44.5 -119 q-7 -7 -19.5 -21.5t-19.5 -20.5t-24.5 -15.5t-42.5 -16.5q-3 -1 -6 -1.5t-4 -1l-2 -1t-2 -0.5t-1 1t-1 1q-33 0 -103 -25t-96 -38l-64 -31l-51 2l4 23v45q-4 75 -4 106q0 14 1 89.5t2 146.5t1 73l-2 29q-3 28 -5.5 67t-2.5 64l10 169v16v16q-12 113 -12 117q0 1 2 49.5 t2 54.5v129q-20 97 -20 107zM213 240l160 69q1 45 23 103.5t48 107t47 117.5t21 133v31q39 137 39 139q0 1 -15 41t-32 82.5t-21 48.5q-4 5 -19.5 29.5t-29 45.5t-16.5 23t-38.5 5.5t-69.5 7t-34 4.5h-40l-19 -215q4 -344 4 -350q0 -73 -1.5 -150.5t-3.5 -157.5t-3 -114z " />
<glyph unicode="E" horiz-adv-x="1042" d="M72 1296v164l524 41h256v-151l8 -43l-67 -27l-101 -18q-113 -11 -127 -11q-2 0 -63 5.5t-86 5.5q-18 0 -20.5 -2t-2.5 -17q0 -22 7 -77l8 -56q0 -6 -6 -92.5t-7 -87.5l2 -64q22 -10 37.5 -15t52 -9t91.5 -4q82 0 198 26.5t117 26.5q6 0 10 -20t7 -55t5 -46l3 -76 q-23 -78 -27 -78l-121 -16l-129 31l-129 -35l-70 -61q50 -141 50 -224q22 -75 118 -75q90 0 152 10q137 22 145 28q10 5 15 5q4 0 10 -1l6 -2q1 0 6 1.5t8 1.5q29 0 31 -54q4 -74 4 -114q0 -6 -4 -22t-8.5 -29t-5.5 -13q0 -2 3 -6t3 -6q0 -17 -96 -17q-12 0 -31 1t-33 1 q-84 0 -182.5 -9t-155.5 -18l-57 -9l-105 16q-41 10 -45 10l-73 -6l-70 25q2 6 2 18q0 16 -14.5 72.5t-14.5 101.5v170q0 8 5.5 69.5t5.5 121.5q0 260 -5.5 378t-17 193.5t-16.5 142.5z" />
<glyph unicode="F" horiz-adv-x="997" d="M72 6v289q26 157 38.5 324t14.5 270t2 293q0 66 -10.5 181t-10.5 153h3q14 0 116 20t103 20h12.5t30 -0.5t39.5 -1t45.5 -0.5h44.5q37 0 59 1t25 1q40 0 126.5 -9t149.5 -9q10 0 28 2t25 2q70 0 70 -76v-41q0 -8 2 -50.5t2 -61.5q0 -31 -4 -31q-32 7 -138 22t-116 15 l-63 -2q-126 39 -134 49q-2 2 -20 2q-178 0 -178 -111q0 -13 2 -43t2 -38v2q-1 0 -5 -19t-7.5 -47t-3.5 -47q0 -9 5 -50t5 -54l-4 -95l32 -41q27 -4 31 -4q1 0 21.5 4t48.5 8.5t45 6.5q19 2 103 18t91 16q1 0 20.5 -3t38 -5.5t19.5 -1.5v-6q0 -14 7.5 -80t7.5 -78l-17 -94 l-31 -2l-143 12l-215 25l-100 -37v-133q-15 -150 -15 -162l9 -194l-25 -109h-184z" />
<glyph unicode="G" horiz-adv-x="1187" d="M57 1135l23 202l268 74l377 45l233 -59l181 -346l-74 -50l-162 -55l-45 4q-4 97 -4 105q0 10 -30 67t-46 64q-14 6 -86 6q-76 0 -132.5 -19.5t-121.5 -82.5q-38 -37 -50.5 -89t-13 -124t-5.5 -103q-10 -59 -31 -171.5t-21 -108.5q0 -43 5.5 -95.5t11.5 -64.5 q3 -6 7.5 -10.5t14.5 -11t21.5 -13.5t35.5 -22.5t50 -32.5q30 -20 46.5 -37t18 -24t10 -12.5t23 -6t57.5 -0.5q16 0 62 6q31 4 86.5 52.5t67.5 68.5q14 22 14 98q0 12 -33.5 44t-44.5 32l-141 -35l-66 21v165l72 11q31 3 85 8t79.5 7.5t63 8t68 12.5t62.5 17q9 -9 26.5 -12 t27.5 -7.5t18 -42t8 -112.5q0 -59 -43 -215q-6 -22 -40 -87t-42 -73q-53 -53 -86.5 -80t-75.5 -41.5t-76.5 -17t-109.5 -2.5q-15 0 -115 24.5t-120 34.5q-44 23 -79 57t-38 70q-1 11 -32.5 99.5t-37.5 125.5q-4 27 -15 79t-19.5 93.5t-8.5 53.5q0 24 -20 155t-27 138 q-6 6 -18.5 103.5t-12.5 111.5z" />
<glyph unicode="H" horiz-adv-x="1294" d="M63 924v6q2 9 24.5 54.5t44.5 88t22 43.5t-4 57.5t-7.5 117t-3.5 71.5q0 24 -6 98.5t-10 81.5q0 4 16 4l115 -10h59q6 -2 35 -6.5t53.5 -10t24.5 -10.5q0 -6 -1 -15l-1 -9l2 -17q1 -17 3 -42.5t4 -52.5t3.5 -51.5t1.5 -35.5q0 -56 -8 -167t-8 -167q0 -38 5.5 -57.5 t12.5 -22t16 -7t13 -13.5q14 2 43 2q40 0 110 -7t91 -7q20 0 69.5 20.5t51.5 20.5q13 3 21.5 27.5t8.5 47.5q0 15 -12 77t-12 67q0 7 -12.5 148t-12.5 149q0 7 11.5 37.5t22.5 57.5l11 26h68l202 -2q0 -2 2 -11l31 -151q0 -60 -7 -152t-7 -127v-114q0 -224 6 -281 q1 -5 9.5 -43.5t16 -83.5t7.5 -74q0 -36 3 -110.5t3 -94.5q0 -21 13 -85t14 -99q1 -29 3 -50.5t4 -28.5l1 -7h-66l-109 -7q-108 -7 -114 -7t-18.5 118.5t-12.5 167.5l1 28q1 28 2 61t1 47q0 19 9.5 83.5t9.5 75.5q0 16 -11 37t-21 34l-11 13q-90 7 -96 7q-48 0 -119.5 -4 t-126 -8.5t-60.5 -4.5l-53 -59v-156q0 -2 2 -32t4 -71t2 -69v-233q0 -4 -4.5 -6.5t-9.5 -2.5h-4q-186 -2 -225 -2q-25 0 -25 2q4 2 4 4q0 1 -8 76t-8 156q0 8 1 27t1 30q0 92 -10 137q-2 8 -12.5 95.5t-12.5 93.5q-15 38 -37 125q-5 18 -17 81t-12 83z" />
<glyph unicode="I" horiz-adv-x="532" d="M74 76v260l16 178v78q0 50 -8 226t-8 278q0 30 10.5 141.5t19.5 157.5q19 92 19 116q0 2 21.5 8t43.5 11l21 6l176 -20l78 6q10 -72 10 -97q0 -31 -5 -50.5t-11.5 -32t-11.5 -62t-5 -133.5q0 -125 -22.5 -195t-22.5 -153q0 -25 13.5 -145.5t13.5 -176.5q0 -22 -1 -48 t-1 -38q0 -3 2.5 -78t5 -147t2.5 -68q0 -2 -6 -30t-6 -29q-8 -1 -51.5 -15t-53.5 -14q-82 0 -151 12t-84 13z" />
<glyph unicode="J" horiz-adv-x="978" d="M16 535q0 88 11 96q4 3 56.5 20t57.5 21q4 4 24 9.5t38 8.5l18 4q13 -4 26.5 -4t18.5 -1t11 -4t8.5 -18.5t5 -37t6.5 -68.5q13 -160 19 -205t20 -71q4 -9 51 -9q43 0 56.5 1t36.5 4.5t36.5 15t32 28.5t47.5 50q6 7 24 25.5t23 26t14.5 27t12 44.5t2.5 61q0 23 -15.5 99.5 t-15.5 115.5q0 21 -3 81t-3 91v301q6 121 6 125q0 2 -5 32t-5 32v106l272 -6q-2 -2 -2 -23q0 -33 7 -115t7 -83q0 -8 -14 -146.5t-14 -142.5q0 -1 0.5 -27.5t1 -65t0.5 -67.5q0 -59 -2 -69q-1 -3 -14.5 -61t-24 -113.5t-10.5 -85.5q0 -17 1 -111.5t1 -142.5q0 -37 -2 -58.5 t-10 -37.5t-13.5 -22t-24.5 -21t-30 -25q-9 -8 -17 -25.5t-19 -29t-32 -15.5q-30 -5 -117 -9.5t-110 -4.5q-14 0 -105.5 -17.5t-175.5 -17.5q-25 0 -41 4t-33.5 17t-28 43t-15.5 77q-11 99 -24.5 172t-19.5 115t-6 107z" />
<glyph unicode="K" horiz-adv-x="1275" d="M70 1526q0 2 2 4t10 2l29 -6l227 10l-2 -18q0 -26 -4 -116t-4 -112l8 -98q0 -70 -4 -82v-6q0 -67 12.5 -111t32.5 -53q33 39 67.5 116.5t53.5 135.5q80 139 80 143l4 92q55 125 59 129q3 3 37 3l100 -3h135l158 11l131 -25l-4 -37q-43 -22 -77.5 -52.5t-60 -70t-42 -74 t-35.5 -83.5q-17 -44 -67 -107t-64 -96q-16 -10 -46 -26t-47.5 -26.5t-37.5 -27t-29.5 -37t-9.5 -45.5l14 -35l60 -69q57 -62 57 -66q0 -3 49 -34t51 -31q15 0 80.5 -76.5t65.5 -102.5q0 -3 5.5 -14t11.5 -22.5t12 -23.5l6 -11q1 -1 9.5 -14t16.5 -26t8 -16t40 -91t40 -89 l-30 -135l-60 -18l-82 28q-85 -16 -108 -16q-5 0 -43.5 77.5t-38.5 90.5q0 7 -3.5 16t-9.5 18.5t-10.5 16.5t-11.5 16t-8 11q-19 26 -35 102q-10 45 -37.5 91.5t-54.5 77.5t-49.5 66.5t-24.5 63.5l-14 31q-50 14 -66 14q-4 0 -24.5 -24t-20.5 -29v-45q-4 -21 -4 -66 q0 -66 7 -128.5t7 -102.5q0 -77 10.5 -150.5t10.5 -83.5v-30l-211 -17l-86 -10l-105 6q5 80 5 86q0 3 -5.5 35t-5.5 35l17 153v46q-6 90 -6 110q0 3 1 24.5t1 35.5q0 17 -5.5 50t-5.5 52q0 21 7.5 91.5t7.5 117.5q0 36 0.5 61.5t1.5 34.5t1.5 15.5t0.5 9.5l-10 200v238 q0 2 -20.5 55t-20.5 66z" />
<glyph unicode="L" horiz-adv-x="1114" d="M74 94q0 50 35.5 213t35.5 209l-2 70v129q0 8 -19.5 108.5t-19.5 102.5t-7 113t-7 116q0 60 3 141t6 140t3 65l-2 15q-2 0 -3.5 4t-2.5 8v4q0 -1 23.5 -12.5t52.5 -23t39 -11.5l4 2l47 31h45l74 -17l16 -14q19 -60 19 -66q0 -23 -6.5 -56.5t-6.5 -53.5q1 0 9 -56.5 t16 -131.5t8 -113q0 -48 24.5 -189t24.5 -211q0 -72 -11.5 -172t-29.5 -133q10 5 84.5 11.5t140.5 17t66 26.5v5l187 24q139 -4 141 -4q12 0 26.5 -99.5t14.5 -148.5l-2 -123l-31 -4h-156q-49 0 -133.5 -8t-120.5 -8h-69q-7 0 -105 3t-106 3q-9 0 -53 8t-45 8l-197 -2 q-10 53 -10 80z" />
<glyph unicode="M" horiz-adv-x="1331" d="M78 14l12 60q-2 6 -2 20q0 23 8 83t8 97l-20 191v82q0 27 4.5 84t5.5 80l-6 145l2 139q-6 83 -6 97q0 120 18 233l-18 90l10 90l111 31q6 4 10 4q1 0 6.5 -19.5t11 -42t7.5 -26.5l39 -72l71 -174l43 -149q10 -13 28.5 -65.5t40.5 -123t32 -98.5q2 -15 21.5 -90t19.5 -119 l40 -45l68 -27q78 -4 80 -4v17q0 8 18 43.5t36 87.5t18 102v13q0 18 10 82.5t10 80.5q0 62 24.5 136t28.5 118q5 60 28.5 143t45 139t27.5 58q2 1 5.5 8t11 13t20.5 6h133q25 -8 35 -35q4 -12 10 -57.5t10 -85.5l4 -39q-2 -31 -2 -66q0 -15 12.5 -115t12.5 -133 q0 -42 -1.5 -95.5t-3.5 -91.5t-2 -42q0 -83 17 -180q24 -128 24 -246q0 -8 3.5 -36.5t3.5 -49.5q0 -43 -12.5 -92.5t-12.5 -54.5q0 -16 0.5 -32.5t1.5 -29.5t2 -23t1 -16l1 -6q0 -1 -20.5 -4.5t-49.5 -6.5t-49 -3q-14 0 -58.5 6t-45.5 6l-27 72q-4 20 -4 43q0 14 23.5 76.5 t27.5 89.5q3 20 6 98t3 98q0 39 -10.5 52.5t-32.5 13.5q-34 0 -54 -21.5t-49 -74.5q-35 -67 -35 -97q0 -7 -3 -16.5t-7.5 -19t-9 -17t-8.5 -13.5l-4 -7q-1 -3 -66.5 -9t-81.5 -6q-9 0 -33 7.5t-34 7.5l-68 -7q-47 53 -55 80q-1 3 -5 17.5t-6.5 22.5t-7.5 21t-11 23.5 t-13 18.5q-26 30 -43.5 59.5t-23 44t-16.5 24t-30 9.5q1 0 -1.5 -1.5t-7 -6t-9 -11.5t-8 -20.5t-3.5 -30.5q0 -12 -2 -55.5t-2 -101.5q0 -34 7 -71t15.5 -61t17 -45t9.5 -24v-8q0 -55 -7 -87t-27 -49.5t-46 -22.5t-73 -5q-8 0 -12 2z" />
<glyph unicode="N" horiz-adv-x="1484" d="M61 16q0 11 5 38l4 26q0 2 14 21t14 20q0 2 41.5 27.5t44.5 25.5q2 0 11.5 13t20.5 27.5t13 16.5t2 23q0 12 -1 41.5t-2.5 82.5t-2.5 111q-1 68 -6 106t-10 46.5t-11.5 16t-9.5 18.5q-7 26 -10 145q-1 38 -10.5 75t-9.5 54q0 98 -11.5 285.5t-11.5 247.5q0 19 7 23.5 t34 4.5h27q46 0 114 -5t68 -17v-2q56 -37 64 -51q4 -7 47 -44t47 -42q17 -25 26.5 -57t14.5 -42q26 -9 68 -41.5t42 -42.5l11 -12q19 -44 46.5 -79t48.5 -55t44 -58.5t37 -92.5q7 -28 37.5 -112t46.5 -107q11 -16 41.5 -26t51.5 -12.5t32 -2.5q15 0 32 108.5t17 158.5 q0 99 -11 163q-3 19 -30 74t-29 66q-2 13 -38 98t-36 92q0 6 -16.5 35.5t-32.5 55.5l-16 26l229 53q166 -8 170 -8q2 0 15.5 -6t28 -12t16.5 -7v-2q0 -2 6.5 -18t13 -40t6.5 -46q0 -3 -8.5 -26.5t-17.5 -67t-11 -93.5q-1 -31 -18 -163.5t-17 -309.5q0 -34 5.5 -58t5.5 -36 q0 -8 -1 -55t-1 -76q0 -36 9 -143t9 -164v-12q-6 -38 -6 -146q0 -34 -13.5 -42.5t-52.5 -8.5l-158 6h-1q-29 0 -56 53q-20 36 -53 80.5t-53.5 72.5t-20.5 38q0 1 5 6q-12 20 -15.5 26t-8 15t-10 21t-26.5 52.5t-53 100.5q-39 75 -56 97t-18 24q-33 65 -51 123 q-3 11 -39.5 59.5t-38.5 54.5q-3 9 -34 30.5t-36 21.5q-9 0 -57.5 -14t-54.5 -25q-51 -90 -51 -180q0 -4 1 -11t1 -10l-6 -94q0 -25 4 -112t4 -159q0 -19 -2 -51t-2 -43q0 -40 9 -100.5t9 -71.5q0 -2 -32.5 -8t-65.5 -11l-33 -5l-33 2q-33 2 -62.5 4.5t-65 6.5t-56.5 8.5 t-21 8.5z" />
<glyph unicode="O" horiz-adv-x="1095" d="M53 510l13 6q-3 24 -3 39q0 17 5.5 52.5t5.5 74.5q0 15 11 50t11 54q0 91 2 189q1 69 16 142t28.5 111.5t39.5 106.5q12 31 70 74t65 51q18 21 84.5 46t67.5 26q5 4 46 6t85 2.5t49 1.5q7 0 40.5 -5.5t64 -11.5t30.5 -7q78 -68 80 -86q1 -6 15 -40t31 -81t24 -84 q8 -40 36 -119t29 -107q1 -26 20 -117t19 -149q0 -35 -5 -84.5t-5 -58.5q0 -31 -24 -126t-52 -157q-41 -91 -61.5 -148.5t-28 -94.5t-10.5 -46q-209 -24 -229 -24q-13 0 -82 8.5t-84 11.5q-50 9 -87.5 34.5t-93.5 84.5q-24 26 -65.5 85t-77.5 91q-9 9 -39 85q-28 72 -28 85 q0 7 -3 13t-7 11zM223 567l80 -75q2 -3 9.5 -11.5t13 -15.5t6.5 -10l12 -25q0 -1 8 -16.5t15.5 -36.5t7.5 -35q0 -6 -1 -17t-1 -14q0 -9 33.5 -47.5t83 -76t83.5 -37.5q12 0 23.5 3.5t24.5 9t18 7.5q10 3 67.5 81.5t57.5 94.5h-2q5 7 21 68.5t16 81.5v24q8 80 8 129 q0 55 -39 283q-4 24 -19 66t-26 94q-4 20 -8 33.5t-7 19.5t-5.5 9.5t-4.5 4t-4 0.5t-3.5 1.5t-2.5 6.5q-8 30 -35 68q-1 0 -25.5 15.5t-55.5 31.5t-46 16q-3 0 -7.5 -5t-18 -13t-37.5 -14q-36 -9 -50 -24.5t-20.5 -48.5t-13.5 -48q-43 -98 -43 -168q0 -9 1 -38.5t1 -53.5 v-39l-2 2q-2 -10 -24 -62.5t-25 -70.5q-5 -21 -14 -44t-11 -34q-3 -19 -39 -70z" />
<glyph unicode="P" horiz-adv-x="1185" d="M76 387q0 61 8 225t8 271q0 39 -8 118t-8 93q2 38 4.5 67.5t7 56t7 41t9 42t9.5 40.5q-11 54 -11 72q0 4 2 11t2 16l-2 39q56 63 60 63q3 0 23 -5t50 -10t58 -5h31q27 0 72.5 -8.5t82.5 -8.5q131 0 220.5 8.5t133 16.5t62.5 8q25 0 33 -8q10 -10 40 -19t62 -25.5 t51 -47.5q5 -8 26.5 -33t25.5 -47q7 -43 19.5 -215.5t12.5 -210.5q0 -83 -8 -101q-2 -4 -5 -16t-7 -20t-19 -18.5t-41 -18.5q-150 -47 -317 -47q-30 0 -64.5 3t-39.5 3q-3 0 -16 -1t-21 -1q-15 0 -50 1t-51 1q-34 0 -114.5 -4t-83.5 -6q-19 -8 -41.5 -28.5t-22.5 -33.5 q0 -87 21.5 -213.5t21.5 -142.5q0 -52 7.5 -109.5t7.5 -75.5l-11 -71l-178 -2q-18 0 -22 2q-8 4 -9 33t-4 78t-14 87q-10 29 -10 156zM330 1214q2 -1 6 -36t10.5 -78t15.5 -60q30 -65 62 -65h22q113 0 199.5 -9.5t114.5 -9.5q1 0 13 14.5t24 33.5t12 28q0 283 -23 283 l-192 4l-170 -19q-82 -80 -94 -86z" />
<glyph unicode="Q" horiz-adv-x="1093" d="M43 971q0 7 5 79t5 134q0 34 1 54.5t5.5 53.5t14 53.5t27.5 45t43.5 38.5t65 23.5t89.5 9.5q21 0 62.5 -1t58.5 -1q31 0 56.5 5t27.5 5q23 0 64.5 -16.5t81 -36.5t46.5 -22q22 -9 106.5 -84.5t139.5 -149.5q24 -32 46 -110.5t30 -98.5q12 -28 12 -94q0 -43 -6 -109.5 t-6 -74.5q0 -22 7 -167t7 -171q0 -17 -3 -37t-6 -35.5t-10 -37.5l-10.5 -33t-11.5 -33t-10 -27q-12 -34 -47 -57t-68.5 -32t-60.5 -21.5t-27 -28.5l64 -35h28q19 -26 55 -53.5t58.5 -49.5t22.5 -46q-35 -87 -78 -121l-90 12q-6 4 -24 15.5t-28 17t-25.5 11.5t-29.5 7l-74 43 l-61 51l-43 13l-27 127q-17 0 -46 -1t-38 -1q-4 0 -8.5 0.5t-7.5 1t-4 0.5t-20 5t-41 10.5t-45.5 13t-34.5 12.5q-40 20 -91 41q-8 3 -38 39t-31 47t-5.5 112.5t-4.5 116.5q0 3 3 88.5t3 122.5q0 78 -10.5 127.5t-20.5 76t-10 46.5v12l135 -10q15 10 31 10q28 0 28 -84 q0 -13 -1 -24t-1 -13q0 -3 2 -29t2 -42q0 -8 -2 -20t-2 -19q0 -71 47 -387q2 -12 6 -22.5t11 -19.5t13.5 -16t15.5 -13.5t14 -10t13 -8t9 -5.5q2 -2 13 -2q29 0 96 23l-41 119l20 73q5 11 16.5 18t21.5 9.5t25.5 5.5t20.5 4q20 -43 43 -180q35 21 95 45q104 43 104 68 q0 7 -2.5 38.5t-7 81.5t-6.5 84q-2 32 -6.5 97t-7.5 102t-7.5 84t-9.5 80q-18 122 -78.5 249.5t-107.5 127.5q-12 0 -73 -14t-116 -31q-17 -5 -26 -19.5t-15.5 -36t-13.5 -32.5q-19 -28 -25.5 -64t-15 -62t-33.5 -42q-2 -1 -15 -40.5t-34 -39.5q-13 0 -47 16.5t-45 16.5 q-6 0 -14 -3.5t-13 -3.5q-19 0 -24 0.5t-13.5 5.5t-10 16.5t-1.5 33.5z" />
<glyph unicode="R" horiz-adv-x="1234" d="M68 221q0 6 9.5 84.5t10.5 79.5t3 22.5t5.5 47.5t7.5 39q6 17 13.5 96.5t9.5 89.5q1 7 10 32t15 64t6 96q0 55 -10.5 127t-10.5 84q0 17 -3 58t-3 55q0 8 2 24.5t2 34.5q0 176 -35 277l181 -2q10 2 43 11.5t48 11.5t63.5 5t123.5 3q50 0 112.5 -15t96.5 -35q5 -3 85 -8.5 t85 -9.5q9 -8 35.5 -24.5t46.5 -31.5t47 -51.5t47 -87.5q27 -72 38.5 -104t21.5 -73t10 -72q0 -81 -25 -103q-4 -3 -30.5 -30.5t-48.5 -45t-50 -32.5q-56 -29 -117 -67.5t-91.5 -51t-73.5 -12.5l-111 8l-4 -4q0 -4 21 -22t54.5 -49.5t55.5 -61.5q18 -24 49 -78.5t35 -59.5 q101 -144 134 -202q29 -53 60 -123q14 -31 29 -56.5t22 -36.5t7 -18q-103 -10 -142 -10l-178 6q-36 33 -67 92t-39 92q-21 85 -75 187.5t-58 124.5l-35 110l-90 -47q-6 -2 -6 -22q0 -8 6 -86t6 -99v-147q0 -17 -5 -53t-5 -78v-47q-6 -23 -39 -23l-62 12l-63 4q-55 -4 -90 -4 q-31 0 -31 4q0 6 -29 91q-30 88 -30 110zM389 1194q0 -24 22.5 -83.5t24.5 -70.5q2 -9 4.5 -26t3.5 -23.5t4.5 -17.5t8.5 -15t13.5 -9.5t20.5 -7t29 -1.5q21 0 114.5 15.5t96.5 19.5l84 18q23 78 23 217q0 19 -27.5 43.5t-58.5 40.5l-310 -26q-41 -41 -49 -41l-3 -11z" />
<glyph unicode="S" horiz-adv-x="1325" d="M57 1104q0 21 31 76q35 65 53 116.5t27 65.5q40 62 137 165t148 124q75 26 198 26q58 0 107 -8q41 -7 73.5 -10.5t41.5 -4.5t20 -5.5t33 -18.5q43 -28 95.5 -49t87 -31t68.5 -33t54 -59q39 -74 46 -102q7 -30 7 -74q0 -46 -12 -82q-6 -17 -65.5 -28t-78.5 -11 q-2 0 -13 10.5t-21 21.5l-11 11q0 30 -59.5 101t-93.5 90q-76 45 -90 53q-13 7 -81.5 29t-86.5 22h-152q-113 -47 -117 -57q-2 -4 -57.5 -59t-56.5 -62q-1 -8 -15 -47.5t-14 -63.5q0 -49 5 -65t40 -82q22 -41 43 -75t44 -62t41.5 -49.5t44 -41.5t41.5 -32.5t45 -29 t43.5 -24.5t48.5 -24.5t49 -24.5q12 -6 61 -22t86 -47q23 -20 53.5 -38t48 -32.5t29.5 -38.5q5 -11 24 -46.5t27 -53.5t20.5 -47.5t17.5 -54.5t5 -48q0 -38 -30 -86t-97 -82q-25 -13 -55.5 -34t-49 -34t-22.5 -13h-2q1 -1 5 -4.5t6 -5.5t2 -3q0 -8 -64 -8q-22 0 -109 2 t-116 2q-58 0 -117 -3t-68 -3q-113 0 -161 28.5t-54 67.5q0 3 -8 28.5t-15 63.5t-7 80q0 58 41.5 123.5t66.5 65.5q29 0 58 -40t48 -88t37.5 -88t30.5 -40q44 0 83 10.5t63 26t42 31t27.5 26t10.5 10.5v-2q0 27 -45.5 112t-88.5 126q-14 14 -22 23q-4 5 -25 17 q-7 4 -11.5 6.5t-14 7.5t-19.5 11q-38 21 -76.5 48t-62.5 42t-49 21q-82 19 -82 28l6 1q6 1 6 12q0 18 -14 78q-7 29 -14.5 59t-9 35t-5 23t-4 27t-4.5 42q-3 33 -17 53.5t-14 28.5z" />
<glyph unicode="T" horiz-adv-x="1570" d="M25 1264q0 48 16.5 123t36.5 75h14q37 -6 47 -6q113 0 113 -4t80 -4q47 0 147 9t152 9q16 0 95.5 3t90.5 4q5 1 46.5 6.5t78.5 10.5t41 5q3 0 35 10.5t43 10.5q2 0 12 -1.5t19 -1.5q67 0 156 15.5t153 15.5q22 0 22 -6t28.5 -24t57.5 -48.5t29 -66.5q0 -17 -13.5 -53.5 t-27.5 -65.5t-16 -29q-146 0 -152 6q-5 5 -98 46.5t-103 42.5h-147q-49 -56 -53 -74q-2 -7 -24.5 -57t-22.5 -85q0 -8 1 -46t1 -74q0 -31 -4.5 -74t-4.5 -66q0 -78 17 -157t34.5 -140.5t18.5 -95.5q3 -116 10.5 -180t28.5 -129q5 -15 12.5 -36t9 -26t4 -15.5t3 -17.5 t0.5 -18q0 -17 -6.5 -24.5t-26.5 -7.5q-8 0 -29.5 1t-34.5 1q-25 0 -106.5 -10.5t-108.5 -10.5h-14q-8 0 -26 -7t-25 -7q-21 0 -21 49v59q0 42 -3 87.5t-3 50.5q0 42 9 86t18.5 135.5t9.5 249.5q0 29 -1 61t-1 43q0 58 24.5 161.5t24.5 106.5q1 12 2.5 24.5t2 23t1.5 21.5 t1.5 20t1 17t0.5 13.5t0.5 10t0.5 6.5v2q0 11 -26 20t-52 13l-26 5q-23 0 -84.5 -10t-67.5 -10q-8 0 -29.5 1t-33.5 1q-63 0 -80 -12q-14 -9 -44 -18.5t-59.5 -17t-33.5 -9.5q-31 -12 -57.5 -22t-39.5 -15.5t-12 -5.5q-14 1 -32 127z" />
<glyph unicode="U" horiz-adv-x="1261" d="M72 798v40v34q0 76 14 212t28.5 238.5t14.5 96.5q0 -1 -2 24.5t-4 50.5l-2 26h74l24 -31v-57q9 -2 60.5 -4t94 -6.5t42.5 -12.5q0 -89 -15.5 -239.5t-15.5 -165.5q0 -72 3 -132t10 -109t11.5 -75.5t14.5 -68.5t12 -52q51 -178 51 -235v-14.5t-0.5 -10.5t-0.5 -7.5v-5 t-0.5 -2.5t-0.5 -2v-1q0 -17 17.5 -22t56.5 -5h33q10 0 67 -5t82 -5q47 0 98.5 69.5t84 163t32.5 164.5q0 21 -2 40.5t-8.5 47.5t-11 44.5t-17 60.5t-18.5 67q-23 80 -64.5 275.5t-41.5 214.5l2 2l2 -6q4 -2 16 -2q37 0 143 36.5t148 36.5q5 0 14 -8t21 -25t22.5 -39.5 t17.5 -56t7 -69.5q0 -18 -5 -70t-5 -84q0 -4 5 -52.5t5 -111.5q0 -15 -2 -49.5t-2 -75.5q0 -43 1 -101.5t1 -72.5q0 -46 -6 -145q-1 -15 -2.5 -80t-3.5 -132.5t-6 -138t-11 -115t-16 -44.5l-6 1q-6 1 -16.5 2t-22.5 1q-44 0 -153.5 -7t-235.5 -7q-1 0 -50 5t-84 5 q-9 0 -27 -2t-26 -2q-62 0 -153.5 36.5t-118.5 96.5q-2 5 -17 27.5t-33.5 68.5t-43.5 131q-14 48 -26 91.5t-20 83t-14 68t-9.5 63.5t-6 51.5t-3.5 49t-1 39.5z" />
<glyph unicode="V" horiz-adv-x="1433" d="M41 1540q31 -3 63 -11.5t72.5 -23t63.5 -20.5q10 -3 29.5 -6.5t31 -6.5t29.5 -15t35 -32q11 -14 35.5 -69t27.5 -88q2 -23 15 -70.5t32 -107t23 -74.5q13 -45 48 -150t46 -161q2 -9 12 -43t17.5 -66.5t7.5 -48.5q0 -3 -2 -7t-2 -10q0 -16 13 -23t50 -7q5 0 16.5 1t16.5 1 t15.5 -1t15.5 -1q31 0 49 47.5t24 103.5q1 8 32.5 68.5t39.5 85.5q6 21 10.5 39.5t7 32t3.5 18.5q5 22 17.5 52.5t37 89.5t47.5 120q8 22 12.5 33.5t7.5 24t3.5 18.5t3 25.5t4.5 35.5q12 88 24.5 131t24 56t39.5 30l80 11q57 8 73 8q14 0 59.5 -25.5t45.5 -36.5 q0 -63 -6 -141q-3 -35 -10.5 -50t-22.5 -28.5t-25 -31.5q-23 -42 -62.5 -146t-47.5 -135q-16 -55 -75.5 -186t-96.5 -254q-3 -11 -20 -54t-30.5 -90t-17.5 -90q-2 -21 -6.5 -32t-13.5 -28t-17 -40q-15 -44 -29.5 -75t-23 -47.5t-22 -26.5t-17.5 -12t-18.5 -3.5t-16.5 -1.5 h-57q-22 2 -221 8q-1 1 -1 5.5t-3 11t-10 19t-24 37.5t-42 60q-43 58 -79 172.5t-75.5 245.5t-87.5 213q-31 50 -31 143v25q0 5 -59 188q-44 129 -84 349z" />
<glyph unicode="W" horiz-adv-x="1697" d="M47 1546l133 31q66 -4 68 -4q1 0 63.5 -16.5t63.5 -16.5t11 -6.5t21.5 -17t14.5 -17.5q3 -8 21 -27.5t33.5 -41.5t15.5 -41q0 -5 -2.5 -20t-2.5 -28t24 -88t24 -102q0 -3 -1.5 -12t-1.5 -15q0 -14 16.5 -98.5t16.5 -112.5q0 -7 -1 -29t-1 -46q0 -32 2 -70t2 -68 q0 -34 10.5 -82t10.5 -61q0 -24 8 -37.5t37 -42.5q13 -16 20 -16q2 0 2 6q0 1 -1 5.5t-1 6.5q0 6 4 10q13 13 21 40t13.5 70t6.5 48q6 33 39 74t49 41q18 0 83.5 -13t103.5 -24q23 -7 32.5 -21t8.5 -24v-10q2 0 4 -27t5.5 -68.5t6.5 -64.5q4 -25 14.5 -37.5t22 -17 t12.5 -6.5q5 -5 17 -5q39 0 63 8t32 16.5t21.5 29.5t22.5 32q5 6 10 15t15 38t17 66.5t13 105t6 148.5q0 23 -2 23q-1 0 -4.5 -3t-5.5 -3q-7 0 -11.5 39.5t-4.5 62.5q0 106 2 178.5t8 157.5t20.5 129.5t36.5 44.5q11 0 29 -5t20 -5q56 0 140 -20t108 -23v-58l4 -102v-105 q0 -50 -21.5 -111.5t-21.5 -62.5v-34q0 -35 -3.5 -65.5t-13 -88.5t-13.5 -88q-8 -56 -38 -141.5t-32 -176.5q-1 -38 -4.5 -58.5t-11.5 -41t-11 -31.5q-4 -13 -45 -131q-13 -37 -33.5 -62t-31.5 -46q-3 -2 -16 -23.5t-30.5 -41t-33.5 -19.5q-6 0 -56 22.5t-63 22.5 q-4 0 -7.5 1.5t-7.5 6t-7 9t-8 14t-9 17t-11.5 22t-12.5 24.5q-8 15 -49.5 64.5t-51.5 68.5q-4 8 -19 34.5t-23.5 41.5t-21 35t-22 29.5t-16.5 9.5q-19 0 -31.5 -24.5t-25 -64t-23.5 -57.5q-15 -24 -27.5 -60.5t-22.5 -64t-28.5 -56t-55.5 -49.5t-93 -32q-30 -6 -35 -6 q-2 0 -2 2l3 4q3 4 3 8q0 13 -14 24t-35.5 22.5t-30.5 19.5q-12 10 -21.5 47t-25.5 68q-22 42 -31 70t-14.5 65.5t-11.5 62.5q-7 28 -29 87t-29 89q-48 191 -63 353q-3 27 -10 39t-20.5 19t-16.5 9q-18 16 -90 141q-25 43 -33 181z" />
<glyph unicode="X" horiz-adv-x="1544" d="M57 1516q0 8 38.5 17t54.5 9q94 0 163 -21.5t117 -21.5q3 0 6.5 3t5.5 3q18 0 101 -221q38 -97 88.5 -178.5t90.5 -132.5t46 -64q7 -14 12.5 -28.5t7.5 -20t5.5 -11t8 -6.5t13.5 -1q31 0 67 41.5t40 62.5q2 11 15.5 35t20.5 45q6 18 12 41t9.5 38.5t5.5 18.5q1 2 1.5 2 t1 0.5t1.5 3.5t2 9.5t3 20t5 34.5q3 23 6 40t4 23l2 12t1 10.5v14.5q0 13 -2 26.5t-2 18.5q0 15 28.5 68t28.5 61q0 5 -2 5q1 0 5.5 12.5t11 27.5t10.5 19t34.5 6.5t59.5 3.5h28q28 -7 76 -22t84.5 -23t69.5 -8q2 0 22.5 -26t20.5 -33q0 -5 -52 -123.5t-53 -126.5 q-1 -11 -27 -55.5t-38 -57.5q-80 -92 -103 -119q-24 -30 -93.5 -93t-124 -113.5t-54.5 -61.5q0 -85 193 -342q17 -22 48 -44t46 -42q27 -37 46.5 -69t27 -48.5t19 -45.5t17.5 -42q4 -12 4 -18q0 -20 -34.5 -36t-83.5 -16q-27 0 -46 5.5t-33 14t-16 9.5q-47 17 -88 17h-6 q-2 0 -7 -1.5t-7 -1.5q-3 0 -6.5 8t-13.5 27t-25 39q-14 18 -42.5 52t-46.5 56.5t-18 28.5v35q0 60 -23.5 137t-23.5 82q-10 -14 -54.5 -41.5t-51.5 -27.5t-12 -5t-8 -15t-5 -20l-5 -25l-5 -25q-3 -14 -27.5 -40t-36.5 -44q-21 -33 -43.5 -70.5t-34 -57.5t-26.5 -42t-26 -32 t-28.5 -19t-38 -12t-50.5 -3q-11 0 -46 2t-47 2l-78 -6h-1q-1 0 -23 2.5t-43 5t-20 2.5q0 13 56 105t93 133q104 116 172 270q25 57 51 105t41.5 73.5t18.5 34.5v80l-43 107q-66 32 -156 208q-67 49 -137 134l-33 57q-40 37 -69 86.5t-38.5 76.5t-9.5 32z" />
<glyph unicode="Y" horiz-adv-x="1523" d="M29 1458l34 8q23 0 64 2t73 4l31 1h66q5 2 23 -26t38 -71t27 -76q4 -17 31.5 -66.5t36.5 -90.5q39 -177 110 -328q19 -42 19 -74v-20q0 -9 7.5 -11.5t37.5 -2.5q26 0 64 1t50 1q13 0 72 -7.5t88 -7.5q14 0 31 16t35.5 47.5t33.5 91.5t21 136q2 29 20.5 78t22.5 67 q5 23 7 86.5t7 77.5q16 41 20.5 84.5t4.5 63.5t16 33.5t56 13.5q3 0 13.5 -1t20.5 -1q87 0 165.5 6t97.5 6q14 -33 14 -76q0 -20 -2 -30q-4 -23 -43.5 -136t-40.5 -143q-2 -59 -94 -293q-16 -41 -56 -97.5t-45 -72.5q-3 -11 -10.5 -23t-20.5 -29.5t-24.5 -31t-34 -40 t-37.5 -44.5q-29 -35 -62.5 -59.5t-52 -36t-20.5 -22.5q-2 -6 -16 -43.5t-25.5 -75t-11.5 -56.5q0 -6 4 -22q12 -47 12 -137q0 -4 -17 -10t-20 -17q-3 -9 -28 -12.5t-59.5 -4.5t-45.5 -3q-7 -1 -17 -4t-13 -3q-19 0 -32 28.5t-18 72.5t-6.5 73t-1.5 54q0 53 6.5 127t6.5 84 q0 84 -56 84q-45 0 -79.5 5t-51 10.5t-52.5 19.5t-58 22q-8 3 -22 7t-21 6.5t-17.5 7t-15.5 9.5t-10.5 12.5t-8 18t-2.5 23.5q0 7 2 55.5t2 69.5q0 34 -2 68.5t-2 37.5q0 66 -21 141.5t-42 124.5t-21 52q0 2 -10 18t-27.5 44.5t-29.5 52.5q-4 9 -21.5 30.5t-33 39 t-15.5 18.5z" />
<glyph unicode="Z" horiz-adv-x="1474" d="M70 96q0 9 4 33.5t4 28.5t32 32.5t64 55.5l33 26v-4q5 0 32 31.5t66 86t72 108.5q19 32 166 172.5t180 189.5q14 20 40.5 33.5t61 23.5t41.5 13q35 15 114 56t97 58q19 18 68 46.5t82 54.5t33 49q0 7 -2 15t-4 12l-1 4l-10 14q-168 12 -168 16h-4q-21 0 -94 -7t-143 -7 q-16 0 -110 3t-116 3t-113 -1t-102 -1q-16 0 -149 40l-47 13q-59 19 -71.5 51.5t-12.5 122.5v15q0 40 12 53.5t37 13.5q7 0 27 -2t32 -2q22 0 43 6h8q10 0 84 -5t115 -5q161 0 326 12.5t190 12.5q56 0 356 -21q23 -2 23 -33v-24q0 -6 8 -69t8 -101q0 -26 12.5 -107.5 t12.5 -132.5q0 -43 -8 -69.5t-18 -34t-20 -12t-11 -7.5q-3 -6 -50.5 -47.5t-56.5 -52.5q-38 -42 -51.5 -56.5t-44 -42t-56 -40.5t-67 -31t-96.5 -35q-37 -11 -111 -74t-74 -77q0 -11 -40 -39.5t-68 -44.5q-10 -7 -27.5 -22.5t-44.5 -45t-46 -70.5t-19 -81q0 -15 10 -15 q14 0 52 32l38 32q25 11 131.5 27t171.5 16q13 0 35.5 -1t30.5 -1q17 0 35.5 2t27.5 2h45q10 1 80.5 33t77.5 32q6 0 18.5 -8.5t21.5 -17.5l9 -8l8 -23q9 -23 19 -58.5t10 -60.5q0 -45 -9.5 -76t-19 -42.5t-30.5 -28.5t-27 -23t-105 -6q-15 0 -49 4t-61 8l-27 4h-162 q-111 0 -332 -8t-294 -8q-82 0 -107.5 19.5t-25.5 72.5z" />
<glyph unicode="\" horiz-adv-x="1165" d="M10 1595h131q14 -9 74.5 -21t106 -22.5t34.5 -19.5q41 -51 41 -82q0 -25 20 -57t45.5 -64t51 -99.5t33.5 -154.5q6 -67 38.5 -153.5t39.5 -141.5q6 -52 40 -103t90 -115.5t85 -110.5q36 -57 73.5 -118.5t56.5 -94.5l19 -33l168 -201q-6 -1 -87.5 -15.5t-158.5 -21.5 l-86 -8q-59 63 -82 92q-11 13 -20 73.5t-25 84.5q-14 21 -37 86t-45 96q-18 26 -38 61t-43.5 79t-32.5 61q-66 117 -127 248q-17 36 -48.5 137t-39.5 117q-16 34 -86 159q-5 9 -66 131t-65 129z" />
<glyph unicode="_" horiz-adv-x="1404" d="M49 -293l2 88q321 37 633 37q26 0 88 11.5t150 11.5q54 0 78.5 2t25.5 5t9.5 7.5t31.5 7.5q32 4 90.5 9t100.5 8l42 2q31 -142 31 -175q0 -30 -12 -88t-23 -61q-16 -4 -26 -4q-6 0 -57 10.5t-64 15.5h-346q-116 0 -324.5 -22.5t-308.5 -22.5q-35 0 -58 3.5t-32 6.5t-10 3 q-10 0 -15.5 55t-5.5 90z" />
<glyph unicode="`" horiz-adv-x="722" d="M41 2034l45 118l152 64q30 -70 36 -78q1 -2 58.5 -58.5t115 -116t62.5 -71.5q4 -10 60.5 -82t58.5 -88q2 -13 22.5 -40t40.5 -48l19 -20q-28 1 -121 10.5t-121 9.5q-17 0 -90 -15t-100 -15q-21 0 -21 8l2 6q-15 41 -27 96q-12 53 -79 172q-25 45 -27 41q-4 -2 -25.5 25 t-41.5 54z" />
<glyph unicode="a" d="M39 0l2 88l51 150q0 1 19 39.5t37 77.5t18 46q0 1 -1 3.5t-1 3.5q1 0 12.5 27t29.5 75t34 94q15 42 20.5 65.5t8 53t7.5 55.5q7 42 27.5 94t32.5 97q13 47 24 98q3 17 18 124.5t35 201t44 133.5q8 14 49 14q43 0 66.5 -5.5t31 -10t26.5 -29t32 -37.5q36 -40 63 -92.5 t41 -71.5q10 -15 36.5 -84.5t37.5 -109.5q7 -27 34 -81.5t44 -96.5q37 -93 55 -168q5 -23 14.5 -45t22 -48t18.5 -40q121 -276 191 -400q55 -99 55 -219q0 -10 -12 -10q-63 0 -103 2t-72 9.5t-49 17t-30 30t-19 42.5t-12 61q-5 23 -33 80t-33 71h-176q-13 4 -29.5 7.5l-33 7 t-33 6t-30.5 5t-25 4t-17 2.5l-6 1q-126 0 -153 -2l-21 -74q-6 -142 -14 -156q-6 -11 -38.5 -53.5t-35.5 -42.5zM453 481q3 -1 24.5 -6.5t43 -10.5t28.5 -5l117 24l94 95q36 -7 67 -13q-13 25 -48.5 124.5t-59.5 148.5q-5 9 -32.5 21.5t-45.5 12.5q-17 0 -36 -15.5 t-23 -25.5q-6 -14 -30 -55t-39 -81t-15 -85q0 -19 -45 -129z" />
<glyph unicode="b" horiz-adv-x="804" d="M74 1098q0 14 2 18q-2 18 -2 41q0 107 25 189.5t46 109.5q1 1 7 8t10 12t12.5 13.5t15.5 14.5t17 13.5t19 12t19.5 7.5t20.5 3q55 0 112.5 -7t92.5 -15l35 -7q25 0 43.5 -12.5t36 -34t20.5 -24.5q2 -2 15.5 -10t27 -21.5t27.5 -36.5t33.5 -54.5t23.5 -39t11 -27t7.5 -35 t0.5 -47.5q0 -15 -23.5 -71t-23.5 -58v-6q0 -28 -21 -28q-27 0 -41.5 -3t-21 -7t-24 -17t-38.5 -25q-30 -18 -71 -38t-56.5 -31t-19.5 -25q-1 -4 -8.5 -9t-15.5 -8l-7 -3l10 -29q2 -2 8 -16q3 -6 33 -38t37 -46q12 -27 41 -49q-1 -1 24.5 -29t59.5 -71t47 -73q8 -20 20 -51 t19 -47q4 -8 16.5 -25.5t21 -40t11.5 -59.5q8 -98 9 -108q0 -21 -6.5 -43t-29.5 -46t-61 -30q-83 -14 -131 -14q-13 0 -78.5 3t-116.5 3q-16 0 -50.5 -5t-62 -10.5t-28.5 -5.5h-43q-37 -10 -45 -10h-2q0 14 -4 62t-4 120q0 63 14 176.5t14 184.5q0 50 -3 109.5t-3 72.5 q0 39 3 70.5t3 33.5q0 23 -15 132t-15 137zM219 246l31 -105q6 -10 31 -10q13 0 61 9.5t57 9.5l142 2v32q0 4 0.5 34t0 45t-3 40t-8.5 42.5t-16 29.5q-13 15 -28.5 47t-20.5 39q-6 9 -22 18.5t-29 14.5l-13 6l-47 -25q-62 -49 -90 -51q-31 -45 -33 -45q-1 0 -6.5 -62 t-5.5 -71zM270 1077l15 -106l121 -10l100 114l29 60q2 14 2 26v10q-1 6 -15.5 42.5t-28.5 70.5l-14 33l-69 84l-76 -21l-64 -84v-219zM510 659h4h-4z" />
<glyph unicode="c" horiz-adv-x="892" d="M61 1036q0 34 18.5 166t24.5 139l97 132l106 14q345 -27 355 -27q7 0 35 -16.5t34 -22.5q2 -2 15.5 -25t27.5 -44t17 -21q4 0 7.5 -35.5t5.5 -70.5l1 -35l6 -158l-84 -10l-96 4v16q0 39 -7 83.5t-27.5 84t-49.5 39.5q-15 0 -50 -7.5t-62.5 -14.5t-28.5 -6 q-136 -150 -154 -177q-10 -14 -10 -43v-24l-2 -11q-2 -11 -5 -30t-6.5 -45t-7.5 -58.5t-7 -66.5t-5.5 -73.5t-4.5 -76.5q0 -42 29 -124.5t29 -104.5q0 -23 6.5 -41.5t26.5 -51t27 -46.5l11.5 -23t6 -13.5t8 -5.5t14.5 -4.5t28 -4.5t46 -11q47 -12 76 -12q30 0 57 31t27 65 q0 2 -14.5 92t-14.5 99q0 55 22 104t38 49l13 -1q12 -1 32 -2.5t41 -3.5t40 -4t27 -3q20 -3 33.5 -92.5t13.5 -202.5q0 -57 -11 -95t-24 -53.5t-39.5 -41t-41.5 -45.5q-8 -11 -39 -11q-25 0 -76 11.5t-61 11.5q-18 0 -44 -13.5t-40 -13.5q-9 0 -30.5 -1t-31.5 -1 q-34 0 -37 6q-2 3 -40 26.5t-46 33.5q-71 91 -121 237q0 1 -6.5 19t-14 39.5t-17 50.5t-17.5 54.5t-13 47.5t-5 33q0 22 -5.5 218t-5.5 218z" />
<glyph unicode="d" horiz-adv-x="786" d="M72 1307q0 38 16 92.5t16 70.5q0 9 -4 21l21 41h162l133 -27q19 -7 46.5 -21.5t77 -44t58.5 -34.5l35 -25q16 -25 18 -45q1 -9 31 -115t31 -119q-1 -11 13 -65q14 -58 15 -86q0 -15 2 -46.5t2 -49.5q0 -86 -41.5 -239t-72.5 -189q-23 -27 -54.5 -133t-44.5 -119 q-7 -7 -19.5 -21.5t-19.5 -20.5t-24.5 -15.5t-42.5 -16.5q-3 -1 -6 -1.5t-4 -1l-2 -1t-2 -0.5t-1 1t-1 1q-33 0 -103 -25t-96 -38l-64 -31l-51 2l4 23v45q-4 75 -4 106q0 14 1 89.5t2 146.5t1 73l-2 29q-3 28 -5.5 67t-2.5 64l10 169v16v16q-12 113 -12 117q0 1 2 49.5 t2 54.5v129q-20 97 -20 107zM213 240l160 69q1 45 23 103.5t48 107t47 117.5t21 133v31q39 137 39 139q0 1 -15 41t-32 82.5t-21 48.5q-4 5 -19.5 29.5t-29 45.5t-16.5 23t-38.5 5.5t-69.5 7t-34 4.5h-40l-19 -215q4 -344 4 -350q0 -73 -1.5 -150.5t-3.5 -157.5t-3 -114z " />
<glyph unicode="e" horiz-adv-x="1042" d="M72 1296v164l524 41h256v-151l8 -43l-67 -27l-101 -18q-113 -11 -127 -11q-2 0 -63 5.5t-86 5.5q-18 0 -20.5 -2t-2.5 -17q0 -22 7 -77l8 -56q0 -6 -6 -92.5t-7 -87.5l2 -64q22 -10 37.5 -15t52 -9t91.5 -4q82 0 198 26.5t117 26.5q6 0 10 -20t7 -55t5 -46l3 -76 q-23 -78 -27 -78l-121 -16l-129 31l-129 -35l-70 -61q50 -141 50 -224q22 -75 118 -75q90 0 152 10q137 22 145 28q10 5 15 5q4 0 10 -1l6 -2q1 0 6 1.5t8 1.5q29 0 31 -54q4 -74 4 -114q0 -6 -4 -22t-8.5 -29t-5.5 -13q0 -2 3 -6t3 -6q0 -17 -96 -17q-12 0 -31 1t-33 1 q-84 0 -182.5 -9t-155.5 -18l-57 -9l-105 16q-41 10 -45 10l-73 -6l-70 25q2 6 2 18q0 16 -14.5 72.5t-14.5 101.5v170q0 8 5.5 69.5t5.5 121.5q0 260 -5.5 378t-17 193.5t-16.5 142.5z" />
<glyph unicode="f" horiz-adv-x="997" d="M72 6v289q26 157 38.5 324t14.5 270t2 293q0 66 -10.5 181t-10.5 153h3q14 0 116 20t103 20h12.5t30 -0.5t39.5 -1t45.5 -0.5h44.5q37 0 59 1t25 1q40 0 126.5 -9t149.5 -9q10 0 28 2t25 2q70 0 70 -76v-41q0 -8 2 -50.5t2 -61.5q0 -31 -4 -31q-32 7 -138 22t-116 15 l-63 -2q-126 39 -134 49q-2 2 -20 2q-178 0 -178 -111q0 -13 2 -43t2 -38v2q-1 0 -5 -19t-7.5 -47t-3.5 -47q0 -9 5 -50t5 -54l-4 -95l32 -41q27 -4 31 -4q1 0 21.5 4t48.5 8.5t45 6.5q19 2 103 18t91 16q1 0 20.5 -3t38 -5.5t19.5 -1.5v-6q0 -14 7.5 -80t7.5 -78l-17 -94 l-31 -2l-143 12l-215 25l-100 -37v-133q-15 -150 -15 -162l9 -194l-25 -109h-184z" />
<glyph unicode="g" horiz-adv-x="1187" d="M57 1135l23 202l268 74l377 45l233 -59l181 -346l-74 -50l-162 -55l-45 4q-4 97 -4 105q0 10 -30 67t-46 64q-14 6 -86 6q-76 0 -132.5 -19.5t-121.5 -82.5q-38 -37 -50.5 -89t-13 -124t-5.5 -103q-10 -59 -31 -171.5t-21 -108.5q0 -43 5.5 -95.5t11.5 -64.5 q3 -6 7.5 -10.5t14.5 -11t21.5 -13.5t35.5 -22.5t50 -32.5q30 -20 46.5 -37t18 -24t10 -12.5t23 -6t57.5 -0.5q16 0 62 6q31 4 86.5 52.5t67.5 68.5q14 22 14 98q0 12 -33.5 44t-44.5 32l-141 -35l-66 21v165l72 11q31 3 85 8t79.5 7.5t63 8t68 12.5t62.5 17q9 -9 26.5 -12 t27.5 -7.5t18 -42t8 -112.5q0 -59 -43 -215q-6 -22 -40 -87t-42 -73q-53 -53 -86.5 -80t-75.5 -41.5t-76.5 -17t-109.5 -2.5q-15 0 -115 24.5t-120 34.5q-44 23 -79 57t-38 70q-1 11 -32.5 99.5t-37.5 125.5q-4 27 -15 79t-19.5 93.5t-8.5 53.5q0 24 -20 155t-27 138 q-6 6 -18.5 103.5t-12.5 111.5z" />
<glyph unicode="h" horiz-adv-x="1294" d="M63 924v6q2 9 24.5 54.5t44.5 88t22 43.5t-4 57.5t-7.5 117t-3.5 71.5q0 24 -6 98.5t-10 81.5q0 4 16 4l115 -10h59q6 -2 35 -6.5t53.5 -10t24.5 -10.5q0 -6 -1 -15l-1 -9l2 -17q1 -17 3 -42.5t4 -52.5t3.5 -51.5t1.5 -35.5q0 -56 -8 -167t-8 -167q0 -38 5.5 -57.5 t12.5 -22t16 -7t13 -13.5q14 2 43 2q40 0 110 -7t91 -7q20 0 69.5 20.5t51.5 20.5q13 3 21.5 27.5t8.5 47.5q0 15 -12 77t-12 67q0 7 -12.5 148t-12.5 149q0 7 11.5 37.5t22.5 57.5l11 26h68l202 -2q0 -2 2 -11l31 -151q0 -60 -7 -152t-7 -127v-114q0 -224 6 -281 q1 -5 9.5 -43.5t16 -83.5t7.5 -74q0 -36 3 -110.5t3 -94.5q0 -21 13 -85t14 -99q1 -29 3 -50.5t4 -28.5l1 -7h-66l-109 -7q-108 -7 -114 -7t-18.5 118.5t-12.5 167.5l1 28q1 28 2 61t1 47q0 19 9.5 83.5t9.5 75.5q0 16 -11 37t-21 34l-11 13q-90 7 -96 7q-48 0 -119.5 -4 t-126 -8.5t-60.5 -4.5l-53 -59v-156q0 -2 2 -32t4 -71t2 -69v-233q0 -4 -4.5 -6.5t-9.5 -2.5h-4q-186 -2 -225 -2q-25 0 -25 2q4 2 4 4q0 1 -8 76t-8 156q0 8 1 27t1 30q0 92 -10 137q-2 8 -12.5 95.5t-12.5 93.5q-15 38 -37 125q-5 18 -17 81t-12 83z" />
<glyph unicode="i" horiz-adv-x="532" d="M74 76v260l16 178v78q0 50 -8 226t-8 278q0 30 10.5 141.5t19.5 157.5q19 92 19 116q0 2 21.5 8t43.5 11l21 6l176 -20l78 6q10 -72 10 -97q0 -31 -5 -50.5t-11.5 -32t-11.5 -62t-5 -133.5q0 -125 -22.5 -195t-22.5 -153q0 -25 13.5 -145.5t13.5 -176.5q0 -22 -1 -48 t-1 -38q0 -3 2.5 -78t5 -147t2.5 -68q0 -2 -6 -30t-6 -29q-8 -1 -51.5 -15t-53.5 -14q-82 0 -151 12t-84 13z" />
<glyph unicode="j" horiz-adv-x="978" d="M16 535q0 88 11 96q4 3 56.5 20t57.5 21q4 4 24 9.5t38 8.5l18 4q13 -4 26.5 -4t18.5 -1t11 -4t8.5 -18.5t5 -37t6.5 -68.5q13 -160 19 -205t20 -71q4 -9 51 -9q43 0 56.5 1t36.5 4.5t36.5 15t32 28.5t47.5 50q6 7 24 25.5t23 26t14.5 27t12 44.5t2.5 61q0 23 -15.5 99.5 t-15.5 115.5q0 21 -3 81t-3 91v301q6 121 6 125q0 2 -5 32t-5 32v106l272 -6q-2 -2 -2 -23q0 -33 7 -115t7 -83q0 -8 -14 -146.5t-14 -142.5q0 -1 0.5 -27.5t1 -65t0.5 -67.5q0 -59 -2 -69q-1 -3 -14.5 -61t-24 -113.5t-10.5 -85.5q0 -17 1 -111.5t1 -142.5q0 -37 -2 -58.5 t-10 -37.5t-13.5 -22t-24.5 -21t-30 -25q-9 -8 -17 -25.5t-19 -29t-32 -15.5q-30 -5 -117 -9.5t-110 -4.5q-14 0 -105.5 -17.5t-175.5 -17.5q-25 0 -41 4t-33.5 17t-28 43t-15.5 77q-11 99 -24.5 172t-19.5 115t-6 107z" />
<glyph unicode="k" horiz-adv-x="1275" d="M70 1526q0 2 2 4t10 2l29 -6l227 10l-2 -18q0 -26 -4 -116t-4 -112l8 -98q0 -70 -4 -82v-6q0 -67 12.5 -111t32.5 -53q33 39 67.5 116.5t53.5 135.5q80 139 80 143l4 92q55 125 59 129q3 3 37 3l100 -3h135l158 11l131 -25l-4 -37q-43 -22 -77.5 -52.5t-60 -70t-42 -74 t-35.5 -83.5q-17 -44 -67 -107t-64 -96q-16 -10 -46 -26t-47.5 -26.5t-37.5 -27t-29.5 -37t-9.5 -45.5l14 -35l60 -69q57 -62 57 -66q0 -3 49 -34t51 -31q15 0 80.5 -76.5t65.5 -102.5q0 -3 5.5 -14t11.5 -22.5t12 -23.5l6 -11q1 -1 9.5 -14t16.5 -26t8 -16t40 -91t40 -89 l-30 -135l-60 -18l-82 28q-85 -16 -108 -16q-5 0 -43.5 77.5t-38.5 90.5q0 7 -3.5 16t-9.5 18.5t-10.5 16.5t-11.5 16t-8 11q-19 26 -35 102q-10 45 -37.5 91.5t-54.5 77.5t-49.5 66.5t-24.5 63.5l-14 31q-50 14 -66 14q-4 0 -24.5 -24t-20.5 -29v-45q-4 -21 -4 -66 q0 -66 7 -128.5t7 -102.5q0 -77 10.5 -150.5t10.5 -83.5v-30l-211 -17l-86 -10l-105 6q5 80 5 86q0 3 -5.5 35t-5.5 35l17 153v46q-6 90 -6 110q0 3 1 24.5t1 35.5q0 17 -5.5 50t-5.5 52q0 21 7.5 91.5t7.5 117.5q0 36 0.5 61.5t1.5 34.5t1.5 15.5t0.5 9.5l-10 200v238 q0 2 -20.5 55t-20.5 66z" />
<glyph unicode="l" horiz-adv-x="1114" d="M74 94q0 50 35.5 213t35.5 209l-2 70v129q0 8 -19.5 108.5t-19.5 102.5t-7 113t-7 116q0 60 3 141t6 140t3 65l-2 15q-2 0 -3.5 4t-2.5 8v4q0 -1 23.5 -12.5t52.5 -23t39 -11.5l4 2l47 31h45l74 -17l16 -14q19 -60 19 -66q0 -23 -6.5 -56.5t-6.5 -53.5q1 0 9 -56.5 t16 -131.5t8 -113q0 -48 24.5 -189t24.5 -211q0 -72 -11.5 -172t-29.5 -133q10 5 84.5 11.5t140.5 17t66 26.5v5l187 24q139 -4 141 -4q12 0 26.5 -99.5t14.5 -148.5l-2 -123l-31 -4h-156q-49 0 -133.5 -8t-120.5 -8h-69q-7 0 -105 3t-106 3q-9 0 -53 8t-45 8l-197 -2 q-10 53 -10 80z" />
<glyph unicode="m" horiz-adv-x="1331" d="M76 14l12 60q-2 6 -2 20q0 23 8 83t8 97l-20 191v82q0 27 4.5 84t5.5 80l-6 145l2 139q-6 83 -6 97q0 120 18 233l-18 90l10 90l111 31q6 4 10 4q1 0 6.5 -19.5t11 -42t7.5 -26.5l38 -72l72 -174l43 -149q10 -13 28.5 -65.5t40.5 -123t32 -98.5q2 -14 21 -89.5t19 -119.5 l41 -45l68 -27q78 -4 80 -4v17q0 8 18 43.5t36 87.5t18 102v13q0 18 10 82.5t10 80.5q0 62 24.5 136t28.5 118q5 60 28.5 143t45 139t27.5 58q2 1 5.5 8t11 13t20.5 6h133q24 -8 34 -35q4 -12 10.5 -57.5t10.5 -85.5l4 -39q-2 -31 -2 -66q0 -15 12.5 -115t12.5 -133 q0 -42 -1.5 -95.5t-3.5 -91.5t-2 -42q0 -83 17 -180q24 -128 24 -246q0 -8 3.5 -36.5t3.5 -49.5q0 -43 -12.5 -92.5t-12.5 -54.5q0 -16 0.5 -32.5t1.5 -29.5t2 -23t1 -16l1 -6q0 -1 -20.5 -4.5t-49.5 -6.5t-49 -3q-14 0 -58.5 6t-45.5 6l-27 72q-4 20 -4 43q0 14 23.5 76.5 t27.5 89.5q3 20 6 98t3 98q0 39 -10.5 52.5t-32.5 13.5q-34 0 -54 -21.5t-49 -74.5q-35 -67 -35 -97q0 -7 -3 -16.5t-7.5 -19t-9 -17t-8.5 -13.5l-4 -7q-1 -3 -66.5 -9t-81.5 -6q-9 0 -33.5 7.5t-34.5 7.5l-67 -7q-47 53 -55 80q-1 3 -5 17.5t-6.5 22.5t-7.5 21t-11 23.5 t-13 18.5q-26 30 -43.5 59.5t-23 44t-16.5 24t-30 9.5q1 0 -1.5 -1.5t-7 -6t-9 -11.5t-8 -20.5t-3.5 -30.5q0 -12 -2 -55.5t-2 -101.5q0 -34 7 -71t15.5 -61t17 -45t9.5 -24v-8q0 -55 -7 -87t-27 -49.5t-46 -22.5t-73 -5q-9 0 -13 2z" />
<glyph unicode="n" horiz-adv-x="1484" d="M61 16q0 11 5 38l4 26q0 2 14 21t14 20q0 2 41.5 27.5t44.5 25.5q2 0 11.5 13t20.5 27.5t13 16.5t2 23q0 12 -1 41.5t-2.5 82.5t-2.5 111q-1 68 -6 106t-10 46.5t-11.5 16t-9.5 18.5q-7 26 -10 145q-1 38 -10.5 75t-9.5 54q0 98 -11.5 285.5t-11.5 247.5q0 19 7 23.5 t34 4.5h27q46 0 114 -5t68 -17v-2q56 -37 64 -51q4 -7 47 -44t47 -42q17 -25 26.5 -57t14.5 -42q26 -9 68 -41.5t42 -42.5l11 -12q19 -44 46.5 -79t48.5 -55t44 -58.5t37 -92.5q7 -28 37.5 -112t46.5 -107q11 -16 41.5 -26t51.5 -12.5t32 -2.5q15 0 32 108.5t17 158.5 q0 99 -11 163q-3 19 -30 74t-29 66q-2 13 -38 98t-36 92q0 6 -16.5 35.5t-32.5 55.5l-16 26l229 53q166 -8 170 -8q2 0 15.5 -6t28 -12t16.5 -7v-2q0 -2 6.5 -18t13 -40t6.5 -46q0 -3 -8.5 -26.5t-17.5 -67t-11 -93.5q-1 -31 -18 -163.5t-17 -309.5q0 -34 5.5 -58t5.5 -36 q0 -8 -1 -55t-1 -76q0 -36 9 -143t9 -164v-12q-6 -38 -6 -146q0 -34 -13.5 -42.5t-52.5 -8.5l-158 6h-1q-29 0 -56 53q-20 36 -53 80.5t-53.5 72.5t-20.5 38q0 1 5 6q-12 20 -15.5 26t-8 15t-10 21t-26.5 52.5t-53 100.5q-39 75 -56 97t-18 24q-33 65 -51 123 q-3 11 -39.5 59.5t-38.5 54.5q-3 9 -34 30.5t-36 21.5q-9 0 -57.5 -14t-54.5 -25q-51 -90 -51 -180q0 -4 1 -11t1 -10l-6 -94q0 -25 4 -112t4 -159q0 -19 -2 -51t-2 -43q0 -40 9 -100.5t9 -71.5q0 -2 -32.5 -8t-65.5 -11l-33 -5l-33 2q-33 2 -62.5 4.5t-65 6.5t-56.5 8.5 t-21 8.5z" />
<glyph unicode="o" horiz-adv-x="1095" d="M53 510l13 6q-3 24 -3 39q0 17 5.5 52.5t5.5 74.5q0 15 11 50t11 54q0 91 2 189q1 69 16 142t28.5 111.5t39.5 106.5q12 31 70 74t65 51q18 21 84.5 46t67.5 26q5 4 46 6t85 2.5t49 1.5q7 0 40.5 -5.5t64 -11.5t30.5 -7q78 -68 80 -86q1 -6 15 -40t31 -81t24 -84 q8 -40 36 -119t29 -107q1 -26 20 -117t19 -149q0 -35 -5 -84.5t-5 -58.5q0 -31 -24 -126t-52 -157q-41 -91 -61.5 -148.5t-28 -94.5t-10.5 -46q-209 -24 -229 -24q-13 0 -82 8.5t-84 11.5q-50 9 -87.5 34.5t-93.5 84.5q-24 26 -65.5 85t-77.5 91q-9 9 -39 85q-28 72 -28 85 q0 7 -3 13t-7 11zM223 567l80 -75q2 -3 9.5 -11.5t13 -15.5t6.5 -10l12 -25q0 -1 8 -16.5t15.5 -36.5t7.5 -35q0 -6 -1 -17t-1 -14q0 -9 33.5 -47.5t83 -76t83.5 -37.5q12 0 23.5 3.5t24.5 9t18 7.5q10 3 67.5 81.5t57.5 94.5h-2q5 7 21 68.5t16 81.5v24q8 80 8 129 q0 55 -39 283q-4 24 -19 66t-26 94q-4 20 -8 33.5t-7 19.5t-5.5 9.5t-4.5 4t-4 0.5t-3.5 1.5t-2.5 6.5q-8 30 -35 68q-1 0 -25.5 15.5t-55.5 31.5t-46 16q-3 0 -7.5 -5t-18 -13t-37.5 -14q-36 -9 -50 -24.5t-20.5 -48.5t-13.5 -48q-43 -98 -43 -168q0 -9 1 -38.5t1 -53.5 v-39l-2 2q-2 -10 -24 -62.5t-25 -70.5q-5 -21 -14 -44t-11 -34q-3 -19 -39 -70z" />
<glyph unicode="p" horiz-adv-x="1185" d="M76 387q0 61 8 225t8 271q0 39 -8 118t-8 93q2 38 4.5 67.5t7 56t7 41t9 42t9.5 40.5q-11 54 -11 72q0 4 2 11t2 16l-2 39q56 63 60 63q3 0 23 -5t50 -10t58 -5h31q27 0 72.5 -8.5t82.5 -8.5q131 0 220.5 8.5t133 16.5t62.5 8q25 0 33 -8q10 -10 40 -19t62 -25.5 t51 -47.5q5 -8 26.5 -33t25.5 -47q7 -43 19.5 -215.5t12.5 -210.5q0 -83 -8 -101q-2 -4 -5 -16t-7 -20t-19 -18.5t-41 -18.5q-150 -47 -317 -47q-30 0 -64.5 3t-39.5 3q-3 0 -16 -1t-21 -1q-15 0 -50 1t-51 1q-34 0 -114.5 -4t-83.5 -6q-19 -8 -41.5 -28.5t-22.5 -33.5 q0 -87 21.5 -213.5t21.5 -142.5q0 -52 7.5 -109.5t7.5 -75.5l-11 -71l-178 -2q-18 0 -22 2q-8 4 -9 33t-4 78t-14 87q-10 29 -10 156zM330 1214q2 -1 6 -36t10.5 -78t15.5 -60q30 -65 62 -65h22q113 0 199.5 -9.5t114.5 -9.5q1 0 13 14.5t24 33.5t12 28q0 283 -23 283 l-192 4l-170 -19q-82 -80 -94 -86z" />
<glyph unicode="q" horiz-adv-x="1093" d="M43 971q0 7 5 79t5 134q0 34 1 54.5t5.5 53.5t14 53.5t27.5 45t43.5 38.5t65 23.5t89.5 9.5q21 0 62.5 -1t58.5 -1q31 0 56.5 5t27.5 5q23 0 64.5 -16.5t81 -36.5t46.5 -22q22 -9 106.5 -84.5t139.5 -149.5q24 -32 46 -110.5t30 -98.5q12 -28 12 -94q0 -43 -6 -109.5 t-6 -74.5q0 -22 7 -167t7 -171q0 -17 -3 -37t-6 -35.5t-10 -37.5l-10.5 -33t-11.5 -33t-10 -27q-12 -34 -47 -57t-68.5 -32t-60.5 -21.5t-27 -28.5l64 -35h28q19 -26 55 -53.5t58.5 -49.5t22.5 -46q-35 -87 -78 -121l-90 12q-6 4 -24 15.5t-28 17t-25.5 11.5t-29.5 7l-74 43 l-61 51l-43 13l-27 127q-17 0 -46 -1t-38 -1q-4 0 -8.5 0.5t-7.5 1t-4 0.5t-20 5t-41 10.5t-45.5 13t-34.5 12.5q-40 20 -91 41q-8 3 -38 39t-31 47t-5.5 112.5t-4.5 116.5q0 3 3 88.5t3 122.5q0 78 -10.5 127.5t-20.5 76t-10 46.5v12l135 -10q15 10 31 10q28 0 28 -84 q0 -13 -1 -24t-1 -13q0 -3 2 -29t2 -42q0 -8 -2 -20t-2 -19q0 -71 47 -387q2 -12 6 -22.5t11 -19.5t13.5 -16t15.5 -13.5t14 -10t13 -8t9 -5.5q2 -2 13 -2q29 0 96 23l-41 119l20 73q5 11 16.5 18t21.5 9.5t25.5 5.5t20.5 4q20 -43 43 -180q35 21 95 45q104 43 104 68 q0 7 -2.5 38.5t-7 81.5t-6.5 84q-2 32 -6.5 97t-7.5 102t-7.5 84t-9.5 80q-18 122 -78.5 249.5t-107.5 127.5q-12 0 -73 -14t-116 -31q-17 -5 -26 -19.5t-15.5 -36t-13.5 -32.5q-19 -28 -25.5 -64t-15 -62t-33.5 -42q-2 -1 -15 -40.5t-34 -39.5q-13 0 -47 16.5t-45 16.5 q-6 0 -14 -3.5t-13 -3.5q-19 0 -24 0.5t-13.5 5.5t-10 16.5t-1.5 33.5z" />
<glyph unicode="r" horiz-adv-x="1234" d="M68 221q0 6 9.5 84.5t10.5 79.5t3 22.5t5.5 47.5t7.5 39q6 17 13.5 96.5t9.5 89.5q1 7 10 32t15 64t6 96q0 55 -10.5 127t-10.5 84q0 17 -3 58t-3 55q0 8 2 24.5t2 34.5q0 176 -35 277l181 -2q10 2 43 11.5t48 11.5t63.5 5t123.5 3q50 0 112.5 -15t96.5 -35q5 -3 85 -8.5 t85 -9.5q9 -8 35.5 -24.5t46.5 -31.5t47 -51.5t47 -87.5q27 -72 38.5 -104t21.5 -73t10 -72q0 -81 -25 -103q-4 -3 -30.5 -30.5t-48.5 -45t-50 -32.5q-56 -29 -117 -67.5t-91.5 -51t-73.5 -12.5l-111 8l-4 -4q0 -4 21 -22t54.5 -49.5t55.5 -61.5q18 -24 49 -78.5t35 -59.5 q101 -144 134 -202q29 -53 60 -123q14 -31 29 -56.5t22 -36.5t7 -18q-103 -10 -142 -10l-178 6q-36 33 -67 92t-39 92q-21 85 -75 187.5t-58 124.5l-35 110l-90 -47q-6 -2 -6 -22q0 -8 6 -86t6 -99v-147q0 -17 -5 -53t-5 -78v-47q-6 -23 -39 -23l-62 12l-63 4q-55 -4 -90 -4 q-31 0 -31 4q0 6 -29 91q-30 88 -30 110zM389 1194q0 -24 22.5 -83.5t24.5 -70.5q2 -9 4.5 -26t3.5 -23.5t4.5 -17.5t8.5 -15t13.5 -9.5t20.5 -7t29 -1.5q21 0 114.5 15.5t96.5 19.5l84 18q23 78 23 217q0 19 -27.5 43.5t-58.5 40.5l-310 -26q-41 -41 -49 -41l-3 -11z" />
<glyph unicode="s" horiz-adv-x="1325" d="M57 1104q0 21 31 76q35 65 53 116.5t27 65.5q40 62 137 165t148 124q75 26 198 26q58 0 107 -8q41 -7 73.5 -10.5t41.5 -4.5t20 -5.5t33 -18.5q43 -28 95.5 -49t87 -31t68.5 -33t54 -59q39 -74 46 -102q7 -30 7 -74q0 -46 -12 -82q-6 -17 -65.5 -28t-78.5 -11 q-2 0 -13 10.5t-21 21.5l-11 11q0 30 -59.5 101t-93.5 90q-76 45 -90 53q-13 7 -81.5 29t-86.5 22h-152q-113 -47 -117 -57q-2 -4 -57.5 -59t-56.5 -62q-1 -8 -15 -47.5t-14 -63.5q0 -49 5 -65t40 -82q22 -41 43 -75t44 -62t41.5 -49.5t44 -41.5t41.5 -32.5t45 -29 t43.5 -24.5t48.5 -24.5t49 -24.5q12 -6 61 -22t86 -47q23 -20 53.5 -38t48 -32.5t29.5 -38.5q5 -11 24 -46.5t27 -53.5t20.5 -47.5t17.5 -54.5t5 -48q0 -38 -30 -86t-97 -82q-25 -13 -55.5 -34t-49 -34t-22.5 -13h-2q1 -1 5 -4.5t6 -5.5t2 -3q0 -8 -64 -8q-22 0 -109 2 t-116 2q-58 0 -117 -3t-68 -3q-113 0 -161 28.5t-54 67.5q0 3 -8 28.5t-15 63.5t-7 80q0 58 41.5 123.5t66.5 65.5q29 0 58 -40t48 -88t37.5 -88t30.5 -40q44 0 83 10.5t63 26t42 31t27.5 26t10.5 10.5v-2q0 27 -45.5 112t-88.5 126q-14 14 -22 23q-4 5 -25 17 q-7 4 -11.5 6.5t-14 7.5t-19.5 11q-38 21 -76.5 48t-62.5 42t-49 21q-82 19 -82 28l6 1q6 1 6 12q0 18 -14 78q-7 29 -14.5 59t-9 35t-5 23t-4 27t-4.5 42q-3 33 -17 53.5t-14 28.5z" />
<glyph unicode="t" horiz-adv-x="1570" d="M25 1264q0 48 16.5 123t36.5 75h14q37 -6 47 -6q113 0 113 -4t80 -4q47 0 147 9t152 9q16 0 95.5 3t90.5 4q5 1 46.5 6.5t78.5 10.5t41 5q3 0 35 10.5t43 10.5q2 0 12 -1.5t19 -1.5q67 0 156 15.5t153 15.5q22 0 22 -6t28.5 -24t57.5 -48.5t29 -66.5q0 -17 -13.5 -53.5 t-27.5 -65.5t-16 -29q-146 0 -152 6q-5 5 -98 46.5t-103 42.5h-147q-49 -56 -53 -74q-2 -7 -24.5 -57t-22.5 -85q0 -8 1 -46t1 -74q0 -31 -4.5 -74t-4.5 -66q0 -78 17 -157t34.5 -140.5t18.5 -95.5q3 -116 10.5 -180t28.5 -129q5 -15 12.5 -36t9 -26t4 -15.5t3 -17.5 t0.5 -18q0 -17 -6.5 -24.5t-26.5 -7.5q-8 0 -29.5 1t-34.5 1q-25 0 -106.5 -10.5t-108.5 -10.5h-14q-8 0 -26 -7t-25 -7q-21 0 -21 49v59q0 42 -3 87.5t-3 50.5q0 42 9 86t18.5 135.5t9.5 249.5q0 29 -1 61t-1 43q0 58 24.5 161.5t24.5 106.5q1 12 2.5 24.5t2 23t1.5 21.5 t1.5 20t1 17t0.5 13.5t0.5 10t0.5 6.5v2q0 11 -26 20t-52 13l-26 5q-23 0 -84.5 -10t-67.5 -10q-8 0 -29.5 1t-33.5 1q-63 0 -80 -12q-14 -9 -44 -18.5t-59.5 -17t-33.5 -9.5q-31 -12 -57.5 -22t-39.5 -15.5t-12 -5.5q-14 1 -32 127z" />
<glyph unicode="u" horiz-adv-x="1261" d="M72 798v40v34q0 76 14 212t28.5 238.5t14.5 96.5q0 -1 -2 24.5t-4 50.5l-2 26h74l24 -31v-57q9 -2 60.5 -4t94 -6.5t42.5 -12.5q0 -89 -15.5 -239.5t-15.5 -165.5q0 -72 3 -132t10 -109t11.5 -75.5t14.5 -68.5t12 -52q51 -178 51 -235v-14.5t-0.5 -10.5t-0.5 -7.5v-5 t-0.5 -2.5t-0.5 -2v-1q0 -17 17.5 -22t56.5 -5h33q10 0 67 -5t82 -5q47 0 98.5 69.5t84 163t32.5 164.5q0 21 -2 40.5t-8.5 47.5t-11 44.5t-17 60.5t-18.5 67q-23 80 -64.5 275.5t-41.5 214.5l2 2l2 -6q4 -2 16 -2q37 0 143 36.5t148 36.5q5 0 14 -8t21 -25t22.5 -39.5 t17.5 -56t7 -69.5q0 -18 -5 -70t-5 -84q0 -4 5 -52.5t5 -111.5q0 -15 -2 -49.5t-2 -75.5q0 -43 1 -101.5t1 -72.5q0 -46 -6 -145q-1 -15 -2.5 -80t-3.5 -132.5t-6 -138t-11 -115t-16 -44.5l-6 1q-6 1 -16.5 2t-22.5 1q-44 0 -153.5 -7t-235.5 -7q-1 0 -50 5t-84 5 q-9 0 -27 -2t-26 -2q-62 0 -153.5 36.5t-118.5 96.5q-2 5 -17 27.5t-33.5 68.5t-43.5 131q-14 48 -26 91.5t-20 83t-14 68t-9.5 63.5t-6 51.5t-3.5 49t-1 39.5z" />
<glyph unicode="v" horiz-adv-x="1433" d="M41 1540q31 -3 63 -11.5t72.5 -23t63.5 -20.5q10 -3 29.5 -6.5t31 -6.5t29.5 -15t35 -32q11 -14 35.5 -69t27.5 -88q2 -23 15 -70.5t32 -107t23 -74.5q13 -45 48 -150t46 -161q2 -9 12 -43t17.5 -66.5t7.5 -48.5q0 -3 -2 -7t-2 -10q0 -16 13 -23t50 -7q5 0 16.5 1t16.5 1 t15.5 -1t15.5 -1q31 0 49 47.5t24 103.5q1 8 32.5 68.5t39.5 85.5q6 21 10.5 39.5t7 32t3.5 18.5q5 22 17.5 52.5t37 89.5t47.5 120q8 22 12.5 33.5t7.5 24t3.5 18.5t3 25.5t4.5 35.5q12 88 24.5 131t24 56t39.5 30l80 11q57 8 73 8q14 0 59.5 -25.5t45.5 -36.5 q0 -63 -6 -141q-3 -35 -10.5 -50t-22.5 -28.5t-25 -31.5q-23 -42 -62.5 -146t-47.5 -135q-16 -55 -75.5 -186t-96.5 -254q-3 -11 -20 -54t-30.5 -90t-17.5 -90q-2 -21 -6.5 -32t-13.5 -28t-17 -40q-15 -44 -29.5 -75t-23 -47.5t-22 -26.5t-17.5 -12t-18.5 -3.5t-16.5 -1.5 h-57q-22 2 -221 8q-1 1 -1 5.5t-3 11t-10 19t-24 37.5t-42 60q-43 58 -79 172.5t-75.5 245.5t-87.5 213q-31 50 -31 143v25q0 5 -59 188q-44 129 -84 349z" />
<glyph unicode="w" horiz-adv-x="1697" d="M47 1546l133 31q66 -4 68 -4q1 0 63.5 -16.5t63.5 -16.5t11 -6.5t21.5 -17t14.5 -17.5q3 -8 21 -27.5t33.5 -41.5t15.5 -41q0 -5 -2.5 -20t-2.5 -28t24 -88t24 -102q0 -3 -1.5 -12t-1.5 -15q0 -14 16.5 -98.5t16.5 -112.5q0 -7 -1 -29t-1 -46q0 -32 2 -70t2 -68 q0 -34 10.5 -82t10.5 -61q0 -24 8 -37.5t37 -42.5q13 -16 20 -16q2 0 2 6q0 1 -1 5.5t-1 6.5q0 6 4 10q13 13 21 40t13.5 70t6.5 48q6 33 39 74t49 41q18 0 83.5 -13t103.5 -24q23 -7 32.5 -21t8.5 -24v-10q2 0 4 -27t5.5 -68.5t6.5 -64.5q4 -25 14.5 -37.5t22 -17 t12.5 -6.5q5 -5 17 -5q39 0 63 8t32 16.5t21.5 29.5t22.5 32q5 6 10 15t15 38t17 66.5t13 105t6 148.5q0 23 -2 23q-1 0 -4.5 -3t-5.5 -3q-7 0 -11.5 39.5t-4.5 62.5q0 106 2 178.5t8 157.5t20.5 129.5t36.5 44.5q11 0 29 -5t20 -5q56 0 140 -20t108 -23v-58l4 -102v-105 q0 -50 -21.5 -111.5t-21.5 -62.5v-34q0 -35 -3.5 -65.5t-13 -88.5t-13.5 -88q-8 -56 -38 -141.5t-32 -176.5q-1 -38 -4.5 -58.5t-11.5 -41t-11 -31.5q-4 -13 -45 -131q-13 -37 -33.5 -62t-31.5 -46q-3 -2 -16 -23.5t-30.5 -41t-33.5 -19.5q-6 0 -56 22.5t-63 22.5 q-4 0 -7.5 1.5t-7.5 6t-7 9t-8 14t-9 17t-11.5 22t-12.5 24.5q-8 15 -49.5 64.5t-51.5 68.5q-4 8 -19 34.5t-23.5 41.5t-21 35t-22 29.5t-16.5 9.5q-19 0 -31.5 -24.5t-25 -64t-23.5 -57.5q-15 -24 -27.5 -60.5t-22.5 -64t-28.5 -56t-55.5 -49.5t-93 -32q-30 -6 -35 -6 q-2 0 -2 2l3 4q3 4 3 8q0 13 -14 24t-35.5 22.5t-30.5 19.5q-12 10 -21.5 47t-25.5 68q-22 42 -31 70t-14.5 65.5t-11.5 62.5q-7 28 -29 87t-29 89q-48 191 -63 353q-3 27 -10 39t-20.5 19t-16.5 9q-18 16 -90 141q-25 43 -33 181z" />
<glyph unicode="x" horiz-adv-x="1544" d="M57 1516q0 8 38.5 17t54.5 9q94 0 163 -21.5t117 -21.5q3 0 6.5 3t5.5 3q18 0 101 -221q38 -97 88.5 -178.5t90.5 -132.5t46 -64q7 -14 12.5 -28.5t7.5 -20t5.5 -11t8 -6.5t13.5 -1q31 0 67 41.5t40 62.5q2 11 15.5 35t20.5 45q6 18 12 41t9.5 38.5t5.5 18.5q1 2 1.5 2 t1 0.5t1.5 3.5t2 9.5t3 20t5 34.5q3 23 6 40t4 23l2 12t1 10.5v14.5q0 13 -2 26.5t-2 18.5q0 15 28.5 68t28.5 61q0 5 -2 5q1 0 5.5 12.5t11 27.5t10.5 19t34.5 6.5t59.5 3.5h28q28 -7 76 -22t84.5 -23t69.5 -8q2 0 22.5 -26t20.5 -33q0 -5 -52 -123.5t-53 -126.5 q-1 -11 -27 -55.5t-38 -57.5q-80 -92 -103 -119q-24 -30 -93.5 -93t-124 -113.5t-54.5 -61.5q0 -85 193 -342q17 -22 48 -44t46 -42q27 -37 46.5 -69t27 -48.5t19 -45.5t17.5 -42q4 -12 4 -18q0 -20 -34.5 -36t-83.5 -16q-27 0 -46 5.5t-33 14t-16 9.5q-47 17 -88 17h-6 q-2 0 -7 -1.5t-7 -1.5q-3 0 -6.5 8t-13.5 27t-25 39q-14 18 -42.5 52t-46.5 56.5t-18 28.5v35q0 60 -23.5 137t-23.5 82q-10 -14 -54.5 -41.5t-51.5 -27.5t-12 -5t-8 -15t-5 -20l-5 -25l-5 -25q-3 -14 -27.5 -40t-36.5 -44q-21 -33 -43.5 -70.5t-34 -57.5t-26.5 -42t-26 -32 t-28.5 -19t-38 -12t-50.5 -3q-11 0 -46 2t-47 2l-78 -6h-1q-1 0 -23 2.5t-43 5t-20 2.5q0 13 56 105t93 133q104 116 172 270q25 57 51 105t41.5 73.5t18.5 34.5v80l-43 107q-66 32 -156 208q-67 49 -137 134l-33 57q-40 37 -69 86.5t-38.5 76.5t-9.5 32z" />
<glyph unicode="y" horiz-adv-x="1521" d="M29 1458l34 8q23 0 64 2t73 4l31 1h66q5 2 23 -26t38 -71t27 -76q4 -17 31.5 -66.5t36.5 -90.5q39 -177 110 -328q19 -42 19 -74v-20q0 -9 7.5 -11.5t37.5 -2.5q26 0 64 1t50 1q13 0 72 -7.5t88 -7.5q14 0 31 16t35.5 47.5t33.5 91.5t21 136q2 29 20.5 78t22.5 67 q5 23 7 86.5t7 77.5q16 41 20.5 84.5t4.5 63.5t16 33.5t56 13.5q3 0 13.5 -1t20.5 -1q87 0 165.5 6t97.5 6q14 -33 14 -76q0 -20 -2 -30q-4 -23 -43.5 -136t-40.5 -143q-2 -59 -94 -293q-16 -41 -56 -97.5t-45 -72.5q-3 -11 -10.5 -23t-20.5 -29.5t-24.5 -31t-34 -40 t-37.5 -44.5q-29 -35 -62.5 -59.5t-52 -36t-20.5 -22.5q-2 -6 -16 -43.5t-25.5 -75t-11.5 -56.5q0 -6 4 -22q12 -47 12 -137q0 -4 -17 -10t-20 -17q-3 -9 -28 -12.5t-59.5 -4.5t-45.5 -3q-7 -1 -17 -4t-13 -3q-19 0 -32 28.5t-18 72.5t-6.5 73t-1.5 54q0 53 6.5 127t6.5 84 q0 84 -56 84q-45 0 -79.5 5t-51 10.5t-52.5 19.5t-58 22q-8 3 -22 7t-21 6.5t-17.5 7t-15.5 9.5t-10.5 12.5t-8 18t-2.5 23.5q0 7 2 55.5t2 69.5q0 34 -2 68.5t-2 37.5q0 66 -21 141.5t-42 124.5t-21 52q0 2 -10 18t-27.5 44.5t-29.5 52.5q-4 9 -21.5 30.5t-33 39 t-15.5 18.5z" />
<glyph unicode="z" horiz-adv-x="1474" d="M70 96q0 9 4 33.5t4 28.5t32 32.5t64 55.5l33 26v-4q5 0 32 31.5t66 86t72 108.5q19 32 166 172.5t180 189.5q14 20 40.5 33.5t61 23.5t41.5 13q35 15 114 56t97 58q19 18 68 46.5t82 54.5t33 49q0 7 -2 15t-4 12l-1 4l-10 14q-168 12 -168 16h-4q-21 0 -94 -7t-143 -7 q-16 0 -110 3t-116 3t-113 -1t-102 -1q-16 0 -149 40l-47 13q-59 19 -71.5 51.5t-12.5 122.5v15q0 40 12 53.5t37 13.5q7 0 27 -2t32 -2q22 0 43 6h8q10 0 84 -5t115 -5q161 0 326 12.5t190 12.5q56 0 356 -21q23 -2 23 -33v-24q0 -6 8 -69t8 -101q0 -26 12.5 -107.5 t12.5 -132.5q0 -43 -8 -69.5t-18 -34t-20 -12t-11 -7.5q-3 -6 -50.5 -47.5t-56.5 -52.5q-38 -42 -51.5 -56.5t-44 -42t-56 -40.5t-67 -31t-96.5 -35q-37 -11 -111 -74t-74 -77q0 -11 -40 -39.5t-68 -44.5q-10 -7 -27.5 -22.5t-44.5 -45t-46 -70.5t-19 -81q0 -15 10 -15 q14 0 52 32l38 32q25 11 131.5 27t171.5 16q13 0 35.5 -1t30.5 -1q17 0 35.5 2t27.5 2h45q10 1 80.5 33t77.5 32q6 0 18.5 -8.5t21.5 -17.5l9 -8l8 -23q9 -23 19 -58.5t10 -60.5q0 -45 -9.5 -76t-19 -42.5t-30.5 -28.5t-27 -23t-105 -6q-15 0 -49 4t-61 8l-27 4h-162 q-111 0 -332 -8t-294 -8q-82 0 -107.5 19.5t-25.5 72.5z" />
<glyph unicode="{" horiz-adv-x="763" d="M18 498v131q0 43 7 43l4 -2q68 14 123 14q24 0 45.5 29t30.5 57l10 29v227q0 26 -11.5 108t-11.5 115q0 28 9 101.5t9 105.5v17q0 30 23 60t61.5 62.5t42.5 36.5q8 8 35 8q31 0 107 -12t90 -12q8 0 10 2q2 0 2 -31l-6 -207q-72 -22 -82 -26q-11 -5 -50 -39.5t-54 -61.5 q-13 -24 -21.5 -87.5t-11.5 -71.5q-4 -12 -4 -41q0 -93 17.5 -341t17.5 -274q0 -43 -17.5 -181.5t-17.5 -203.5q0 -55 9.5 -93.5t18.5 -49.5l9 -12q9 0 39.5 10t33.5 10l191 -22q27 -146 33 -164q0 -2 1 -7t1 -10q0 -16 -3.5 -46.5t-6.5 -52.5l-3 -22q-104 -26 -141 -26 q-24 0 -39.5 2t-50.5 17t-82 44l-66 41v2q-2 -3 -13 11t-26 40.5t-30 60t-25 76t-10 81.5v84q0 37 -1 108t-1 101q0 66 6 145.5t6 91.5q0 43 -30 43q-52 0 -108 -5.5t-69 -12.5z" />
<glyph unicode="}" horiz-adv-x="763" d="M53 -285q0 13 2 17l33 164q181 22 191 22q3 0 32.5 -10t38.5 -10q3 0 10.5 11.5t17 50t9.5 93.5q0 65 -16.5 203.5t-16.5 181.5q0 26 17.5 274t17.5 341q0 29 -4 41q-3 8 -11.5 71.5t-21.5 87.5q-15 27 -54 61.5t-50 39.5l-82 26q-8 141 -8 207q0 31 4 31q0 -2 10 -2 q14 0 89 12t106 12q28 0 36 -8q4 -4 42.5 -36.5t61.5 -62.5t23 -60v-17q0 -32 9.5 -105.5t9.5 -101.5q0 -33 -11.5 -115t-11.5 -108v-227q1 -5 3.5 -12.5t11 -27.5t17.5 -35t24 -27.5t30 -12.5q24 0 55 -3.5t49 -6.5l19 -4q2 2 4 2q6 0 6 -43v-131q-13 7 -68.5 12.5 t-107.5 5.5q-32 0 -32 -43q0 -12 6 -91.5t6 -145.5q0 -30 -1 -101t-1 -108q0 -14 1 -41.5t1 -42.5q0 -39 -10.5 -81.5t-25.5 -76t-30.5 -60t-26.5 -40.5t-12 -11v-2q-8 -4 -65 -41q-47 -29 -82 -44t-50.5 -17t-39.5 -2q-16 0 -51.5 6.5t-62.5 13.5l-27 6q-13 84 -13 121z " />
<glyph unicode="&#xa8;" horiz-adv-x="976" d="M68 1862q2 0 4 2h-2zM72 1864l139 63l135 -41q1 -18 6.5 -68.5t9 -98.5t3.5 -83q0 -4 -18 -7.5t-40.5 -6.5t-27.5 -4q-4 -2 -35 -2h-27.5h-30h-27.5t-26 1t-20 3t-14.5 5.5t-4.5 8.5v4q-3 -4 -5 17q-2 16 -3 71q-4 131 -14 138zM618 1880l7 47l163 15q121 -66 123 -132 q1 -55 7 -69q0 -11 -55.5 -50.5t-74.5 -39.5q-10 0 -52 -8.5t-78 -16.5l-37 -8q8 45 8 82q0 34 -2.5 98.5t-5.5 71.5q-3 3 -3 10z" />
<glyph unicode="&#xa9;" horiz-adv-x="1726" d="M51 788q0 33 15 105t20 104q6 49 20 86.5t39.5 80.5t26.5 44q12 24 84 77.5t80 68.5q9 18 40 26.5t58 8.5q4 0 8 -1l4 -2l-16 32q-16 32 -16 42q64 113 78 113t110 -35q25 19 44 37.5t25.5 26.5t17.5 13t28 5q6 0 14.5 -1t9.5 -1q15 0 126.5 -2.5t247.5 -7.5t173 -9 q92 -11 201 -112q19 -18 37 -47.5t29 -54t36.5 -87t42.5 -100.5q29 -64 29 -125q0 -37 -17 -102.5t-20 -108.5q-3 -48 -14 -129t-13 -182q-2 -82 -7.5 -113t-26.5 -66t-35 -71q-16 -42 -27.5 -66t-17 -33t-21 -30t-28.5 -39q-21 -32 -36 -42t-31.5 -15t-33.5 -21 q-20 -18 -52 -23.5t-64.5 -5.5t-42.5 -3q-21 -7 -46 -7q-6 0 -19 1t-21 1q-12 0 -69 -3t-101 -3q-85 0 -184.5 8t-143.5 17q-35 7 -58 19.5t-65 21.5q-37 8 -62.5 29.5t-58.5 67t-53 67.5q-31 33 -50.5 67.5t-40.5 88t-32 75.5q-7 15 -31 63.5t-34.5 71.5t-26.5 61 t-22.5 66.5t-6.5 52.5zM315 825q0 -137 2 -180.5t11 -124.5q5 -50 42.5 -113.5t69.5 -101.5t37 -41q15 -11 334 -78q143 -30 154 -30q1 0 6 2t22 2q9 0 30 -1t30 -1q121 0 213 51q37 20 55 42t30.5 53t18.5 42q4 7 11.5 20t10.5 18t9.5 14.5t11.5 16t13 16t18 20.5 q23 26 39 74.5t16 97.5q0 33 -7.5 122.5t-10.5 202.5q-1 47 -4 69t-6.5 24.5t-9 6.5t-9.5 15q-6 17 -20.5 87t-24.5 95q-12 31 -59 63.5t-91 49.5q-34 13 -73.5 17.5t-151.5 4.5q-53 0 -127 -22q-31 -10 -55 -10q-4 0 -14 1t-15 1q-33 0 -84 -15q-20 -17 -83.5 -56 t-116.5 -56q-34 -12 -70.5 -41.5t-71.5 -77t-57.5 -121t-22.5 -158.5zM479 692q0 24 8 78q1 7 6 60.5t11 93.5t14 65q11 33 48 79.5t38 47.5q17 29 201 29q50 0 124 -12.5t109 -24.5q9 -3 40 -15t53 -19t34 -7q5 0 9 3l4 3q9 0 36.5 -23t50.5 -44.5t23 -20.5q0 4 -41 -82 q-91 -29 -114 -29q-4 0 -21.5 5.5t-42 18.5t-35.5 28q-34 43 -102 43q-42 0 -97 -7t-75 -18q-27 -17 -61.5 -100.5t-34.5 -128.5q0 -27 11.5 -50.5t39.5 -56t30 -35.5q17 -25 95 -52t133 -27q20 0 33 7.5t27.5 22.5t27.5 23q51 30 59 78q2 10 19 18t33 11l16 3 q-1 0 14.5 -23.5t32 -50t16.5 -32.5q0 -20 -40 -80t-50 -70q-92 -92 -215 -92q-24 0 -42 2.5t-26 4.5l-8 3q-4 0 -24.5 7t-44 21.5t-27.5 31.5q-4 16 -37.5 26.5t-75.5 15.5t-47 7q-10 4 -25 30t-25 50l-9 24q-5 -3 -23 18t-35.5 61t-17.5 81z" />
<glyph unicode="&#xad;" horiz-adv-x="1101" d="M68 496q0 8 19 61t19 92q0 20 -6 41h2q7 0 30 15.5t42 30.5l19 16q71 14 77 14q2 0 171 -2t175 -2l213 4l179 -23l26 -77l-22 -160q-136 -8 -146 -8q-3 0 -55 2t-68 2l-268 -15h-330q-42 -10 -55 -10q-22 0 -22 19z" />
<glyph unicode="&#xae;" horiz-adv-x="1726" d="M51 788q0 33 15 105t20 104q6 49 20 86.5t39.5 80.5t26.5 44q12 24 84 77.5t80 68.5q9 18 40 26.5t58 8.5q4 0 8 -1l4 -2l-16 32q-16 32 -16 42q64 113 78 113t110 -35q25 19 44 37.5t25.5 26.5t17.5 13t28 5q6 0 14.5 -1t9.5 -1q15 0 126.5 -2.5t247.5 -7.5t173 -9 q92 -11 201 -112q19 -18 37 -47.5t29 -54t36.5 -87t42.5 -100.5q29 -64 29 -125q0 -37 -17 -102.5t-20 -108.5q-3 -48 -14 -129t-13 -182q-2 -82 -7.5 -113t-26.5 -66t-35 -71q-16 -42 -27.5 -66t-17 -33t-21 -30t-28.5 -39q-21 -32 -36 -42t-31.5 -15t-33.5 -21 q-20 -18 -52 -23.5t-64.5 -5.5t-42.5 -3q-21 -7 -46 -7q-6 0 -19 1t-21 1q-12 0 -69 -3t-101 -3q-85 0 -184.5 8t-143.5 17q-35 7 -58 19.5t-65 21.5q-37 8 -62.5 29.5t-58.5 67t-53 67.5q-31 33 -50.5 67.5t-40.5 88t-32 75.5q-7 15 -31 63.5t-34.5 71.5t-26.5 61 t-22.5 66.5t-6.5 52.5zM315 825q0 -137 2 -180.5t11 -124.5q5 -50 42.5 -113.5t69.5 -101.5t37 -41q15 -11 334 -78q143 -30 154 -30q1 0 6 2t22 2q9 0 30 -1t30 -1q121 0 213 51q37 20 55 42t30.5 53t18.5 42q4 7 11.5 20t10.5 18t9.5 14.5t11.5 16t13 16t18 20.5 q23 26 39 74.5t16 97.5q0 33 -7.5 122.5t-10.5 202.5q-1 47 -4 69t-6.5 24.5t-9 6.5t-9.5 15q-6 17 -20.5 87t-24.5 95q-12 31 -59 63.5t-91 49.5q-34 13 -73.5 17.5t-151.5 4.5q-53 0 -127 -22q-31 -10 -55 -10q-4 0 -14 1t-15 1q-33 0 -84 -15q-20 -17 -83.5 -56 t-116.5 -56q-34 -12 -70.5 -41.5t-71.5 -77t-57.5 -121t-22.5 -158.5zM616 389q0 6 6 55t7 50q0 21 8 81.5t18 104.5q1 5 6.5 22t9 41t3.5 60q0 63 -8.5 123t-8.5 82q0 6 1 17t1 22q0 116 -24 176h117l28 7t30 6t40.5 3t77.5 2q31 0 71.5 -10t63.5 -23q2 -2 51.5 -5.5 t52.5 -6.5q4 -2 24.5 -13.5t31.5 -19.5t28 -31.5t29 -56.5q45 -115 45 -162q0 -49 -14 -63q-185 -152 -262 -152l-72 4q-2 0 -2 -2t13.5 -14t34.5 -32.5t34 -39.5q36 -42 125.5 -190.5t89.5 -171.5q-65 -6 -90 -6l-113 4q-23 22 -42 59.5t-23 57.5q-15 53 -50.5 117.5 t-38.5 78.5l-20 72l-57 -31q-4 -2 -4 -14q0 -4 4 -54t4 -61v-96q0 -11 -3 -33t-3 -49v-33q-4 -12 -27 -12l-37 6l-41 4q-34 -4 -57 -4q-19 0 -19 4q1 2 -9 28.5t-20 57t-10 41.5zM819 1008q0 -16 15.5 -53.5t17.5 -45.5q1 -4 2.5 -15t2 -14.5t3 -11t5.5 -10t8.5 -6.5t13 -5 t18.5 -1q15 0 72.5 9.5t58.5 14.5l56 11q12 48 12 135q0 13 -17 29t-36 26l-197 -16q-25 -27 -33 -27q-2 -10 -2 -20z" />
<glyph unicode="&#xb4;" horiz-adv-x="722" d="M12 1614q78 79 82 108q2 16 58.5 88t60.5 82q5 12 62.5 71.5t115 116t58.5 58.5l36 78l152 -64l45 -118l-86 -107q-4 7 -52 -85q-47 -91 -55 -128l-26 -96q2 -4 2 -6q0 -8 -21 -8q-27 0 -100 15t-90 15q-28 0 -121 -9.5t-121 -10.5z" />
<glyph unicode="&#xb8;" horiz-adv-x="636" d="M61 41q93 76 99 86q6 0 6 -213q0 -4 99.5 -9t119.5 -5q1 0 21 4.5t48 9t50 4.5q15 0 27 -6t20.5 -19.5t15 -27.5t12 -39.5t9.5 -44.5t10 -53t10 -56q6 -30 6 -53q0 -17 -5.5 -29.5t-22 -20.5t-32.5 -12.5t-51 -6.5t-64 -2.5t-83 -0.5q-163 0 -178 15q-84 84 -84 106 q0 5 21 15t56 19t67 11q27 2 62 28.5t57 52.5t22 32q-5 0 -143 -15.5t-140 -15.5q-3 0 -11 6t-16 18t-8 25v197z" />
<glyph unicode="&#xbf;" horiz-adv-x="1705" d="M238 543q0 42 17.5 72.5t46 62.5t42.5 61q13 27 29 41t31.5 19.5t43 23.5t56.5 47q49 51 49 64q0 2 -1 9.5t-1 14.5q0 25 22.5 96t42 128t15.5 57q4 2 17 12.5t24 15t35 11t64.5 9.5t98.5 3q33 0 60 -3.5t41.5 -8t24.5 -9t13 -7.5l3 -2q0 -25 -21 -121q-3 -15 -8 -39 q-12 -62 -23 -75q-9 -12 -54 -29q-60 -23 -111 -48q-114 -56 -239.5 -194.5t-125.5 -223.5q0 -38 12.5 -81.5t30 -86.5t21.5 -61q39 -145 309 -145q104 0 393 30q61 7 95.5 15.5t45 18t11.5 18.5t2 21t10 20q24 22 24 110q0 16 -1 38.5t-1 25.5v4q1 0 6 13.5t17 27.5t29 14 q36 0 41 -55q2 -18 16 -69.5t14 -82.5q0 -24 -13.5 -65.5t-32 -86t-21.5 -53.5q-5 -17 -25.5 -44.5t-52.5 -66t-37 -44.5q-13 -17 -77 -44t-159 -62t-118 -44q-27 -10 -64 -10q-128 0 -407 92q-43 14 -74.5 41.5t-45 51.5t-26.5 53t-18 36q-19 27 -42 105t-26 133 q-2 31 -15 112t-13 134zM702 1528q0 56 11 90q4 14 36 25.5t73.5 21.5t54.5 16q26 13 53 13q38 0 52.5 -15.5t14.5 -66.5v-45q0 -13 2 -13t2 -2q0 -9 -14 -69t-14 -62q0 -3 -13.5 -6t-27.5 -5l-14 -1q-3 1 -7.5 3t-19.5 8t-29 12t-33.5 14.5t-36.5 16.5t-34 17.5t-29 17.5 t-19.5 16t-7.5 14z" />
<glyph unicode="&#xc0;" horiz-adv-x="1304" d="M39 0l2 88l51 150q0 1 19 39.5t37 77.5t18 46q0 1 -1 3.5t-1 3.5q1 0 12.5 27t29.5 75t34 94q15 42 20.5 65.5t8 53t7.5 55.5q7 42 27.5 94t32.5 97q13 47 24 98q3 17 18 124.5t35 201t44 133.5q8 14 49 14q43 0 66.5 -5.5t31 -10t26.5 -29t32 -37.5q36 -40 63 -92.5 t41 -71.5q10 -15 36.5 -84.5t37.5 -109.5q7 -27 34 -81.5t44 -96.5q37 -93 55 -168q5 -23 14.5 -45t22 -48t18.5 -40q121 -276 191 -400q55 -99 55 -219q0 -10 -12 -10q-63 0 -103 2t-72 9.5t-49 17t-30 30t-19 42.5t-12 61q-5 23 -33 80t-33 71h-176q-13 4 -29.5 7.5l-33 7 t-33 6t-30.5 5t-25 4t-17 2.5l-6 1q-126 0 -153 -2l-21 -74q-6 -142 -14 -156q-6 -11 -38.5 -53.5t-35.5 -42.5zM127 2038l45 119l152 63q30 -70 36 -78q1 -2 58.5 -58.5t115 -116t62.5 -71.5q4 -10 60.5 -82t58.5 -88q2 -13 22.5 -40t40.5 -48l19 -20q-28 1 -121 10.5 t-121 9.5q-17 0 -90 -15t-100 -15q-21 0 -21 8l2 6q-15 41 -27 96q-12 53 -79 172q-25 45 -27 41q-4 -2 -25.5 25t-41.5 54zM453 481q3 -1 24.5 -6.5t43 -10.5t28.5 -5l117 24l94 95q36 -7 67 -13q-13 25 -48.5 124.5t-59.5 148.5q-5 9 -32.5 21.5t-45.5 12.5 q-17 0 -36 -15.5t-23 -25.5q-6 -14 -30 -55t-39 -81t-15 -85q0 -19 -45 -129z" />
<glyph unicode="&#xc1;" horiz-adv-x="1304" d="M39 0l2 88l51 150q0 1 19 39.5t37 77.5t18 46q0 1 -1 3.5t-1 3.5q1 0 12.5 27t29.5 75t34 94q15 42 20.5 65.5t8 53t7.5 55.5q7 42 27.5 94t32.5 97q13 47 24 98q3 17 18 124.5t35 201t44 133.5q8 14 49 14q43 0 66.5 -5.5t31 -10t26.5 -29t32 -37.5q36 -40 63 -92.5 t41 -71.5q10 -15 36.5 -84.5t37.5 -109.5q7 -27 34 -81.5t44 -96.5q37 -93 55 -168q5 -23 14.5 -45t22 -48t18.5 -40q121 -276 191 -400q55 -99 55 -219q0 -10 -12 -10q-63 0 -103 2t-72 9.5t-49 17t-30 30t-19 42.5t-12 61q-5 23 -33 80t-33 71h-176q-13 4 -29.5 7.5l-33 7 t-33 6t-30.5 5t-25 4t-17 2.5l-6 1q-126 0 -153 -2l-21 -74q-6 -142 -14 -156q-6 -11 -38.5 -53.5t-35.5 -42.5zM317 1608q78 79 82 108q2 16 58.5 88t60.5 82q5 12 62.5 71.5t115 116t58.5 58.5l37 78l151 -64l45 -118l-86 -107q-4 7 -52 -86q-46 -90 -54 -127 q-5 -24 -12 -48t-11 -36l-4 -12q2 -4 2 -6q0 -9 -20 -9q-27 0 -100.5 15.5t-90.5 15.5q-28 0 -121 -9.5t-121 -10.5zM453 481q3 -1 24.5 -6.5t43 -10.5t28.5 -5l117 24l94 95q36 -7 67 -13q-13 25 -48.5 124.5t-59.5 148.5q-5 9 -32.5 21.5t-45.5 12.5q-17 0 -36 -15.5 t-23 -25.5q-6 -14 -30 -55t-39 -81t-15 -85q0 -19 -45 -129z" />
<glyph unicode="&#xc2;" horiz-adv-x="1304" d="M2 1573v22l170 168q44 44 100.5 116.5t91.5 123t35 53.5q0 5 14 18.5t28 23.5l14 11h96l108 11l27 14l74 -6q3 -23 83.5 -117.5t106.5 -142.5q5 -8 41.5 -71.5t55.5 -100.5q15 -29 49 -66t60 -61.5t26 -28.5q0 -11 -44 -16.5t-65 -5.5h-246l-41 227l-81 82l-27 51l-74 8 l-82 -8q-4 0 -11 -1.5t-25 -6.5t-32.5 -12.5t-27.5 -21.5t-16 -32q-4 -28 -19 -53t-33 -45.5t-22 -28.5q-6 -12 -24.5 -35t-33.5 -40l-16 -17l-31 -26zM39 0l2 88l51 150q0 1 19 39.5t37 77.5t18 46q0 1 -1 3.5t-1 3.5q1 0 12.5 27t29.5 75t34 94q15 42 20.5 65.5t8 53 t7.5 55.5q7 42 27.5 94t32.5 97q13 47 24 98q3 17 18 124.5t35 201t44 133.5q8 14 49 14q43 0 66.5 -5.5t31 -10t26.5 -29t32 -37.5q36 -40 63 -92.5t41 -71.5q10 -15 36.5 -84.5t37.5 -109.5q7 -27 34 -81.5t44 -96.5q37 -93 55 -168q5 -23 14.5 -45t22 -48t18.5 -40 q121 -276 191 -400q55 -99 55 -219q0 -10 -12 -10q-63 0 -103 2t-72 9.5t-49 17t-30 30t-19 42.5t-12 61q-5 23 -33 80t-33 71h-176q-13 4 -29.5 7.5l-33 7t-33 6t-30.5 5t-25 4t-17 2.5l-6 1q-126 0 -153 -2l-21 -74q-6 -142 -14 -156q-6 -11 -38.5 -53.5t-35.5 -42.5z M453 481q3 -1 24.5 -6.5t43 -10.5t28.5 -5l117 24l94 95q36 -7 67 -13q-13 25 -48.5 124.5t-59.5 148.5q-5 9 -32.5 21.5t-45.5 12.5q-17 0 -36 -15.5t-23 -25.5q-6 -14 -30 -55t-39 -81t-15 -85q0 -19 -45 -129z" />
<glyph unicode="&#xc3;" horiz-adv-x="1304" d="M-102 1526q0 141 4 188q1 10 7.5 23t17 26t22.5 26.5t24.5 26l22 22l16.5 16.5l8 6q3 3 114 62.5t114 59.5q1 0 33 -2.5t68.5 -5t49.5 -2.5q16 0 80.5 -22.5t69.5 -22.5q9 0 99.5 -40.5t105.5 -49.5q16 -9 64.5 -47t91.5 -64.5t71 -25.5q6 13 15.5 43t17.5 51.5t14 24.5 l223 26q-4 -49 -4 -63q0 -12 -30.5 -109.5t-42.5 -118.5q-7 -12 -27 -12q-13 0 -56 11t-73 14q-36 4 -113 24t-147 41.5t-76 22.5q-25 6 -66 28t-71 54q-37 39 -93 90t-63 51q-88 0 -131 -16t-111 -84q-7 -7 -24 -38.5t-32.5 -58t-22.5 -26.5h-5v-2q0 -5 13.5 -34.5 t27.5 -56.5l13 -26zM39 0l2 88l51 150q0 1 19 39.5t37 77.5t18 46q0 1 -1 3.5t-1 3.5q1 0 12.5 27t29.5 75t34 94q15 42 20.5 65.5t8 53t7.5 55.5q7 42 27.5 94t32.5 97q13 47 24 98q3 17 18 124.5t35 201t44 133.5q8 14 49 14q43 0 66.5 -5.5t31 -10t26.5 -29t32 -37.5 q36 -40 63 -92.5t41 -71.5q10 -15 36.5 -84.5t37.5 -109.5q7 -27 34 -81.5t44 -96.5q37 -93 55 -168q5 -23 14.5 -45t22 -48t18.5 -40q121 -276 191 -400q55 -99 55 -219q0 -10 -12 -10q-63 0 -103 2t-72 9.5t-49 17t-30 30t-19 42.5t-12 61q-5 23 -33 80t-33 71h-176 q-13 4 -29.5 7.5l-33 7t-33 6t-30.5 5t-25 4t-17 2.5l-6 1q-126 0 -153 -2l-21 -74q-6 -142 -14 -156q-6 -11 -38.5 -53.5t-35.5 -42.5zM453 481q3 -1 24.5 -6.5t43 -10.5t28.5 -5l117 24l94 95q36 -7 67 -13q-13 25 -48.5 124.5t-59.5 148.5q-5 9 -32.5 21.5t-45.5 12.5 q-17 0 -36 -15.5t-23 -25.5q-6 -14 -30 -55t-39 -81t-15 -85q0 -19 -45 -129z" />
<glyph unicode="&#xc4;" horiz-adv-x="1304" d="M39 0l2 88l51 150q0 1 19 39.5t37 77.5t18 46q0 1 -1 3.5t-1 3.5q1 0 12.5 27t29.5 75t34 94q15 42 20.5 65.5t8 53t7.5 55.5q7 42 27.5 94t32.5 97q13 47 24 98q3 17 18 124.5t35 201t44 133.5q8 14 49 14q43 0 66.5 -5.5t31 -10t26.5 -29t32 -37.5q36 -40 63 -92.5 t41 -71.5q10 -15 36.5 -84.5t37.5 -109.5q7 -27 34 -81.5t44 -96.5q37 -93 55 -168q5 -23 14.5 -45t22 -48t18.5 -40q121 -276 191 -400q55 -99 55 -219q0 -10 -12 -10q-63 0 -103 2t-72 9.5t-49 17t-30 30t-19 42.5t-12 61q-5 23 -33 80t-33 71h-176q-13 4 -29.5 7.5l-33 7 t-33 6t-30.5 5t-25 4t-17 2.5l-6 1q-126 0 -153 -2l-21 -74q-6 -142 -14 -156q-6 -11 -38.5 -53.5t-35.5 -42.5zM106 1915q3 0 5 2h-2zM111 1917l139 63l135 -41q1 -17 6 -68t8.5 -98.5t3.5 -82.5q0 -4 -18 -7.5t-40.5 -7t-27.5 -4.5q-4 -2 -34 -2h-21.5h-23h-22.5t-22 0.5 t-19 1t-17 2t-13 3.5t-9 5t-3 7v4q-3 -3 -4 8q-2 15 -4 80q-4 130 -14 137zM453 481q3 -1 24.5 -6.5t43 -10.5t28.5 -5l117 24l94 95q36 -7 67 -13q-13 25 -48.5 124.5t-59.5 148.5q-5 9 -32.5 21.5t-45.5 12.5q-17 0 -36 -15.5t-23 -25.5q-6 -14 -30 -55t-39 -81t-15 -85 q0 -19 -45 -129zM657 1933l7 47l163 15q121 -66 123 -131q0 -56 6 -70q0 -11 -55 -50.5t-74 -39.5q-10 0 -52 -8t-79 -16l-37 -9q9 45 9 82q0 32 -3 97.5t-6 72.5q-2 2 -2 10z" />
<glyph unicode="&#xc7;" horiz-adv-x="894" d="M63 1036q0 34 18.5 166t24.5 139l97 132l106 14q345 -27 355 -27q7 0 35 -16.5t34 -22.5q2 -2 15.5 -25t27.5 -44t17 -21q4 0 7.5 -35.5t5.5 -70.5l1 -35l6 -158l-84 -10l-96 4v16q0 39 -7 83.5t-27.5 84t-49.5 39.5q-15 0 -50 -7.5t-62.5 -14.5t-28.5 -6 q-136 -150 -154 -177q-10 -14 -10 -43v-24l-2 -11q-2 -11 -5 -30t-6.5 -45t-7.5 -58.5t-7 -66.5t-5.5 -73.5t-3.5 -76.5q0 -42 28.5 -124.5t28.5 -104.5q0 -23 6.5 -41.5t26.5 -51t27 -46.5l11.5 -23t6 -13.5t8 -5.5t14.5 -4.5t28 -4.5t46 -11q47 -12 76 -12q30 0 57 31 t27 65q0 2 -14.5 92t-14.5 99q0 55 22 104t38 49l13 -1q12 -1 32 -2.5t41 -3.5t40 -4t27 -3q20 -3 33.5 -92.5t13.5 -202.5q0 -57 -11 -95t-24 -53.5t-39.5 -41t-41.5 -45.5q-8 -11 -39 -11q-25 0 -76 11.5t-61 11.5q-18 0 -44 -13.5t-40 -13.5q-4 0 -12.5 -1t-12.5 -1v-88 q0 -4 99.5 -9t119.5 -5q1 0 21 4.5t48 9t50 4.5q15 0 27 -5.5t20.5 -19.5t15 -27.5t12 -39t9.5 -44.5t10 -53t10 -56q7 -35 7 -54q0 -49 -52 -60t-207 -11q-164 0 -178 14q-84 84 -84 106q0 5 21 15t56 19t67 11q27 2 62 28.5t57 52.5t22 32q-5 0 -143 -15.5t-140 -15.5 q-3 0 -10.5 6t-15.5 18.5t-8 25.5v184q-43 22 -56 39q-71 91 -121 237q0 1 -6.5 19t-14 39.5t-17 50.5t-17.5 54.5t-13 47.5t-5 33q0 22 -5.5 218t-5.5 218z" />
<glyph unicode="&#xc8;" horiz-adv-x="1046" d="M35 1985l45 118l151 64q31 -70 37 -78q1 -2 58.5 -58.5t115 -116t62.5 -71.5q4 -10 60.5 -82t58.5 -88q2 -13 22.5 -40t40.5 -47l19 -21q-28 1 -121 10.5t-121 9.5q-17 0 -90.5 -15.5t-100.5 -15.5q-20 0 -20 9l2 6q-15 41 -27 96q-12 53 -79 172q-25 45 -27 41 q-4 -2 -25.5 25t-41.5 55zM72 1296v164l524 41h256v-151l8 -43l-67 -27l-101 -18q-113 -11 -127 -11q-2 0 -63 5.5t-86 5.5q-18 0 -20.5 -2t-2.5 -17q0 -22 7 -77l8 -56q0 -6 -6.5 -92.5t-6.5 -87.5l2 -64q22 -10 37.5 -15t52 -9t91.5 -4q82 0 198 26.5t117 26.5q6 0 10 -20 t7 -55t5 -46l3 -76q-23 -78 -27 -78l-121 -16l-129 31l-129 -35l-70 -61q50 -141 50 -224q22 -75 118 -75q90 0 152 10q137 22 145 28q10 5 15 5q4 0 10 -1l6 -2q1 0 6 1.5t8 1.5q29 0 31 -54q4 -74 4 -114q0 -6 -4 -22t-8.5 -29t-5.5 -13q0 -2 3 -6t3 -6q0 -17 -96 -17 q-12 0 -31 1t-33 1q-84 0 -182.5 -9t-155.5 -18l-57 -9l-105 16q-41 10 -45 10l-73 -6l-70 25q2 6 2 18q0 16 -14.5 72.5t-14.5 101.5v170q0 8 5.5 69.5t5.5 121.5q0 260 -5.5 378t-17 193.5t-16.5 142.5z" />
<glyph unicode="&#xc9;" horiz-adv-x="1046" d="M72 1296v164l524 41h256v-151l8 -43l-67 -27l-101 -18q-113 -11 -127 -11q-2 0 -63 5.5t-86 5.5q-18 0 -20.5 -2t-2.5 -17q0 -22 7 -77l8 -56q0 -6 -6.5 -92.5t-6.5 -87.5l2 -64q22 -10 37.5 -15t52 -9t91.5 -4q82 0 198 26.5t117 26.5q6 0 10 -20t7 -55t5 -46l3 -76 q-23 -78 -27 -78l-121 -16l-129 31l-129 -35l-70 -61q50 -141 50 -224q22 -75 118 -75q90 0 152 10q137 22 145 28q10 5 15 5q4 0 10 -1l6 -2q1 0 6 1.5t8 1.5q29 0 31 -54q4 -74 4 -114q0 -6 -4 -22t-8.5 -29t-5.5 -13q0 -2 3 -6t3 -6q0 -17 -96 -17q-12 0 -31 1t-33 1 q-84 0 -182.5 -9t-155.5 -18l-57 -9l-105 16q-41 10 -45 10l-73 -6l-70 25q2 6 2 18q0 16 -14.5 72.5t-14.5 101.5v170q0 8 5.5 69.5t5.5 121.5q0 260 -5.5 378t-17 193.5t-16.5 142.5zM195 1585q77 80 81 109q2 16 58.5 88t60.5 82q5 12 62.5 71t115 115.5t58.5 58.5l37 78 l151 -63l45 -119l-86 -107q-4 7 -51 -85q-47 -90 -55 -127l-27 -97q2 -4 2 -6q0 -8 -20 -8q-27 0 -100.5 15.5t-90.5 15.5q-28 0 -120 -10t-121 -11z" />
<glyph unicode="&#xca;" horiz-adv-x="1046" d="M-70 1608v22l170 168q44 44 100.5 116.5t92 123t35.5 53.5q0 5 14 18.5t28 24.5l13 10h96l109 10l26 15l74 -6q3 -23 84 -117.5t107 -142.5q8 -15 27 -48t36.5 -64.5t32.5 -59.5q15 -29 49 -66t60 -61.5t26 -28.5q0 -11 -44.5 -17t-64.5 -6h-245l-41 228l-82 82l-27 51 l-74 8l-81 -8q-4 0 -11 -1.5t-25.5 -6.5t-33 -12.5t-27.5 -21.5t-16 -32q-4 -28 -19 -53t-33 -45.5t-22 -28.5q-6 -12 -24.5 -35t-33.5 -40l-16 -17l-30 -27zM72 1296v164l524 41h256v-151l8 -43l-67 -27l-101 -18q-113 -11 -127 -11q-2 0 -63 5.5t-86 5.5q-18 0 -20.5 -2 t-2.5 -17q0 -22 7 -77l8 -56q0 -6 -6.5 -92.5t-6.5 -87.5l2 -64q22 -10 37.5 -15t52 -9t91.5 -4q82 0 198 26.5t117 26.5q6 0 10 -20t7 -55t5 -46l3 -76q-23 -78 -27 -78l-121 -16l-129 31l-129 -35l-70 -61q50 -141 50 -224q22 -75 118 -75q90 0 152 10q137 22 145 28 q10 5 15 5q4 0 10 -1l6 -2q1 0 6 1.5t8 1.5q29 0 31 -54q4 -74 4 -114q0 -6 -4 -22t-8.5 -29t-5.5 -13q0 -2 3 -6t3 -6q0 -17 -96 -17q-12 0 -31 1t-33 1q-84 0 -182.5 -9t-155.5 -18l-57 -9l-105 16q-41 10 -45 10l-73 -6l-70 25q2 6 2 18q0 16 -14.5 72.5t-14.5 101.5v170 q0 8 5.5 69.5t5.5 121.5q0 260 -5.5 378t-17 193.5t-16.5 142.5z" />
<glyph unicode="&#xcb;" horiz-adv-x="1046" d="M61 1839q3 0 5 2h-3zM66 1841l139 64l135 -41q1 -17 6 -68.5t8.5 -99t3.5 -82.5q0 -4 -18 -7.5t-40.5 -7t-27.5 -4.5q-4 -2 -34 -2h-21.5h-23h-22.5t-22 0.5t-19 1t-17 2t-13 3.5t-9 5t-3 7v4q-3 -3 -4 8q-2 15 -4 80q-4 130 -14 137zM72 1296v164l524 41h256v-151l8 -43 l-67 -27l-101 -18q-113 -11 -127 -11q-2 0 -63 5.5t-86 5.5q-18 0 -20.5 -2t-2.5 -17q0 -22 7 -77l8 -56q0 -6 -6.5 -92.5t-6.5 -87.5l2 -64q22 -10 37.5 -15t52 -9t91.5 -4q82 0 198 26.5t117 26.5q6 0 10 -20t7 -55t5 -46l3 -76q-23 -78 -27 -78l-121 -16l-129 31 l-129 -35l-70 -61q50 -141 50 -224q22 -75 118 -75q90 0 152 10q137 22 145 28q10 5 15 5q4 0 10 -1l6 -2q1 0 6 1.5t8 1.5q29 0 31 -54q4 -74 4 -114q0 -6 -4 -22t-8.5 -29t-5.5 -13q0 -2 3 -6t3 -6q0 -17 -96 -17q-12 0 -31 1t-33 1q-84 0 -182.5 -9t-155.5 -18l-57 -9 l-105 16q-41 10 -45 10l-73 -6l-70 25q2 6 2 18q0 16 -14.5 72.5t-14.5 101.5v170q0 8 5.5 69.5t5.5 121.5q0 260 -5.5 378t-17 193.5t-16.5 142.5zM612 1858l6 47l164 14q121 -66 123 -131q0 -56 6 -70q0 -11 -55 -50.5t-74 -39.5q-10 0 -52 -8t-79 -16l-37 -9q9 45 9 82 q0 32 -3 97.5t-6 72.5q-2 2 -2 11z" />
<glyph unicode="&#xcc;" horiz-adv-x="538" d="M-127 2005l45 119l152 63q30 -70 36 -78q1 -2 58.5 -58.5t115 -115.5t62.5 -71q4 -10 60.5 -82t58.5 -88q2 -13 22.5 -40t40.5 -48l19 -21q-29 1 -121.5 11t-120.5 10q-17 0 -90 -15.5t-100 -15.5q-21 0 -21 8l2 6q-14 42 -26 97q-12 53 -79 171q-26 45 -28 41 q-4 -2 -25.5 25t-41.5 55zM74 76v260l16 178v78q0 50 -8 226t-8 278q0 30 10.5 141.5t19.5 157.5q19 92 19 116q0 2 21.5 8t43.5 11l21 6l176 -20l78 6q10 -72 10 -97q0 -31 -5 -50.5t-11.5 -32t-11.5 -62t-5 -133.5q0 -125 -22.5 -195t-22.5 -153q0 -25 13.5 -145.5 t13.5 -176.5q0 -22 -1 -48t-1 -38q0 -3 2.5 -78t5 -147t2.5 -68q0 -2 -6 -30t-6 -29q-8 -1 -51.5 -15t-53.5 -14q-82 0 -151 12t-84 13z" />
<glyph unicode="&#xcd;" horiz-adv-x="538" d="M53 1604q78 79 82 108q2 16 58.5 88t60.5 82q5 12 62.5 71.5t114.5 116t58 58.5l37 78l152 -64l45 -119l-86 -106q-4 7 -52 -85q-47 -91 -55 -128l-26 -96q2 -4 2 -6q0 -9 -21 -9q-27 0 -100 15.5t-90 15.5q-28 0 -121 -9.5t-121 -10.5zM74 76v260l16 178v78q0 50 -8 226 t-8 278q0 30 10.5 141.5t19.5 157.5q19 92 19 116q0 2 21.5 8t43.5 11l21 6l176 -20l78 6q10 -72 10 -97q0 -31 -5 -50.5t-11.5 -32t-11.5 -62t-5 -133.5q0 -125 -22.5 -195t-22.5 -153q0 -25 13.5 -145.5t13.5 -176.5q0 -22 -1 -48t-1 -38q0 -3 2.5 -78t5 -147t2.5 -68 q0 -2 -6 -30t-6 -29q-8 -1 -51.5 -15t-53.5 -14q-82 0 -151 12t-84 13z" />
<glyph unicode="&#xce;" horiz-adv-x="538" d="M-231 1628v23l170 168q44 44 100.5 116t91.5 122.5t35 53.5q0 5 14 18.5t28 24.5l13 11h96l109 10l27 14l73 -6q3 -23 84 -117.5t107 -142.5q8 -15 27 -48t36.5 -64.5t32.5 -59.5q15 -29 49 -66t60 -61.5t26 -28.5q0 -11 -43.5 -16.5t-64.5 -5.5h-246l-41 227l-82 82 l-27 51l-73 9l-82 -9q-4 0 -11 -1.5t-25.5 -6.5t-33 -12t-27.5 -21t-16 -32q-4 -28 -19 -53t-33 -45.5t-22 -28.5q-6 -12 -24.5 -35.5t-33.5 -40.5l-15 -17l-31 -26zM74 76v260l16 178v78q0 50 -8 226t-8 278q0 30 10.5 141.5t19.5 157.5q19 92 19 116q0 2 21.5 8t43.5 11 l21 6l176 -20l78 6q10 -72 10 -97q0 -31 -5 -50.5t-11.5 -32t-11.5 -62t-5 -133.5q0 -125 -22.5 -195t-22.5 -153q0 -25 13.5 -145.5t13.5 -176.5q0 -22 -1 -48t-1 -38q0 -3 2.5 -78t5 -147t2.5 -68q0 -2 -6 -30t-6 -29q-8 -1 -51.5 -15t-53.5 -14q-82 0 -151 12t-84 13z " />
<glyph unicode="&#xcf;" horiz-adv-x="538" d="M-129 1874q2 0 4 2h-2zM-125 1876l139 63l136 -41q1 -17 6 -68t8.5 -98.5t3.5 -82.5q0 -4 -18 -7.5t-40.5 -7t-27.5 -4.5q-4 -2 -35 -2h-21.5h-22.5h-22t-22 0.5t-19.5 1t-17 2t-12.5 3.5t-9 5t-3 7v4q-3 -4 -5 17q-2 16 -4 71q-4 130 -14 137zM74 76v260l16 178v78 q0 50 -8 226t-8 278q0 30 10.5 141.5t19.5 157.5q19 92 19 116q0 2 21.5 8t43.5 11l21 6l176 -20l78 6q10 -72 10 -97q0 -31 -5 -50.5t-11.5 -32t-11.5 -62t-5 -133.5q0 -125 -22.5 -195t-22.5 -153q0 -25 13.5 -145.5t13.5 -176.5q0 -22 -1 -48t-1 -38q0 -3 2.5 -78t5 -147 t2.5 -68q0 -2 -6 -30t-6 -29q-8 -1 -51.5 -15t-53.5 -14q-82 0 -151 12t-84 13zM422 1892l6 47l164 15q121 -66 123 -131q0 -56 6 -70q0 -11 -55 -50.5t-74 -39.5q-10 0 -52 -8.5t-79 -16.5l-37 -8q8 45 8 82q0 34 -2.5 98.5t-5.5 71.5q-2 2 -2 10z" />
<glyph unicode="&#xd1;" horiz-adv-x="1488" d="M61 16q0 11 5 38l4 26q0 2 14 21t14 20q0 2 41.5 27.5t44.5 25.5q2 0 11.5 13t20.5 27.5t13 16.5t2 23q0 12 -1 41.5t-2.5 82.5t-2.5 111q-1 68 -6 106t-10 46.5t-11.5 16t-9.5 18.5q-7 26 -10 145q-1 38 -10.5 75t-9.5 54q0 98 -11.5 285.5t-11.5 247.5q0 19 7 23.5 t34 4.5h27q46 0 114 -5t68 -17v-2q56 -37 64 -51q4 -7 47 -44t47 -42q17 -25 26.5 -57t14.5 -42q26 -9 68 -41.5t42 -42.5l11 -12q19 -44 46.5 -79t48.5 -55t44 -58.5t37 -92.5q7 -28 37.5 -112t46.5 -107q11 -16 41.5 -26t51.5 -12.5t32 -2.5q15 0 32 108.5t17 158.5 q0 99 -11 163q-3 19 -30 74t-29 66q-2 13 -38 98t-36 92q0 6 -16.5 35.5t-32.5 55.5l-16 26l229 53q166 -8 170 -8q2 0 15.5 -6t28 -12t16.5 -7v-2q0 -2 6.5 -18t13 -40t6.5 -46q0 -3 -8.5 -26.5t-17.5 -67t-11 -93.5q-1 -31 -18 -163.5t-17 -309.5q0 -34 5.5 -58t5.5 -36 q0 -8 -1 -55t-1 -76q0 -36 9 -143t9 -164v-12q-6 -38 -6 -146q0 -34 -13.5 -42.5t-52.5 -8.5l-158 6h-1q-29 0 -56 53q-20 36 -53 80.5t-53.5 72.5t-20.5 38q0 1 5 6q-12 20 -15.5 26t-8 15t-10 21t-26.5 52.5t-53 100.5q-39 75 -56 97t-18 24q-33 65 -51 123 q-3 11 -39.5 59.5t-38.5 54.5q-3 9 -34 30.5t-36 21.5q-9 0 -57.5 -14t-54.5 -25q-51 -90 -51 -180q0 -4 1 -11t1 -10l-6 -94q0 -25 4 -112t4 -159q0 -19 -2 -51t-2 -43q0 -40 9 -100.5t9 -71.5q0 -2 -32.5 -8t-65.5 -11l-33 -5l-33 2q-33 2 -62.5 4.5t-65 6.5t-56.5 8.5 t-21 8.5zM96 1589q0 142 4 189q1 10 7.5 22.5t17 26t22.5 27t25 26t22.5 21.5t17.5 15l7 7q3 3 113.5 63t113.5 60q1 0 33 -2.5t69 -5t50 -2.5q16 0 80.5 -22.5t69.5 -22.5q9 0 99 -40.5t105 -49.5q16 -9 64.5 -47.5t92 -65t71.5 -25.5q6 13 15.5 43t17.5 51.5t14 24.5 l223 27q-4 -50 -4 -64q0 -12 -31 -109t-43 -118q-7 -12 -26 -12q-13 0 -56 10.5t-73 13.5q-36 4 -113 24t-147 41.5t-76 22.5q-26 6 -67 28t-71 54q-38 40 -93 91t-62 51q-88 0 -131 -16.5t-111 -84.5q-7 -7 -24 -38.5t-33 -58t-23 -26.5h-4v-2q0 -5 13 -34.5t27 -55.5 l13 -27z" />
<glyph unicode="&#xd2;" horiz-adv-x="1099" d="M8 2023l45 119l152 64q31 -70 37 -78q1 -2 58 -58.5t114.5 -116t62.5 -71.5q4 -10 60.5 -82t58.5 -88q2 -13 22.5 -40t39.5 -48l20 -20q-28 1 -121 10.5t-121 9.5q-17 0 -90 -15.5t-100 -15.5q-21 0 -21 9l2 6q-14 41 -26 96q-12 53 -80 172q-25 45 -27 41 q-4 -2 -25.5 24.5t-40.5 54.5zM53 510l13 6q-3 24 -3 39q0 17 5.5 52.5t5.5 74.5q0 15 11 50t11 54q0 91 2 189q1 69 16 142t28.5 111.5t39.5 106.5q12 31 70 74t65 51q18 21 84.5 46t67.5 26q5 4 46 6t85 2.5t49 1.5q7 0 40.5 -5.5t64 -11.5t30.5 -7q78 -68 80 -86 q1 -6 15 -40t31 -81t24 -84q8 -40 36 -119t29 -107q1 -26 20 -117t19 -149q0 -35 -5 -84.5t-5 -58.5q0 -31 -24 -126t-52 -157q-41 -91 -61.5 -148.5t-28 -94.5t-10.5 -46q-209 -24 -229 -24q-13 0 -82 8.5t-84 11.5q-50 9 -87.5 34.5t-93.5 84.5q-24 26 -65.5 85t-77.5 91 q-10 9 -39.5 85.5t-27.5 86.5q0 4 -3 10.5t-7 11.5zM223 567l80 -75q2 -3 9.5 -11.5t13 -15.5t6.5 -10l12 -25q0 -1 8 -16.5t15.5 -36.5t7.5 -35q0 -6 -1 -17t-1 -14q0 -9 33.5 -47.5t83 -76t83.5 -37.5q12 0 23.5 3.5t24.5 9t18 7.5q10 3 67.5 81.5t57.5 94.5h-2 q5 7 21 68.5t16 81.5v24q8 80 8 129q0 55 -39 283q-4 24 -19 66t-26 94q-4 20 -8 33.5t-7 19.5t-5.5 9.5t-4.5 4t-4 0.5t-3.5 1.5t-2.5 6.5q-8 30 -35 68q-1 0 -25.5 15.5t-55.5 31.5t-46 16q-3 0 -7.5 -5t-18 -13t-37.5 -14q-36 -9 -50 -24.5t-20.5 -48.5t-13.5 -48 q-43 -98 -43 -168q0 -9 1 -38.5t1 -53.5v-39l-2 2q-2 -10 -24 -62.5t-25 -70.5q-5 -21 -14 -44t-11 -34q-3 -19 -39 -70z" />
<glyph unicode="&#xd3;" horiz-adv-x="1099" d="M53 510l13 6q-3 24 -3 39q0 17 5.5 52.5t5.5 74.5q0 15 11 50t11 54q0 91 2 189q1 69 16 142t28.5 111.5t39.5 106.5q12 31 70 74t65 51q18 21 84.5 46t67.5 26q5 4 46 6t85 2.5t49 1.5q7 0 40.5 -5.5t64 -11.5t30.5 -7q78 -68 80 -86q1 -6 15 -40t31 -81t24 -84 q8 -40 36 -119t29 -107q1 -26 20 -117t19 -149q0 -35 -5 -84.5t-5 -58.5q0 -31 -24 -126t-52 -157q-41 -91 -61.5 -148.5t-28 -94.5t-10.5 -46q-209 -24 -229 -24q-13 0 -82 8.5t-84 11.5q-50 9 -87.5 34.5t-93.5 84.5q-24 26 -65.5 85t-77.5 91q-10 9 -39.5 85.5 t-27.5 86.5q0 4 -3 10.5t-7 11.5zM223 567l80 -75q2 -3 9.5 -11.5t13 -15.5t6.5 -10l12 -25q0 -1 8 -16.5t15.5 -36.5t7.5 -35q0 -6 -1 -17t-1 -14q0 -9 33.5 -47.5t83 -76t83.5 -37.5q12 0 23.5 3.5t24.5 9t18 7.5q10 3 67.5 81.5t57.5 94.5h-2q5 7 21 68.5t16 81.5v24 q8 80 8 129q0 55 -39 283q-4 24 -19 66t-26 94q-4 20 -8 33.5t-7 19.5t-5.5 9.5t-4.5 4t-4 0.5t-3.5 1.5t-2.5 6.5q-8 30 -35 68q-1 0 -25.5 15.5t-55.5 31.5t-46 16q-3 0 -7.5 -5t-18 -13t-37.5 -14q-36 -9 -50 -24.5t-20.5 -48.5t-13.5 -48q-43 -98 -43 -168q0 -9 1 -38.5 t1 -53.5v-39l-2 2q-2 -10 -24 -62.5t-25 -70.5q-5 -21 -14 -44t-11 -34q-3 -19 -39 -70zM254 1604q78 79 82 108q2 16 58.5 88t60.5 82q5 12 62.5 71.5t114.5 116t58 58.5l37 78l152 -64l45 -119l-86 -106q-4 7 -52 -85q-47 -91 -55 -128l-26 -96q2 -4 2 -6q0 -9 -21 -9 q-27 0 -100 15.5t-90 15.5q-28 0 -121 -9.5t-121 -10.5z" />
<glyph unicode="&#xd4;" horiz-adv-x="1099" d="M53 510l13 6q-3 24 -3 39q0 17 5.5 52.5t5.5 74.5q0 15 11 50t11 54q0 91 2 189q1 69 16 142t28.5 111.5t39.5 106.5q12 31 70 74t65 51q18 21 84.5 46t67.5 26q5 4 46 6t85 2.5t49 1.5q7 0 40.5 -5.5t64 -11.5t30.5 -7q78 -68 80 -86q1 -6 15 -40t31 -81t24 -84 q8 -40 36 -119t29 -107q1 -26 20 -117t19 -149q0 -35 -5 -84.5t-5 -58.5q0 -31 -24 -126t-52 -157q-41 -91 -61.5 -148.5t-28 -94.5t-10.5 -46q-209 -24 -229 -24q-13 0 -82 8.5t-84 11.5q-50 9 -87.5 34.5t-93.5 84.5q-24 26 -65.5 85t-77.5 91q-10 9 -39.5 85.5 t-27.5 86.5q0 4 -3 10.5t-7 11.5zM53 1640v23l170 168q44 44 100.5 116.5t92 123t35.5 53.5q0 5 13.5 18.5t27.5 23.5l14 11h96l109 10l26 15l74 -7q3 -23 83.5 -117.5t106.5 -142.5q5 -8 41.5 -71.5t55.5 -100.5q15 -29 49 -65.5t60 -61t26 -28.5q0 -11 -44.5 -17t-64.5 -6 h-245l-41 227l-82 82l-27 52l-74 8l-82 -8q-4 0 -11 -1.5t-25 -6.5t-32.5 -12.5t-27.5 -21.5t-16 -32q-4 -28 -19 -53t-33 -45.5t-22 -28.5q-6 -12 -24.5 -35t-34.5 -40l-15 -17l-30 -27zM223 567l80 -75q2 -3 9.5 -11.5t13 -15.5t6.5 -10l12 -25q0 -1 8 -16.5t15.5 -36.5 t7.5 -35q0 -6 -1 -17t-1 -14q0 -9 33.5 -47.5t83 -76t83.5 -37.5q12 0 23.5 3.5t24.5 9t18 7.5q10 3 67.5 81.5t57.5 94.5h-2q5 7 21 68.5t16 81.5v24q8 80 8 129q0 55 -39 283q-4 24 -19 66t-26 94q-4 20 -8 33.5t-7 19.5t-5.5 9.5t-4.5 4t-4 0.5t-3.5 1.5t-2.5 6.5 q-8 30 -35 68q-1 0 -25.5 15.5t-55.5 31.5t-46 16q-3 0 -7.5 -5t-18 -13t-37.5 -14q-36 -9 -50 -24.5t-20.5 -48.5t-13.5 -48q-43 -98 -43 -168q0 -9 1 -38.5t1 -53.5v-39l-2 2q-2 -10 -24 -62.5t-25 -70.5q-5 -21 -14 -44t-11 -34q-3 -19 -39 -70z" />
<glyph unicode="&#xd5;" horiz-adv-x="1099" d="M-78 1583q0 142 4 189q1 10 7.5 22.5t17 26t22.5 27t25 26t22.5 21.5t17.5 15l7 7q3 3 113.5 63t113.5 60q1 0 33 -2.5t69 -5t50 -2.5q16 0 80 -22.5t69 -22.5q9 0 99 -41t106 -50t64.5 -47t92 -64.5t71.5 -25.5q6 13 15.5 43t17.5 51.5t14 24.5l223 27q-4 -50 -4 -64 q0 -12 -31 -109t-43 -118q-8 -13 -27 -13q-13 0 -56 11t-73 14q-36 4 -112.5 24t-146.5 41.5t-76 22.5q-26 6 -67 28t-71 54q-38 39 -93 90t-62 51q-88 0 -131 -16t-111 -84q-7 -7 -24 -38.5t-33 -58t-23 -26.5h-4v-2q0 -5 13 -34.5t27 -55.5l13 -27zM53 510l13 6 q-3 24 -3 39q0 17 5.5 52.5t5.5 74.5q0 15 11 50t11 54q0 91 2 189q1 69 16 142t28.5 111.5t39.5 106.5q12 31 70 74t65 51q18 21 84.5 46t67.5 26q5 4 46 6t85 2.5t49 1.5q7 0 40.5 -5.5t64 -11.5t30.5 -7q78 -68 80 -86q1 -6 15 -40t31 -81t24 -84q8 -40 36 -119t29 -107 q1 -26 20 -117t19 -149q0 -35 -5 -84.5t-5 -58.5q0 -31 -24 -126t-52 -157q-41 -91 -61.5 -148.5t-28 -94.5t-10.5 -46q-209 -24 -229 -24q-13 0 -82 8.5t-84 11.5q-50 9 -87.5 34.5t-93.5 84.5q-24 26 -65.5 85t-77.5 91q-10 9 -39.5 85.5t-27.5 86.5q0 4 -3 10.5t-7 11.5z M223 567l80 -75q2 -3 9.5 -11.5t13 -15.5t6.5 -10l12 -25q0 -1 8 -16.5t15.5 -36.5t7.5 -35q0 -6 -1 -17t-1 -14q0 -9 33.5 -47.5t83 -76t83.5 -37.5q12 0 23.5 3.5t24.5 9t18 7.5q10 3 67.5 81.5t57.5 94.5h-2q5 7 21 68.5t16 81.5v24q8 80 8 129q0 55 -39 283 q-4 24 -19 66t-26 94q-4 20 -8 33.5t-7 19.5t-5.5 9.5t-4.5 4t-4 0.5t-3.5 1.5t-2.5 6.5q-8 30 -35 68q-1 0 -25.5 15.5t-55.5 31.5t-46 16q-3 0 -7.5 -5t-18 -13t-37.5 -14q-36 -9 -50 -24.5t-20.5 -48.5t-13.5 -48q-43 -98 -43 -168q0 -9 1 -38.5t1 -53.5v-39l-2 2 q-2 -10 -24 -62.5t-25 -70.5q-5 -21 -14 -44t-11 -34q-3 -19 -39 -70z" />
<glyph unicode="&#xd6;" horiz-adv-x="1099" d="M53 510l13 6q-3 24 -3 39q0 17 5.5 52.5t5.5 74.5q0 15 11 50t11 54q0 91 2 189q1 69 16 142t28.5 111.5t39.5 106.5q12 31 70 74t65 51q18 21 84.5 46t67.5 26q5 4 46 6t85 2.5t49 1.5q7 0 40.5 -5.5t64 -11.5t30.5 -7q78 -68 80 -86q1 -6 15 -40t31 -81t24 -84 q8 -40 36 -119t29 -107q1 -26 20 -117t19 -149q0 -35 -5 -84.5t-5 -58.5q0 -31 -24 -126t-52 -157q-41 -91 -61.5 -148.5t-28 -94.5t-10.5 -46q-209 -24 -229 -24q-13 0 -82 8.5t-84 11.5q-50 9 -87.5 34.5t-93.5 84.5q-24 26 -65.5 85t-77.5 91q-10 9 -39.5 85.5 t-27.5 86.5q0 4 -3 10.5t-7 11.5zM143 1874q2 0 4 2h-2zM147 1876l140 63l135 -41q1 -17 6 -68t8.5 -98.5t3.5 -82.5q0 -4 -18 -7.5t-40.5 -7t-27.5 -4.5q-4 -2 -35 -2h-21.5h-22.5h-22t-22 0.5t-19.5 1t-17 2t-12.5 3.5t-9 5t-3 7v4q-3 -4 -5 17q-2 16 -4 71 q-4 130 -14 137zM223 567l80 -75q2 -3 9.5 -11.5t13 -15.5t6.5 -10l12 -25q0 -1 8 -16.5t15.5 -36.5t7.5 -35q0 -6 -1 -17t-1 -14q0 -9 33.5 -47.5t83 -76t83.5 -37.5q12 0 23.5 3.5t24.5 9t18 7.5q10 3 67.5 81.5t57.5 94.5h-2q5 7 21 68.5t16 81.5v24q8 80 8 129 q0 55 -39 283q-4 24 -19 66t-26 94q-4 20 -8 33.5t-7 19.5t-5.5 9.5t-4.5 4t-4 0.5t-3.5 1.5t-2.5 6.5q-8 30 -35 68q-1 0 -25.5 15.5t-55.5 31.5t-46 16q-3 0 -7.5 -5t-18 -13t-37.5 -14q-36 -9 -50 -24.5t-20.5 -48.5t-13.5 -48q-43 -98 -43 -168q0 -9 1 -38.5t1 -53.5 v-39l-2 2q-2 -10 -24 -62.5t-25 -70.5q-5 -21 -14 -44t-11 -34q-3 -19 -39 -70zM694 1892l6 47l164 15q121 -66 123 -131q0 -56 6 -70q0 -11 -55 -50.5t-74 -39.5q-10 0 -52 -8.5t-79 -16.5l-37 -8q9 45 9 82q0 32 -3 97.5t-6 72.5q-2 2 -2 10z" />
<glyph unicode="&#xd7;" horiz-adv-x="1134" d="M49 985q2 -2 21.5 29t37.5 62l19 32l55 -45q195 -174 228 -211q14 -16 50.5 -49t67 -59.5t31.5 -28.5l21 -21q169 187 235 269q13 16 28.5 35.5t23.5 30t18 23t16 18t13 11t12.5 7.5t11.5 2q3 0 52 -63.5t52 -70.5q3 -5 9 -36t6 -35q0 -3 -72 -88t-84 -95l-20 -10 q-20 -10 -48 -24.5t-55.5 -31t-47 -34t-19.5 -29.5q12 -11 49 -43t55 -48t53 -47t54.5 -49.5t47.5 -45.5t43.5 -45t31.5 -38.5t23 -35.5t7 -26q0 -8 -9 -22t-36 -31.5t-65 -22.5q-14 -2 -33 -17.5t-35.5 -33.5t-17.5 -19q4 4 -55.5 63.5t-151.5 147t-127 123.5 q-33 -33 -39 -37q-46 -37 -90 -86t-67.5 -80t-58 -53.5t-75.5 -22.5q-25 0 -25 5l-67 141q10 0 89.5 59.5t100.5 81.5q8 8 97 123q-4 0 -4 2q-37 28 -84 92t-54 72q-20 23 -75.5 99.5t-101 142.5t-42.5 63z" />
<glyph unicode="&#xd9;" horiz-adv-x="1265" d="M72 798v40v34q0 76 14 212t28.5 238.5t14.5 96.5q0 -1 -2 24.5t-4 50.5l-2 26h74l24 -31v-57q9 -2 60.5 -4t94 -6.5t42.5 -12.5q0 -89 -15.5 -239.5t-15.5 -165.5q0 -72 3 -132t10 -109t11.5 -75.5t14.5 -68.5t12 -52q51 -178 51 -235v-14.5t-0.5 -10.5t-0.5 -7.5v-5 t-0.5 -2.5t-0.5 -2v-1q0 -17 17.5 -22t56.5 -5h33q10 0 67 -5t82 -5q47 0 98.5 69.5t84 163t32.5 164.5q0 21 -2 40.5t-8.5 47.5t-11 44.5t-17 60.5t-18.5 67q-23 80 -64.5 275.5t-41.5 214.5l2 2l2 -6q4 -2 16 -2q37 0 143 36.5t148 36.5q5 0 14 -8t21 -25t22.5 -39.5 t17.5 -56t7 -69.5q0 -18 -5 -70t-5 -84q0 -4 5 -52.5t5 -111.5q0 -15 -2 -49.5t-2 -75.5q0 -43 1 -101.5t1 -72.5q0 -46 -6 -145q-1 -15 -2.5 -80t-3.5 -132.5t-6 -138t-11 -115t-16 -44.5l-6 1q-6 1 -16.5 2t-22.5 1q-44 0 -153.5 -7t-235.5 -7q-1 0 -50 5t-84 5 q-9 0 -27 -2t-26 -2q-62 0 -153.5 36.5t-118.5 96.5q-2 5 -17 27.5t-33.5 68.5t-43.5 131q-14 48 -26 91.5t-20 83t-14 68t-9.5 63.5t-6 51.5t-3.5 49t-1 39.5zM268 1974l45 119l152 64q31 -70 37 -78q1 -2 58 -58.5t114.5 -116t62.5 -71.5q4 -10 60.5 -82t58.5 -88 q2 -13 22.5 -40t39.5 -48l20 -21q-29 1 -121.5 11t-120.5 10q-17 0 -90 -15.5t-100 -15.5q-21 0 -21 8l2 7q-14 41 -26 96q-12 53 -80 172q-25 45 -27 41q-4 -2 -25.5 24.5t-40.5 53.5z" />
<glyph unicode="&#xda;" horiz-adv-x="1265" d="M72 798v40v34q0 76 14 212t28.5 238.5t14.5 96.5q0 -1 -2 24.5t-4 50.5l-2 26h74l24 -31v-57q9 -2 60.5 -4t94 -6.5t42.5 -12.5q0 -89 -15.5 -239.5t-15.5 -165.5q0 -72 3 -132t10 -109t11.5 -75.5t14.5 -68.5t12 -52q51 -178 51 -235v-14.5t-0.5 -10.5t-0.5 -7.5v-5 t-0.5 -2.5t-0.5 -2v-1q0 -17 17.5 -22t56.5 -5h33q10 0 67 -5t82 -5q47 0 98.5 69.5t84 163t32.5 164.5q0 21 -2 40.5t-8.5 47.5t-11 44.5t-17 60.5t-18.5 67q-23 80 -64.5 275.5t-41.5 214.5l2 2l2 -6q4 -2 16 -2q37 0 143 36.5t148 36.5q5 0 14 -8t21 -25t22.5 -39.5 t17.5 -56t7 -69.5q0 -18 -5 -70t-5 -84q0 -4 5 -52.5t5 -111.5q0 -15 -2 -49.5t-2 -75.5q0 -43 1 -101.5t1 -72.5q0 -46 -6 -145q-1 -15 -2.5 -80t-3.5 -132.5t-6 -138t-11 -115t-16 -44.5l-6 1q-6 1 -16.5 2t-22.5 1q-44 0 -153.5 -7t-235.5 -7q-1 0 -50 5t-84 5 q-9 0 -27 -2t-26 -2q-62 0 -153.5 36.5t-118.5 96.5q-2 5 -17 27.5t-33.5 68.5t-43.5 131q-14 48 -26 91.5t-20 83t-14 68t-9.5 63.5t-6 51.5t-3.5 49t-1 39.5zM365 1587q77 80 81 109q2 16 58.5 88t60.5 82q5 12 62.5 71t115 115.5t58.5 58.5l37 78l151 -63l45 -119 l-86 -106q-4 7 -52 -86q-46 -90 -54 -127l-27 -97q2 -4 2 -6q0 -8 -20 -8q-27 0 -100.5 15.5t-90.5 15.5q-28 0 -120 -10t-121 -11z" />
<glyph unicode="&#xdb;" horiz-adv-x="1265" d="M72 798v40v34q0 76 14 212t28.5 238.5t14.5 96.5q0 -1 -2 24.5t-4 50.5l-2 26h74l24 -31v-57q9 -2 60.5 -4t94 -6.5t42.5 -12.5q0 -89 -15.5 -239.5t-15.5 -165.5q0 -72 3 -132t10 -109t11.5 -75.5t14.5 -68.5t12 -52q51 -178 51 -235v-14.5t-0.5 -10.5t-0.5 -7.5v-5 t-0.5 -2.5t-0.5 -2v-1q0 -17 17.5 -22t56.5 -5h33q10 0 67 -5t82 -5q47 0 98.5 69.5t84 163t32.5 164.5q0 21 -2 40.5t-8.5 47.5t-11 44.5t-17 60.5t-18.5 67q-23 80 -64.5 275.5t-41.5 214.5l2 2l2 -6q4 -2 16 -2q37 0 143 36.5t148 36.5q5 0 14 -8t21 -25t22.5 -39.5 t17.5 -56t7 -69.5q0 -18 -5 -70t-5 -84q0 -4 5 -52.5t5 -111.5q0 -15 -2 -49.5t-2 -75.5q0 -43 1 -101.5t1 -72.5q0 -46 -6 -145q-1 -15 -2.5 -80t-3.5 -132.5t-6 -138t-11 -115t-16 -44.5l-6 1q-6 1 -16.5 2t-22.5 1q-44 0 -153.5 -7t-235.5 -7q-1 0 -50 5t-84 5 q-9 0 -27 -2t-26 -2q-62 0 -153.5 36.5t-118.5 96.5q-2 5 -17 27.5t-33.5 68.5t-43.5 131q-14 48 -26 91.5t-20 83t-14 68t-9.5 63.5t-6 51.5t-3.5 49t-1 39.5zM119 1661v22l170 168q44 44 100.5 116.5t91.5 123t35 53.5q0 5 14 18.5t28 24.5l13 11h97l108 10l27 14l74 -6 q3 -23 83.5 -117.5t106.5 -142.5q8 -15 27 -48t36.5 -64.5t32.5 -59.5q15 -29 49 -66t60 -61.5t26 -28.5q0 -11 -43.5 -16.5t-64.5 -5.5h-246l-41 227l-82 82l-26 51l-74 8l-82 -8q-4 0 -11 -1.5t-25.5 -6.5t-33 -12.5t-27.5 -21.5t-16 -32q-4 -28 -19 -53t-32.5 -45.5 t-21.5 -28.5q-6 -12 -24.5 -35t-34.5 -40l-15 -17l-31 -26z" />
<glyph unicode="&#xdc;" horiz-adv-x="1265" d="M72 798v40v34q0 76 14 212t28.5 238.5t14.5 96.5q0 -1 -2 24.5t-4 50.5l-2 26h74l24 -31v-57q9 -2 60.5 -4t94 -6.5t42.5 -12.5q0 -89 -15.5 -239.5t-15.5 -165.5q0 -72 3 -132t10 -109t11.5 -75.5t14.5 -68.5t12 -52q51 -178 51 -235v-14.5t-0.5 -10.5t-0.5 -7.5v-5 t-0.5 -2.5t-0.5 -2v-1q0 -17 17.5 -22t56.5 -5h33q10 0 67 -5t82 -5q47 0 98.5 69.5t84 163t32.5 164.5q0 21 -2 40.5t-8.5 47.5t-11 44.5t-17 60.5t-18.5 67q-23 80 -64.5 275.5t-41.5 214.5l2 2l2 -6q4 -2 16 -2q37 0 143 36.5t148 36.5q5 0 14 -8t21 -25t22.5 -39.5 t17.5 -56t7 -69.5q0 -18 -5 -70t-5 -84q0 -4 5 -52.5t5 -111.5q0 -15 -2 -49.5t-2 -75.5q0 -43 1 -101.5t1 -72.5q0 -46 -6 -145q-1 -15 -2.5 -80t-3.5 -132.5t-6 -138t-11 -115t-16 -44.5l-6 1q-6 1 -16.5 2t-22.5 1q-44 0 -153.5 -7t-235.5 -7q-1 0 -50 5t-84 5 q-9 0 -27 -2t-26 -2q-62 0 -153.5 36.5t-118.5 96.5q-2 5 -17 27.5t-33.5 68.5t-43.5 131q-14 48 -26 91.5t-20 83t-14 68t-9.5 63.5t-6 51.5t-3.5 49t-1 39.5zM248 1866q2 0 4 2h-2zM252 1868l139 63l135 -41q1 -18 6.5 -68.5t9 -98.5t3.5 -83q0 -4 -18 -7.5t-40.5 -6.5 t-27.5 -4q-4 -2 -35 -2h-27.5h-30h-27.5t-26 1t-20 3t-14.5 5.5t-4.5 8.5v4q-3 -4 -5 17q-2 16 -3 71q-4 131 -14 138zM799 1884l6 47l164 15q121 -66 123 -131q0 -56 6 -70q0 -11 -55 -50.5t-74 -39.5q-10 0 -52 -8.5t-79 -16.5l-37 -8q8 45 8 82q0 34 -2.5 98.5t-5.5 71.5 q-2 2 -2 10z" />
<glyph unicode="&#xdd;" horiz-adv-x="1525" d="M29 1458l34 8q23 0 64 2t73 4l31 1h66q5 2 23 -26t38 -71t27 -76q4 -17 31.5 -66.5t36.5 -90.5q39 -177 110 -328q19 -42 19 -74v-20q0 -9 7.5 -11.5t37.5 -2.5q26 0 64 1t50 1q13 0 72 -7.5t88 -7.5q14 0 31 16t35.5 47.5t33.5 91.5t21 136q2 29 20.5 78t22.5 67 q5 23 7 86.5t7 77.5q16 41 20.5 84.5t4.5 63.5t16 33.5t56 13.5q3 0 13.5 -1t20.5 -1q87 0 165.5 6t97.5 6q14 -33 14 -76q0 -20 -2 -30q-4 -23 -43.5 -136t-40.5 -143q-2 -59 -94 -293q-16 -41 -56 -97.5t-45 -72.5q-3 -11 -10.5 -23t-20.5 -29.5t-24.5 -31t-34 -40 t-37.5 -44.5q-29 -35 -62.5 -59.5t-52 -36t-20.5 -22.5q-2 -6 -16 -43.5t-25.5 -75t-11.5 -56.5q0 -6 4 -22q12 -47 12 -137q0 -4 -17 -10t-20 -17q-3 -9 -28 -12.5t-59.5 -4.5t-45.5 -3q-7 -1 -17 -4t-13 -3q-19 0 -32 28.5t-18 72.5t-6.5 73t-1.5 54q0 53 6.5 127t6.5 84 q0 84 -56 84q-45 0 -79.5 5t-51 10.5t-52.5 19.5t-58 22q-8 3 -22 7t-21 6.5t-17.5 7t-15.5 9.5t-10.5 12.5t-8 18t-2.5 23.5q0 7 2 55.5t2 69.5q0 34 -2 68.5t-2 37.5q0 66 -21 141.5t-42 124.5t-21 52q0 2 -10 18t-27.5 44.5t-29.5 52.5q-4 9 -21.5 30.5t-33 39 t-15.5 18.5zM471 1620q78 80 82 109q2 16 58.5 87.5t60.5 81.5q5 12 62.5 71.5t114.5 116t58 58.5l37 78l152 -63l45 -119l-86 -107q-4 7 -52 -85q-47 -91 -55 -128l-26 -96q2 -4 2 -6q0 -8 -21 -8q-27 0 -100 15t-90 15q-28 0 -121 -9.5t-121 -10.5z" />
<glyph unicode="&#xdf;" horiz-adv-x="1259" d="M59 8q0 13 17 35t38 55.5t29 69.5q7 40 7 84q0 34 -3.5 109t-3.5 110q0 70 11.5 200t11.5 197q0 33 -1 90t-1 74q0 14 1 27.5t1 25.5q0 26 -3 85t-3 65t4 54t4 71l-9 146q0 20 1 26q55 4 114 4q32 0 99 -4t104 -4q109 0 224 10t137 10q24 0 28 -2q3 -2 30.5 -22t56 -39 t38.5 -23q18 -6 53.5 -37t51.5 -57q8 -13 28 -22.5t36 -28.5t22 -60q4 -27 9 -55t7.5 -41t4 -37.5t1.5 -60.5q0 -80 -4.5 -106.5t-25.5 -45.5q-13 -12 -56 -32.5t-79.5 -35t-39.5 -14.5t-51 1.5t-95 2.5t-46 1q-21 0 -45.5 -27t-24.5 -59q0 -21 2 -32.5t11 -24.5t29.5 -19 t54.5 -6q11 0 24.5 1t18.5 1q36 0 70 -18.5t58.5 -37.5t38.5 -20q32 -3 59 -117q9 -37 11 -37q1 0 9.5 12.5t13.5 12.5q2 0 4.5 -8.5t4 -22t3 -30.5t2 -33t1.5 -30t1 -22v-8q0 -69 -102 -205q-14 -18 -50.5 -38.5t-56.5 -20.5q-7 0 -55.5 -6t-89.5 -6q-68 0 -146.5 22 t-81.5 49q0 3 -10 48.5t-10 68.5q0 58 129 58q45 0 89.5 -23t61.5 -23q83 0 95 50q3 13 19 39t16 36q0 8 -29 18.5t-64.5 23t-46.5 24.5q-8 8 -54 42t-54 58q-5 16 -34 72.5t-36 83.5q-27 101 -27 170q0 22 63.5 76.5t88.5 54.5h217l12 15q12 15 25.5 37t13.5 36 q0 16 -37 73t-74 106.5t-40 49.5l-164 48l-182 8l-97 -109l-34 -106q-11 -86 -11 -109v-4q2 0 2 -45q0 -123 -10 -201q-2 -13 -9 -49t-11 -68t-4 -71q0 -38 6 -94q10 -78 13 -155.5t9 -133.5q19 -167 19 -182q0 -14 -21 -29.5t-63 -15.5q-30 0 -88 4.5t-101 9.5l-43 4 q-10 -2 -20 -2q-17 0 -17 10z" />
<glyph unicode="&#xe0;" d="M39 0l2 88l51 150q0 1 19 39.5t37 77.5t18 46q0 1 -1 3.5t-1 3.5q1 0 12.5 27t29.5 75t34 94q15 42 20.5 65.5t8 53t7.5 55.5q7 42 27.5 94t32.5 97q13 47 24 98q3 17 18 124.5t35 201t44 133.5q8 14 49 14q43 0 66.5 -5.5t31 -10t26.5 -29t32 -37.5q36 -40 63 -92.5 t41 -71.5q10 -15 36.5 -84.5t37.5 -109.5q7 -27 34 -81.5t44 -96.5q37 -93 55 -168q5 -23 14.5 -45t22 -48t18.5 -40q121 -276 191 -400q55 -99 55 -219q0 -10 -12 -10q-63 0 -103 2t-72 9.5t-49 17t-30 30t-19 42.5t-12 61q-5 23 -33 80t-33 71h-176q-13 4 -29.5 7.5l-33 7 t-33 6t-30.5 5t-25 4t-17 2.5l-6 1q-126 0 -153 -2l-21 -74q-6 -142 -14 -156q-6 -11 -38.5 -53.5t-35.5 -42.5zM117 2040l45 119l151 63q31 -70 37 -78q1 -2 58.5 -58.5t115 -116t62.5 -71.5q4 -10 60.5 -81.5t58.5 -87.5q2 -13 22 -40t39 -48l20 -21q-28 1 -120.5 10.5 t-120.5 9.5q-17 0 -90.5 -15t-100.5 -15q-20 0 -20 8l2 6q-15 41 -27 96q-12 53 -79 172q-25 45 -27 41q-4 -2 -25.5 25t-41.5 54zM453 481q3 -1 24.5 -6.5t43 -10.5t28.5 -5l117 24l94 95q36 -7 67 -13q-13 25 -48.5 124.5t-59.5 148.5q-5 9 -32.5 21.5t-45.5 12.5 q-17 0 -36 -15.5t-23 -25.5q-6 -14 -30 -55t-39 -81t-15 -85q0 -19 -45 -129z" />
<glyph unicode="&#xe1;" d="M39 0l2 88l51 150q0 1 19 39.5t37 77.5t18 46q0 1 -1 3.5t-1 3.5q1 0 12.5 27t29.5 75t34 94q15 42 20.5 65.5t8 53t7.5 55.5q7 42 27.5 94t32.5 97q13 47 24 98q3 17 18 124.5t35 201t44 133.5q8 14 49 14q43 0 66.5 -5.5t31 -10t26.5 -29t32 -37.5q36 -40 63 -92.5 t41 -71.5q10 -15 36.5 -84.5t37.5 -109.5q7 -27 34 -81.5t44 -96.5q37 -93 55 -168q5 -23 14.5 -45t22 -48t18.5 -40q121 -276 191 -400q55 -99 55 -219q0 -10 -12 -10q-63 0 -103 2t-72 9.5t-49 17t-30 30t-19 42.5t-12 61q-5 23 -33 80t-33 71h-176q-13 4 -29.5 7.5l-33 7 t-33 6t-30.5 5t-25 4t-17 2.5l-6 1q-126 0 -153 -2l-21 -74q-6 -142 -14 -156q-6 -11 -38.5 -53.5t-35.5 -42.5zM313 1620q78 80 82 109q2 16 58.5 87.5t60.5 81.5q5 12 62.5 71.5t115 116t58.5 58.5l36 78l152 -63l45 -119l-86 -107q-4 7 -52 -86q-46 -90 -54 -127 q-5 -24 -12 -48t-11 -36l-4 -12q2 -4 2 -6q0 -8 -21 -8q-27 0 -100 15t-90 15q-28 0 -121 -9.5t-121 -10.5zM453 481q3 -1 24.5 -6.5t43 -10.5t28.5 -5l117 24l94 95q36 -7 67 -13q-13 25 -48.5 124.5t-59.5 148.5q-5 9 -32.5 21.5t-45.5 12.5q-17 0 -36 -15.5t-23 -25.5 q-6 -14 -30 -55t-39 -81t-15 -85q0 -19 -45 -129z" />
<glyph unicode="&#xe2;" d="M2 1585v23l170 168q44 44 100.5 116t91.5 122.5t35 53.5q0 5 14 18.5t28 24.5l14 11h96l108 10l27 14l74 -6q3 -23 83.5 -117.5t106.5 -142.5q5 -8 41.5 -71.5t55.5 -100.5q15 -29 49 -66t60 -61.5t26 -28.5q0 -11 -44 -16.5t-65 -5.5h-246l-41 227l-81 82l-27 51l-74 8 l-82 -8q-4 0 -11 -1.5t-25 -6.5t-32.5 -12t-27.5 -21t-16 -32q-4 -28 -19 -53t-33 -45.5t-22 -28.5q-6 -12 -24.5 -35.5t-33.5 -40.5l-16 -17l-31 -26zM39 0l2 88l51 150q0 1 19 39.5t37 77.5t18 46q0 1 -1 3.5t-1 3.5q1 0 12.5 27t29.5 75t34 94q15 42 20.5 65.5t8 53 t7.5 55.5q7 42 27.5 94t32.5 97q13 47 24 98q3 17 18 124.5t35 201t44 133.5q8 14 49 14q43 0 66.5 -5.5t31 -10t26.5 -29t32 -37.5q36 -40 63 -92.5t41 -71.5q10 -15 36.5 -84.5t37.5 -109.5q7 -27 34 -81.5t44 -96.5q37 -93 55 -168q5 -23 14.5 -45t22 -48t18.5 -40 q121 -276 191 -400q55 -99 55 -219q0 -10 -12 -10q-63 0 -103 2t-72 9.5t-49 17t-30 30t-19 42.5t-12 61q-5 23 -33 80t-33 71h-176q-13 4 -29.5 7.5l-33 7t-33 6t-30.5 5t-25 4t-17 2.5l-6 1q-126 0 -153 -2l-21 -74q-6 -142 -14 -156q-6 -11 -38.5 -53.5t-35.5 -42.5z M453 481q3 -1 24.5 -6.5t43 -10.5t28.5 -5l117 24l94 95q36 -7 67 -13q-13 25 -48.5 124.5t-59.5 148.5q-5 9 -32.5 21.5t-45.5 12.5q-17 0 -36 -15.5t-23 -25.5q-6 -14 -30 -55t-39 -81t-15 -85q0 -19 -45 -129z" />
<glyph unicode="&#xe3;" d="M-72 1567q0 141 4 188q1 10 7.5 23t17 26t22.5 26.5t25 26t22.5 22t17.5 15.5l7 7q3 3 114 62.5t114 59.5q1 0 33 -2.5t68.5 -5t49.5 -2.5q16 0 80.5 -22.5t69.5 -22.5q9 0 99 -40.5t105 -49.5q16 -9 64.5 -47t92 -64.5t71.5 -25.5q6 13 15.5 43t17.5 51.5t14 24.5 l223 26q-4 -49 -4 -63q0 -12 -31 -109.5t-43 -118.5q-7 -12 -26 -12q-13 0 -56 11t-73 14q-36 4 -113 24t-147 41.5t-76 22.5q-26 6 -67 28t-71 54q-37 39 -92.5 90t-62.5 51q-88 0 -131 -16t-111 -84q-7 -7 -24 -38.5t-33 -58t-23 -26.5h-4v-2q0 -5 13 -34.5t27 -55.5 l13 -27zM39 0l2 88l51 150q0 1 19 39.5t37 77.5t18 46q0 1 -1 3.5t-1 3.5q1 0 12.5 27t29.5 75t34 94q15 42 20.5 65.5t8 53t7.5 55.5q7 42 27.5 94t32.5 97q13 47 24 98q3 17 18 124.5t35 201t44 133.5q8 14 49 14q43 0 66.5 -5.5t31 -10t26.5 -29t32 -37.5 q36 -40 63 -92.5t41 -71.5q10 -15 36.5 -84.5t37.5 -109.5q7 -27 34 -81.5t44 -96.5q37 -93 55 -168q5 -23 14.5 -45t22 -48t18.5 -40q121 -276 191 -400q55 -99 55 -219q0 -10 -12 -10q-63 0 -103 2t-72 9.5t-49 17t-30 30t-19 42.5t-12 61q-5 23 -33 80t-33 71h-176 q-13 4 -29.5 7.5l-33 7t-33 6t-30.5 5t-25 4t-17 2.5l-6 1q-126 0 -153 -2l-21 -74q-6 -142 -14 -156q-6 -11 -38.5 -53.5t-35.5 -42.5zM453 481q3 -1 24.5 -6.5t43 -10.5t28.5 -5l117 24l94 95q36 -7 67 -13q-13 25 -48.5 124.5t-59.5 148.5q-5 9 -32.5 21.5t-45.5 12.5 q-17 0 -36 -15.5t-23 -25.5q-6 -14 -30 -55t-39 -81t-15 -85q0 -19 -45 -129z" />
<glyph unicode="&#xe4;" d="M39 0l2 88l51 150q0 1 19 39.5t37 77.5t18 46q0 1 -1 3.5t-1 3.5q1 0 12.5 27t29.5 75t34 94q15 42 20.5 65.5t8 53t7.5 55.5q7 42 27.5 94t32.5 97q13 47 24 98q3 17 18 124.5t35 201t44 133.5q8 14 49 14q43 0 66.5 -5.5t31 -10t26.5 -29t32 -37.5q36 -40 63 -92.5 t41 -71.5q10 -15 36.5 -84.5t37.5 -109.5q7 -27 34 -81.5t44 -96.5q37 -93 55 -168q5 -23 14.5 -45t22 -48t18.5 -40q121 -276 191 -400q55 -99 55 -219q0 -10 -12 -10q-63 0 -103 2t-72 9.5t-49 17t-30 30t-19 42.5t-12 61q-5 23 -33 80t-33 71h-176q-13 4 -29.5 7.5l-33 7 t-33 6t-30.5 5t-25 4t-17 2.5l-6 1q-126 0 -153 -2l-21 -74q-6 -142 -14 -156q-6 -11 -38.5 -53.5t-35.5 -42.5zM139 1892q2 0 4 2h-2zM143 1894l140 64l135 -41q1 -17 6 -68.5t8.5 -99t3.5 -82.5q0 -4 -18 -7.5t-40.5 -6.5t-27.5 -4q-4 -2 -35 -2h-27.5h-30h-27.5t-25.5 1 t-19.5 3t-14.5 5.5t-4.5 8.5v4q-3 -4 -5 17q-2 16 -4 71q-4 130 -14 137zM453 481q3 -1 24.5 -6.5t43 -10.5t28.5 -5l117 24l94 95q36 -7 67 -13q-13 25 -48.5 124.5t-59.5 148.5q-5 9 -32.5 21.5t-45.5 12.5q-17 0 -36 -15.5t-23 -25.5q-6 -14 -30 -55t-39 -81t-15 -85 q0 -19 -45 -129zM690 1911l6 47l164 14q121 -66 123 -131q0 -55 6 -69q0 -11 -55 -51t-74 -40q-10 0 -52 -8t-79 -16l-37 -8q8 45 8 82q0 34 -2.5 98.5t-5.5 71.5q-2 2 -2 10z" />
<glyph unicode="&#xe7;" horiz-adv-x="907" d="M45 1036q0 34 18.5 166t24.5 139l96 132l107 14q344 -27 354 -27q7 0 36 -17t34 -22q2 -2 15.5 -25t27 -44t16.5 -21q4 0 7.5 -35.5t4.5 -70.5l2 -35l7 -158l-84 -10l-97 4v16q0 39 -7 83.5t-27.5 84t-49.5 39.5q-15 0 -50 -7.5t-62.5 -14.5t-28.5 -6 q-135 -150 -153 -177q-11 -15 -11 -43v-24l-2 -11q-2 -11 -5 -30t-6.5 -45t-7.5 -58.5t-7 -66.5t-5.5 -73.5t-3.5 -76.5q0 -42 29 -124.5t29 -104.5q0 -18 5.5 -36t12 -29.5t20 -34.5t21.5 -39q5 -9 10 -20t7 -13.5t5 -6.5t10 -4.5t15 -2.5t27.5 -6t40.5 -9q47 -12 76 -12 q30 0 57 31t27 65q0 2 -14.5 92t-14.5 99q0 55 21.5 104t37.5 49l12 -1q13 -1 33 -2.5t41.5 -3.5t40.5 -4t27 -3q20 -3 33.5 -92.5t13.5 -202.5q0 -57 -11 -95t-24 -54t-40 -41t-42 -45q-8 -11 -39 -11q-25 0 -76 11.5t-61 11.5q-23 0 -58.5 -14.5t-62.5 -14.5v-80 q0 -4 99.5 -9t119.5 -5q1 0 21 4.5t48 9t50 4.5q41 0 49 -18q17 -39 39.5 -129t22.5 -152q0 -49 -52 -60t-206 -11q-164 0 -178 14q-84 84 -84 107q0 5 20.5 15t55.5 19t67 11q27 2 62 28t57 52t22 32q-4 0 -142 -15t-140 -15q-3 0 -11 6t-16 18t-8 25v182q-97 64 -164 270 l-9 25q-9 25 -19 54t-21 62.5t-18 61.5t-7 41q0 22 -5 218t-5 218z" />
<glyph unicode="&#xe8;" horiz-adv-x="1038" d="M-43 2015l45 119l152 64q30 -70 36 -78q1 -2 58.5 -58.5t115 -116t62.5 -71.5q4 -10 60.5 -82t58.5 -88q2 -13 22.5 -40t40.5 -48l19 -21q-29 1 -121.5 11t-120.5 10q-17 0 -90 -15.5t-100 -15.5q-21 0 -21 8l2 6q-14 42 -26 97q-12 53 -80 172q-25 45 -27 41 q-4 -2 -25.5 24.5t-41.5 54.5zM72 1296v164l524 41h256v-151l8 -43l-67 -27l-101 -18q-113 -11 -127 -11q-2 0 -63 5.5t-86 5.5q-18 0 -20.5 -2t-2.5 -17q0 -22 7 -77l8 -56q0 -6 -6.5 -92.5t-6.5 -87.5l2 -64q22 -10 37.5 -15t52 -9t91.5 -4q82 0 198 26.5t117 26.5 q6 0 10 -20t7 -55t5 -46l3 -76q-23 -78 -27 -78l-121 -16l-129 31l-129 -35l-70 -61q50 -141 50 -224q22 -75 118 -75q90 0 152 10q137 22 145 28q10 5 15 5q4 0 10 -1l6 -2q1 0 6 1.5t8 1.5q29 0 31 -54q4 -74 4 -114q0 -6 -4 -22t-8.5 -29t-5.5 -13q0 -2 3 -6t3 -6 q0 -17 -96 -17q-12 0 -31 1t-33 1q-84 0 -182.5 -9t-155.5 -18l-57 -9l-105 16q-41 10 -45 10l-73 -6l-70 25q2 6 2 18q0 16 -14.5 72.5t-14.5 101.5v170q0 8 5.5 69.5t5.5 121.5q0 260 -5.5 378t-17 193.5t-16.5 142.5z" />
<glyph unicode="&#xe9;" horiz-adv-x="1038" d="M72 1296v164l524 41h256v-151l8 -43l-67 -27l-101 -18q-113 -11 -127 -11q-2 0 -63 5.5t-86 5.5q-18 0 -20.5 -2t-2.5 -17q0 -22 7 -77l8 -56q0 -6 -6.5 -92.5t-6.5 -87.5l2 -64q22 -10 37.5 -15t52 -9t91.5 -4q82 0 198 26.5t117 26.5q6 0 10 -20t7 -55t5 -46l3 -76 q-23 -78 -27 -78l-121 -16l-129 31l-129 -35l-70 -61q50 -141 50 -224q22 -75 118 -75q90 0 152 10q137 22 145 28q10 5 15 5q4 0 10 -1l6 -2q1 0 6 1.5t8 1.5q29 0 31 -54q4 -74 4 -114q0 -6 -4 -22t-8.5 -29t-5.5 -13q0 -2 3 -6t3 -6q0 -17 -96 -17q-12 0 -31 1t-33 1 q-84 0 -182.5 -9t-155.5 -18l-57 -9l-105 16q-41 10 -45 10l-73 -6l-70 25q2 6 2 18q0 16 -14.5 72.5t-14.5 101.5v170q0 8 5.5 69.5t5.5 121.5q0 260 -5.5 378t-17 193.5t-16.5 142.5zM168 1587q78 80 82 109q2 16 58.5 88t60.5 82q5 12 62.5 71t114.5 115.5t58 58.5l37 78 l152 -63l45 -119l-86 -106q-4 7 -52 -85q-47 -91 -55 -128l-27 -97q3 -4 3 -6q0 -8 -21 -8q-27 0 -100 15.5t-90 15.5q-28 0 -120.5 -10t-121.5 -11z" />
<glyph unicode="&#xea;" horiz-adv-x="1038" d="M-78 1612v22l170 168q44 44 100.5 116.5t91.5 123t35 53.5q0 5 14 18.5t28 24.5l14 10h96l109 11l26 14l74 -6q3 -23 83.5 -117.5t106.5 -142.5q5 -8 41.5 -71.5t55.5 -100.5q15 -29 49 -66t60 -61.5t26 -28.5q0 -11 -44.5 -17t-64.5 -6h-245l-41 228l-82 82l-27 51 l-74 8l-82 -8q-4 0 -11 -1.5t-25 -6.5t-32.5 -12.5t-27.5 -21.5t-16 -32q-4 -28 -19 -53t-33 -45.5t-22 -28.5q-6 -12 -24.5 -35t-33.5 -40l-16 -17l-30 -27zM72 1296v164l524 41h256v-151l8 -43l-67 -27l-101 -18q-113 -11 -127 -11q-2 0 -63 5.5t-86 5.5q-18 0 -20.5 -2 t-2.5 -17q0 -22 7 -77l8 -56q0 -6 -6.5 -92.5t-6.5 -87.5l2 -64q22 -10 37.5 -15t52 -9t91.5 -4q82 0 198 26.5t117 26.5q6 0 10 -20t7 -55t5 -46l3 -76q-23 -78 -27 -78l-121 -16l-129 31l-129 -35l-70 -61q50 -141 50 -224q22 -75 118 -75q90 0 152 10q137 22 145 28 q10 5 15 5q4 0 10 -1l6 -2q1 0 6 1.5t8 1.5q29 0 31 -54q4 -74 4 -114q0 -6 -4 -22t-8.5 -29t-5.5 -13q0 -2 3 -6t3 -6q0 -17 -96 -17q-12 0 -31 1t-33 1q-84 0 -182.5 -9t-155.5 -18l-57 -9l-105 16q-41 10 -45 10l-73 -6l-70 25q2 6 2 18q0 16 -14.5 72.5t-14.5 101.5v170 q0 8 5.5 69.5t5.5 121.5q0 260 -5.5 378t-17 193.5t-16.5 142.5z" />
<glyph unicode="&#xeb;" horiz-adv-x="1038" d="M72 1296v164l524 41h256v-151l8 -43l-67 -27l-101 -18q-113 -11 -127 -11q-2 0 -63 5.5t-86 5.5q-18 0 -20.5 -2t-2.5 -17q0 -22 7 -77l8 -56q0 -6 -6.5 -92.5t-6.5 -87.5l2 -64q22 -10 37.5 -15t52 -9t91.5 -4q82 0 198 26.5t117 26.5q6 0 10 -20t7 -55t5 -46l3 -76 q-23 -78 -27 -78l-121 -16l-129 31l-129 -35l-70 -61q50 -141 50 -224q22 -75 118 -75q90 0 152 10q137 22 145 28q10 5 15 5q4 0 10 -1l6 -2q1 0 6 1.5t8 1.5q29 0 31 -54q4 -74 4 -114q0 -6 -4 -22t-8.5 -29t-5.5 -13q0 -2 3 -6t3 -6q0 -17 -96 -17q-12 0 -31 1t-33 1 q-84 0 -182.5 -9t-155.5 -18l-57 -9l-105 16q-41 10 -45 10l-73 -6l-70 25q2 6 2 18q0 16 -14.5 72.5t-14.5 101.5v170q0 8 5.5 69.5t5.5 121.5q0 260 -5.5 378t-17 193.5t-16.5 142.5zM80 1847q2 0 4 2h-2zM84 1849l139 64l135 -41q1 -18 6.5 -68.5t9 -98.5t3.5 -83 q0 -4 -18 -7.5t-40.5 -6.5t-27.5 -4q-4 -2 -35 -2h-27.5h-30h-27.5t-26 1t-20 3t-14.5 5.5t-4.5 8.5v4q-3 -3 -4 8q-2 15 -4 80q-4 130 -14 137zM631 1866l6 47l164 14q121 -66 123 -131q0 -56 6 -70q0 -11 -55 -50.5t-74 -39.5q-10 0 -52 -8t-79 -16l-37 -8q8 45 8 82 q0 34 -2.5 98t-5.5 71q-2 2 -2 11z" />
<glyph unicode="&#xec;" horiz-adv-x="532" d="M-176 2071l45 118l151 64q31 -70 37 -78q1 -2 58.5 -58.5t115 -116t62.5 -71.5q4 -10 60.5 -82t58.5 -88q2 -13 22.5 -40t39.5 -47l20 -21q-28 1 -121 10.5t-121 9.5q-17 0 -90.5 -15.5t-100.5 -15.5q-20 0 -20 9l2 6q-15 41 -27 96q-12 53 -79 172q-25 45 -27 41 q-4 -2 -25.5 25t-40.5 55zM74 76v260l16 178v78q0 50 -8 226t-8 278q0 30 10.5 141.5t19.5 157.5q19 92 19 116q0 2 21.5 8t43.5 11l21 6l176 -20l78 6q10 -72 10 -97q0 -31 -5 -50.5t-11.5 -32t-11.5 -62t-5 -133.5q0 -125 -22.5 -195t-22.5 -153q0 -25 13.5 -145.5 t13.5 -176.5q0 -22 -1 -48t-1 -38q0 -3 2.5 -78t5 -147t2.5 -68q0 -2 -6 -30t-6 -29q-8 -1 -51.5 -15t-53.5 -14q-82 0 -151 12t-84 13z" />
<glyph unicode="&#xed;" horiz-adv-x="532" d="M12 1647q78 79 82 108q2 16 58.5 88t60.5 82q5 12 62.5 71.5t115 116t58.5 58.5l36 78l152 -64l45 -119l-86 -106q-4 7 -52 -85q-47 -91 -55 -128l-26 -96q2 -4 2 -6q0 -9 -21 -9q-27 0 -100 15.5t-90 15.5q-28 0 -121 -9.5t-121 -10.5zM74 76v260l16 178v78q0 50 -8 226 t-8 278q0 30 10.5 141.5t19.5 157.5q19 92 19 116q0 2 21.5 8t43.5 11l21 6l176 -20l78 6q10 -72 10 -97q0 -31 -5 -50.5t-11.5 -32t-11.5 -62t-5 -133.5q0 -125 -22.5 -195t-22.5 -153q0 -25 13.5 -145.5t13.5 -176.5q0 -22 -1 -48t-1 -38q0 -3 2.5 -78t5 -147t2.5 -68 q0 -2 -6 -30t-6 -29q-8 -1 -51.5 -15t-53.5 -14q-82 0 -151 12t-84 13z" />
<glyph unicode="&#xee;" horiz-adv-x="532" d="M-250 1647v22l170 168q44 44 100.5 116.5t91.5 123t35 53.5q0 5 14 18.5t28 23.5l14 11h96l109 10l26 15l74 -6q3 -23 83.5 -117.5t106.5 -142.5q3 -4 40 -70t57 -103q15 -29 49 -65.5t60 -61t26 -28.5q0 -11 -44.5 -17t-64.5 -6h-246l-40 228l-82 82l-27 51l-74 8 l-82 -8q-4 0 -11 -1.5t-25 -6.5t-32.5 -12.5t-27.5 -21.5t-16 -32q-4 -28 -19 -53t-33 -45.5t-22 -28.5q-6 -12 -24.5 -35t-33.5 -40l-16 -17l-30 -27zM74 76v260l16 178v78q0 50 -8 226t-8 278q0 30 10.5 141.5t19.5 157.5q19 92 19 116q0 2 21.5 8t43.5 11l21 6l176 -20 l78 6q10 -72 10 -97q0 -31 -5 -50.5t-11.5 -32t-11.5 -62t-5 -133.5q0 -125 -22.5 -195t-22.5 -153q0 -25 13.5 -145.5t13.5 -176.5q0 -22 -1 -48t-1 -38q0 -3 2.5 -78t5 -147t2.5 -68q0 -2 -6 -30t-6 -29q-8 -1 -51.5 -15t-53.5 -14q-82 0 -151 12t-84 13z" />
<glyph unicode="&#xef;" horiz-adv-x="532" d="M-133 1915q2 0 4 2h-2zM-129 1917l139 63l135 -41q1 -18 6.5 -68.5t9 -98t3.5 -82.5q0 -4 -18 -7.5t-40.5 -7t-27.5 -4.5q-4 -2 -35 -2h-21.5h-22.5h-22t-22 0.5t-19.5 1t-17 2t-12.5 3.5t-9 5t-3 7v4q-3 -4 -5 17q-2 16 -4 71q-4 130 -14 137zM74 76v260l16 178v78 q0 50 -8 226t-8 278q0 30 10.5 141.5t19.5 157.5q19 92 19 116q0 2 21.5 8t43.5 11l21 6l176 -20l78 6q10 -72 10 -97q0 -31 -5 -50.5t-11.5 -32t-11.5 -62t-5 -133.5q0 -125 -22.5 -195t-22.5 -153q0 -25 13.5 -145.5t13.5 -176.5q0 -22 -1 -48t-1 -38q0 -3 2.5 -78t5 -147 t2.5 -68q0 -2 -6 -30t-6 -29q-8 -1 -51.5 -15t-53.5 -14q-82 0 -151 12t-84 13zM418 1933l6 47l164 15q121 -66 123 -131q0 -56 6 -70q0 -11 -55 -50.5t-74 -39.5q-10 0 -52 -8t-79 -16l-37 -9q8 45 8 82q0 34 -2.5 98.5t-5.5 71.5q-2 2 -2 10z" />
<glyph unicode="&#xf1;" horiz-adv-x="1488" d="M61 16q0 11 5 38l4 26q0 2 14 21t14 20q0 2 41.5 27.5t44.5 25.5q2 0 11.5 13t20.5 27.5t13 16.5t2 23q0 12 -1 41.5t-2.5 82.5t-2.5 111q-1 68 -6 106t-10 46.5t-11.5 16t-9.5 18.5q-7 26 -10 145q-1 38 -10.5 75t-9.5 54q0 98 -11.5 285.5t-11.5 247.5q0 19 7 23.5 t34 4.5h27q46 0 114 -5t68 -17v-2q56 -37 64 -51q4 -7 47 -44t47 -42q17 -25 26.5 -57t14.5 -42q26 -9 68 -41.5t42 -42.5l11 -12q19 -44 46.5 -79t48.5 -55t44 -58.5t37 -92.5q7 -28 37.5 -112t46.5 -107q11 -16 41.5 -26t51.5 -12.5t32 -2.5q15 0 32 108.5t17 158.5 q0 99 -11 163q-3 19 -30 74t-29 66q-2 13 -38 98t-36 92q0 6 -16.5 35.5t-32.5 55.5l-16 26l229 53q166 -8 170 -8q2 0 15.5 -6t28 -12t16.5 -7v-2q0 -2 6.5 -18t13 -40t6.5 -46q0 -3 -8.5 -26.5t-17.5 -67t-11 -93.5q-1 -31 -18 -163.5t-17 -309.5q0 -34 5.5 -58t5.5 -36 q0 -8 -1 -55t-1 -76q0 -36 9 -143t9 -164v-12q-6 -38 -6 -146q0 -34 -13.5 -42.5t-52.5 -8.5l-158 6h-1q-29 0 -56 53q-20 36 -53 80.5t-53.5 72.5t-20.5 38q0 1 5 6q-12 20 -15.5 26t-8 15t-10 21t-26.5 52.5t-53 100.5q-39 75 -56 97t-18 24q-33 65 -51 123 q-3 11 -39.5 59.5t-38.5 54.5q-3 9 -34 30.5t-36 21.5q-9 0 -57.5 -14t-54.5 -25q-51 -90 -51 -180q0 -4 1 -11t1 -10l-6 -94q0 -25 4 -112t4 -159q0 -19 -2 -51t-2 -43q0 -40 9 -100.5t9 -71.5q0 -2 -32.5 -8t-65.5 -11l-33 -5l-33 2q-33 2 -62.5 4.5t-65 6.5t-56.5 8.5 t-21 8.5zM96 1589q0 142 4 189q1 10 7.5 22.5t17 26t22.5 27t25 26t22.5 21.5t17.5 15l7 7q3 3 113.5 63t113.5 60q1 0 33 -2.5t69 -5t50 -2.5q16 0 80.5 -22.5t69.5 -22.5q9 0 99 -40.5t105 -49.5q16 -9 64.5 -47.5t92 -65t71.5 -25.5q6 13 15.5 43t17.5 51.5t14 24.5 l223 27q-4 -50 -4 -64q0 -12 -31 -109t-43 -118q-7 -12 -26 -12q-13 0 -56 10.5t-73 13.5q-36 4 -113 24t-147 41.5t-76 22.5q-26 6 -67 28t-71 54q-38 40 -93 91t-62 51q-88 0 -131 -16.5t-111 -84.5q-7 -7 -24 -38.5t-33 -58t-23 -26.5h-4v-2q0 -5 13 -34.5t27 -55.5 l13 -27z" />
<glyph unicode="&#xf2;" horiz-adv-x="1095" d="M-6 2040l45 119l151 63q31 -70 37 -78q1 -2 58.5 -58.5t115 -116t62.5 -71.5q4 -10 60.5 -81.5t58.5 -87.5q2 -13 22.5 -40t39.5 -48l20 -21q-28 1 -121 10.5t-121 9.5q-17 0 -90.5 -15t-100.5 -15q-20 0 -20 8l2 6q-15 41 -27 96q-12 53 -79 172q-25 45 -27 41 q-4 -2 -25.5 25t-40.5 54zM53 510l13 6q-3 24 -3 39q0 17 5.5 52.5t5.5 74.5q0 15 11 50t11 54q0 91 2 189q1 69 16 142t28.5 111.5t39.5 106.5q12 31 70 74t65 51q18 21 84.5 46t67.5 26q5 4 46 6t85 2.5t49 1.5q7 0 40.5 -5.5t64 -11.5t30.5 -7q78 -68 80 -86q1 -6 15 -40 t31 -81t24 -84q8 -40 36 -119t29 -107q1 -26 20 -117t19 -149q0 -35 -5 -84.5t-5 -58.5q0 -31 -24 -126t-52 -157q-41 -91 -61.5 -148.5t-28 -94.5t-10.5 -46q-209 -24 -229 -24q-13 0 -82 8.5t-84 11.5q-50 9 -87.5 34.5t-93.5 84.5q-24 26 -65.5 85t-77.5 91 q-10 9 -39.5 85.5t-27.5 86.5q0 4 -3 10.5t-7 11.5zM223 567l80 -75q2 -3 9.5 -11.5t13 -15.5t6.5 -10l12 -25q0 -1 8 -16.5t15.5 -36.5t7.5 -35q0 -6 -1 -17t-1 -14q0 -9 33.5 -47.5t83 -76t83.5 -37.5q12 0 23.5 3.5t24.5 9t18 7.5q10 3 67.5 81.5t57.5 94.5h-2 q5 7 21 68.5t16 81.5v24q8 80 8 129q0 55 -39 283q-4 24 -19 66t-26 94q-4 20 -8 33.5t-7 19.5t-5.5 9.5t-4.5 4t-4 0.5t-3.5 1.5t-2.5 6.5q-8 30 -35 68q-1 0 -25.5 15.5t-55.5 31.5t-46 16q-3 0 -7.5 -5t-18 -13t-37.5 -14q-36 -9 -50 -24.5t-20.5 -48.5t-13.5 -48 q-43 -98 -43 -168q0 -9 1 -38.5t1 -53.5v-39l-2 2q-2 -10 -24 -62.5t-25 -70.5q-5 -21 -14 -44t-11 -34q-3 -19 -39 -70z" />
<glyph unicode="&#xf3;" horiz-adv-x="1095" d="M53 510l13 6q-3 24 -3 39q0 17 5.5 52.5t5.5 74.5q0 15 11 50t11 54q0 91 2 189q1 69 16 142t28.5 111.5t39.5 106.5q12 31 70 74t65 51q18 21 84.5 46t67.5 26q5 4 46 6t85 2.5t49 1.5q7 0 40.5 -5.5t64 -11.5t30.5 -7q78 -68 80 -86q1 -6 15 -40t31 -81t24 -84 q8 -40 36 -119t29 -107q1 -26 20 -117t19 -149q0 -35 -5 -84.5t-5 -58.5q0 -31 -24 -126t-52 -157q-41 -91 -61.5 -148.5t-28 -94.5t-10.5 -46q-209 -24 -229 -24q-13 0 -82 8.5t-84 11.5q-50 9 -87.5 34.5t-93.5 84.5q-24 26 -65.5 85t-77.5 91q-10 9 -39.5 85.5 t-27.5 86.5q0 4 -3 10.5t-7 11.5zM223 567l80 -75q2 -3 9.5 -11.5t13 -15.5t6.5 -10l12 -25q0 -1 8 -16.5t15.5 -36.5t7.5 -35q0 -6 -1 -17t-1 -14q0 -9 33.5 -47.5t83 -76t83.5 -37.5q12 0 23.5 3.5t24.5 9t18 7.5q10 3 67.5 81.5t57.5 94.5h-2q5 7 21 68.5t16 81.5v24 q8 80 8 129q0 55 -39 283q-4 24 -19 66t-26 94q-4 20 -8 33.5t-7 19.5t-5.5 9.5t-4.5 4t-4 0.5t-3.5 1.5t-2.5 6.5q-8 30 -35 68q-1 0 -25.5 15.5t-55.5 31.5t-46 16q-3 0 -7.5 -5t-18 -13t-37.5 -14q-36 -9 -50 -24.5t-20.5 -48.5t-13.5 -48q-43 -98 -43 -168q0 -9 1 -38.5 t1 -53.5v-39l-2 2q-2 -10 -24 -62.5t-25 -70.5q-5 -21 -14 -44t-11 -34q-3 -19 -39 -70zM326 1626q78 80 82 109q2 16 58 88t60 82q5 12 62.5 71t115 115.5t58.5 58.5l37 78l151 -63l45 -119l-86 -107q-4 7 -52 -86q-46 -90 -54 -127q-5 -24 -12 -48t-11 -36l-4 -12 q2 -4 2 -6q0 -8 -20 -8q-27 0 -100.5 15.5t-90.5 15.5q-28 0 -120 -10t-121 -11z" />
<glyph unicode="&#xf4;" horiz-adv-x="1095" d="M-4 1663v23l170 167q44 44 100.5 116.5t91.5 123t35 53.5q0 5 14 18.5t28 24.5l14 11h96l108 10l27 14l74 -6q3 -23 83.5 -117.5t106.5 -142.5q8 -15 27 -48t36.5 -64.5t32.5 -59.5q15 -29 49.5 -66t60.5 -61.5t26 -28.5q0 -11 -44 -16.5t-65 -5.5h-246l-41 227l-82 82 l-26 51l-74 8l-82 -8q-4 0 -11 -1.5t-25.5 -6.5t-33 -12.5t-27.5 -21.5t-16 -32q-4 -28 -19 -53t-32.5 -45.5t-21.5 -28.5q-6 -12 -24.5 -35t-33.5 -40l-16 -17l-31 -26zM53 510l13 6q-3 24 -3 39q0 17 5.5 52.5t5.5 74.5q0 15 11 50t11 54q0 91 2 189q1 69 16 142 t28.5 111.5t39.5 106.5q12 31 70 74t65 51q18 21 84.5 46t67.5 26q5 4 46 6t85 2.5t49 1.5q7 0 40.5 -5.5t64 -11.5t30.5 -7q78 -68 80 -86q1 -6 15 -40t31 -81t24 -84q8 -40 36 -119t29 -107q1 -26 20 -117t19 -149q0 -35 -5 -84.5t-5 -58.5q0 -31 -24 -126t-52 -157 q-41 -91 -61.5 -148.5t-28 -94.5t-10.5 -46q-209 -24 -229 -24q-13 0 -82 8.5t-84 11.5q-50 9 -87.5 34.5t-93.5 84.5q-24 26 -65.5 85t-77.5 91q-10 9 -39.5 85.5t-27.5 86.5q0 4 -3 10.5t-7 11.5zM223 567l80 -75q2 -3 9.5 -11.5t13 -15.5t6.5 -10l12 -25q0 -1 8 -16.5 t15.5 -36.5t7.5 -35q0 -6 -1 -17t-1 -14q0 -9 33.5 -47.5t83 -76t83.5 -37.5q12 0 23.5 3.5t24.5 9t18 7.5q10 3 67.5 81.5t57.5 94.5h-2q5 7 21 68.5t16 81.5v24q8 80 8 129q0 55 -39 283q-4 24 -19 66t-26 94q-4 20 -8 33.5t-7 19.5t-5.5 9.5t-4.5 4t-4 0.5t-3.5 1.5 t-2.5 6.5q-8 30 -35 68q-1 0 -25.5 15.5t-55.5 31.5t-46 16q-3 0 -7.5 -5t-18 -13t-37.5 -14q-36 -9 -50 -24.5t-20.5 -48.5t-13.5 -48q-43 -98 -43 -168q0 -9 1 -38.5t1 -53.5v-39l-2 2q-2 -10 -24 -62.5t-25 -70.5q-5 -21 -14 -44t-11 -34q-3 -19 -39 -70z" />
<glyph unicode="&#xf5;" horiz-adv-x="1095" d="M-84 1587q0 142 4 189q1 10 7.5 22.5t17 26t22.5 27t25 26t22.5 21.5t17.5 15l7 7q3 3 113.5 63t113.5 60q1 0 33 -2.5t69 -5t50 -2.5q16 0 80 -22.5t69 -22.5q9 0 99 -41t106 -50t64.5 -47t91.5 -64.5t71 -25.5q6 13 15.5 43t18 51t14.5 25l223 27q-4 -50 -4 -64 q0 -12 -31 -109t-43 -118q-7 -12 -27 -12q-13 0 -56 10.5t-73 13.5q-36 4 -113 24t-147 41.5t-76 22.5q-25 6 -66 28t-71 54q-37 39 -92.5 90t-62.5 51q-88 0 -131 -16t-111 -84q-7 -7 -24 -38.5t-33 -58t-23 -26.5h-4v-2q0 -5 13 -34.5t27 -55.5l13 -27zM53 510l13 6 q-3 24 -3 39q0 17 5.5 52.5t5.5 74.5q0 15 11 50t11 54q0 91 2 189q1 69 16 142t28.5 111.5t39.5 106.5q12 31 70 74t65 51q18 21 84.5 46t67.5 26q5 4 46 6t85 2.5t49 1.5q7 0 40.5 -5.5t64 -11.5t30.5 -7q78 -68 80 -86q1 -6 15 -40t31 -81t24 -84q8 -40 36 -119t29 -107 q1 -26 20 -117t19 -149q0 -35 -5 -84.5t-5 -58.5q0 -31 -24 -126t-52 -157q-41 -91 -61.5 -148.5t-28 -94.5t-10.5 -46q-209 -24 -229 -24q-13 0 -82 8.5t-84 11.5q-50 9 -87.5 34.5t-93.5 84.5q-24 26 -65.5 85t-77.5 91q-10 9 -39.5 85.5t-27.5 86.5q0 4 -3 10.5t-7 11.5z M223 567l80 -75q2 -3 9.5 -11.5t13 -15.5t6.5 -10l12 -25q0 -1 8 -16.5t15.5 -36.5t7.5 -35q0 -6 -1 -17t-1 -14q0 -9 33.5 -47.5t83 -76t83.5 -37.5q12 0 23.5 3.5t24.5 9t18 7.5q10 3 67.5 81.5t57.5 94.5h-2q5 7 21 68.5t16 81.5v24q8 80 8 129q0 55 -39 283 q-4 24 -19 66t-26 94q-4 20 -8 33.5t-7 19.5t-5.5 9.5t-4.5 4t-4 0.5t-3.5 1.5t-2.5 6.5q-8 30 -35 68q-1 0 -25.5 15.5t-55.5 31.5t-46 16q-3 0 -7.5 -5t-18 -13t-37.5 -14q-36 -9 -50 -24.5t-20.5 -48.5t-13.5 -48q-43 -98 -43 -168q0 -9 1 -38.5t1 -53.5v-39l-2 2 q-2 -10 -24 -62.5t-25 -70.5q-5 -21 -14 -44t-11 -34q-3 -19 -39 -70z" />
<glyph unicode="&#xf6;" horiz-adv-x="1095" d="M53 510l13 6q-3 24 -3 39q0 17 5.5 52.5t5.5 74.5q0 15 11 50t11 54q0 91 2 189q1 69 16 142t28.5 111.5t39.5 106.5q12 31 70 74t65 51q18 21 84.5 46t67.5 26q5 4 46 6t85 2.5t49 1.5q7 0 40.5 -5.5t64 -11.5t30.5 -7q78 -68 80 -86q1 -6 15 -40t31 -81t24 -84 q8 -40 36 -119t29 -107q1 -26 20 -117t19 -149q0 -35 -5 -84.5t-5 -58.5q0 -31 -24 -126t-52 -157q-41 -91 -61.5 -148.5t-28 -94.5t-10.5 -46q-209 -24 -229 -24q-13 0 -82 8.5t-84 11.5q-50 9 -87.5 34.5t-93.5 84.5q-24 26 -65.5 85t-77.5 91q-10 9 -39.5 85.5 t-27.5 86.5q0 4 -3 10.5t-7 11.5zM160 1931q2 0 4 2h-2zM164 1933l139 64l135 -41q1 -18 6.5 -68.5t9 -98.5t3.5 -83q0 -4 -18 -7.5t-40.5 -6.5t-27.5 -4q-4 -2 -35 -2h-27.5h-30h-27.5t-26 1t-20 3t-14.5 5.5t-4.5 8.5v4q-3 -3 -4 8q-2 15 -4 80q-4 130 -14 137zM223 567 l80 -75q2 -3 9.5 -11.5t13 -15.5t6.5 -10l12 -25q0 -1 8 -16.5t15.5 -36.5t7.5 -35q0 -6 -1 -17t-1 -14q0 -9 33.5 -47.5t83 -76t83.5 -37.5q12 0 23.5 3.5t24.5 9t18 7.5q10 3 67.5 81.5t57.5 94.5h-2q5 7 21 68.5t16 81.5v24q8 80 8 129q0 55 -39 283q-4 24 -19 66t-26 94 q-4 20 -8 33.5t-7 19.5t-5.5 9.5t-4.5 4t-4 0.5t-3.5 1.5t-2.5 6.5q-8 30 -35 68q-1 0 -25.5 15.5t-55.5 31.5t-46 16q-3 0 -7.5 -5t-18 -13t-37.5 -14q-36 -9 -50 -24.5t-20.5 -48.5t-13.5 -48q-43 -98 -43 -168q0 -9 1 -38.5t1 -53.5v-39l-2 2q-2 -10 -24 -62.5t-25 -70.5 q-5 -21 -14 -44t-11 -34q-3 -19 -39 -70zM711 1950l6 47l164 14q121 -66 123 -131q0 -56 6 -70q0 -11 -55 -50.5t-74 -39.5q-10 0 -52 -8t-79 -16l-37 -8q8 44 8 81q0 34 -2.5 98.5t-5.5 71.5q-2 2 -2 11z" />
<glyph unicode="&#xf7;" horiz-adv-x="1396" d="M8 621l105 -160q323 18 329 18q1 0 42 -3.5t90.5 -7t72.5 -3.5q83 0 177.5 -3t171 -6.5t139.5 -7.5t101 -7l38 -3q36 0 67 18t31 60q0 8 -8 44.5t-16 69.5l-9 32q-15 3 -58.5 -6t-122 -20t-161.5 -11q-150 0 -335.5 4t-278.5 4q-4 0 -70 -3.5t-148 -7.5t-122 -4 q-32 0 -35 3zM543 915l12 101l242 51l104 -41l10 -96v-123q-45 -1 -124.5 2.5t-145.5 7.5t-72 4q4 23 4 31q0 4 -7.5 19.5t-15.5 29.5zM623 219q0 6 7 18.5t14 21.5l7 9l197 19q51 6 74 6q8 0 27 -45.5t30 -83.5l10 -109q-99 -18 -315 -18q-31 0 -31 10l4 8q-10 154 -22 160 q-2 0 -2 4z" />
<glyph unicode="&#xf9;" horiz-adv-x="1261" d="M72 798v40v34q0 76 14 212t28.5 238.5t14.5 96.5q0 -1 -2 24.5t-4 50.5l-2 26h74l24 -31v-57q9 -2 60.5 -4t94 -6.5t42.5 -12.5q0 -89 -15.5 -239.5t-15.5 -165.5q0 -72 3 -132t10 -109t11.5 -75.5t14.5 -68.5t12 -52q51 -178 51 -235v-14.5t-0.5 -10.5t-0.5 -7.5v-5 t-0.5 -2.5t-0.5 -2v-1q0 -17 17.5 -22t56.5 -5h33q10 0 67 -5t82 -5q47 0 98.5 69.5t84 163t32.5 164.5q0 21 -2 40.5t-8.5 47.5t-11 44.5t-17 60.5t-18.5 67q-23 80 -64.5 275.5t-41.5 214.5l2 2l2 -6q4 -2 16 -2q37 0 143 36.5t148 36.5q5 0 14 -8t21 -25t22.5 -39.5 t17.5 -56t7 -69.5q0 -18 -5 -70t-5 -84q0 -4 5 -52.5t5 -111.5q0 -15 -2 -49.5t-2 -75.5q0 -43 1 -101.5t1 -72.5q0 -46 -6 -145q-1 -15 -2.5 -80t-3.5 -132.5t-6 -138t-11 -115t-16 -44.5l-6 1q-6 1 -16.5 2t-22.5 1q-44 0 -153.5 -7t-235.5 -7q-1 0 -50 5t-84 5 q-9 0 -27 -2t-26 -2q-62 0 -153.5 36.5t-118.5 96.5q-2 5 -17 27.5t-33.5 68.5t-43.5 131q-14 48 -26 91.5t-20 83t-14 68t-9.5 63.5t-6 51.5t-3.5 49t-1 39.5zM113 2015l45 119l151 64q31 -70 37 -78q1 -2 58.5 -58.5t115 -116t62.5 -71.5q4 -10 60 -82t58 -88 q2 -13 22.5 -40t39.5 -48l20 -21q-29 1 -121 11t-120 10q-17 0 -90.5 -15.5t-100.5 -15.5q-20 0 -20 8l2 6q-15 42 -27 97q-12 53 -79 172q-25 45 -27 41q-4 -2 -25.5 24.5t-41.5 54.5z" />
<glyph unicode="&#xfa;" horiz-adv-x="1261" d="M72 798v40v34q0 76 14 212t28.5 238.5t14.5 96.5q0 -1 -2 24.5t-4 50.5l-2 26h74l24 -31v-57q9 -2 60.5 -4t94 -6.5t42.5 -12.5q0 -89 -15.5 -239.5t-15.5 -165.5q0 -72 3 -132t10 -109t11.5 -75.5t14.5 -68.5t12 -52q51 -178 51 -235v-14.5t-0.5 -10.5t-0.5 -7.5v-5 t-0.5 -2.5t-0.5 -2v-1q0 -17 17.5 -22t56.5 -5h33q10 0 67 -5t82 -5q47 0 98.5 69.5t84 163t32.5 164.5q0 21 -2 40.5t-8.5 47.5t-11 44.5t-17 60.5t-18.5 67q-23 80 -64.5 275.5t-41.5 214.5l2 2l2 -6q4 -2 16 -2q37 0 143 36.5t148 36.5q5 0 14 -8t21 -25t22.5 -39.5 t17.5 -56t7 -69.5q0 -18 -5 -70t-5 -84q0 -4 5 -52.5t5 -111.5q0 -15 -2 -49.5t-2 -75.5q0 -43 1 -101.5t1 -72.5q0 -46 -6 -145q-1 -15 -2.5 -80t-3.5 -132.5t-6 -138t-11 -115t-16 -44.5l-6 1q-6 1 -16.5 2t-22.5 1q-44 0 -153.5 -7t-235.5 -7q-1 0 -50 5t-84 5 q-9 0 -27 -2t-26 -2q-62 0 -153.5 36.5t-118.5 96.5q-2 5 -17 27.5t-33.5 68.5t-43.5 131q-14 48 -26 91.5t-20 83t-14 68t-9.5 63.5t-6 51.5t-3.5 49t-1 39.5zM393 1595q78 80 82 109q2 16 58.5 88t60.5 82q5 12 62.5 71.5t114.5 116t58 58.5l37 78l152 -64l45 -119 l-86 -106q-4 7 -52 -85q-47 -91 -55 -128l-26 -97q2 -4 2 -6q0 -8 -21 -8q-27 0 -100 15.5t-90 15.5q-28 0 -120.5 -10t-121.5 -11z" />
<glyph unicode="&#xfb;" horiz-adv-x="1261" d="M72 798v40v34q0 76 14 212t28.5 238.5t14.5 96.5q0 -1 -2 24.5t-4 50.5l-2 26h74l24 -31v-57q9 -2 60.5 -4t94 -6.5t42.5 -12.5q0 -89 -15.5 -239.5t-15.5 -165.5q0 -72 3 -132t10 -109t11.5 -75.5t14.5 -68.5t12 -52q51 -178 51 -235v-14.5t-0.5 -10.5t-0.5 -7.5v-5 t-0.5 -2.5t-0.5 -2v-1q0 -17 17.5 -22t56.5 -5h33q10 0 67 -5t82 -5q47 0 98.5 69.5t84 163t32.5 164.5q0 21 -2 40.5t-8.5 47.5t-11 44.5t-17 60.5t-18.5 67q-23 80 -64.5 275.5t-41.5 214.5l2 2l2 -6q4 -2 16 -2q37 0 143 36.5t148 36.5q5 0 14 -8t21 -25t22.5 -39.5 t17.5 -56t7 -69.5q0 -18 -5 -70t-5 -84q0 -4 5 -52.5t5 -111.5q0 -15 -2 -49.5t-2 -75.5q0 -43 1 -101.5t1 -72.5q0 -46 -6 -145q-1 -15 -2.5 -80t-3.5 -132.5t-6 -138t-11 -115t-16 -44.5l-6 1q-6 1 -16.5 2t-22.5 1q-44 0 -153.5 -7t-235.5 -7q-1 0 -50 5t-84 5 q-9 0 -27 -2t-26 -2q-62 0 -153.5 36.5t-118.5 96.5q-2 5 -17 27.5t-33.5 68.5t-43.5 131q-14 48 -26 91.5t-20 83t-14 68t-9.5 63.5t-6 51.5t-3.5 49t-1 39.5zM74 1653v22l170 168q44 44 100.5 116.5t91.5 123t35 53.5q0 5 13.5 18.5t27.5 23.5l14 11h97l108 11l27 14 l73 -6q3 -23 84 -117.5t107 -142.5q8 -15 27 -48t36.5 -64.5t32.5 -59.5q15 -29 49 -66t60 -61.5t26 -28.5q0 -11 -44 -17t-64 -6h-246l-41 228l-82 82l-26 51l-74 8l-82 -8q-4 0 -11 -1.5t-25.5 -6.5t-33 -12.5t-27.5 -21.5t-16 -32q-4 -28 -19 -53t-32.5 -45.5 t-21.5 -28.5q-6 -12 -24.5 -35t-33.5 -40l-16 -17l-31 -27z" />
<glyph unicode="&#xfc;" horiz-adv-x="1261" d="M72 798v40v34q0 76 14 212t28.5 238.5t14.5 96.5q0 -1 -2 24.5t-4 50.5l-2 26h74l24 -31v-57q9 -2 60.5 -4t94 -6.5t42.5 -12.5q0 -89 -15.5 -239.5t-15.5 -165.5q0 -72 3 -132t10 -109t11.5 -75.5t14.5 -68.5t12 -52q51 -178 51 -235v-14.5t-0.5 -10.5t-0.5 -7.5v-5 t-0.5 -2.5t-0.5 -2v-1q0 -17 17.5 -22t56.5 -5h33q10 0 67 -5t82 -5q47 0 98.5 69.5t84 163t32.5 164.5q0 21 -2 40.5t-8.5 47.5t-11 44.5t-17 60.5t-18.5 67q-23 80 -64.5 275.5t-41.5 214.5l2 2l2 -6q4 -2 16 -2q37 0 143 36.5t148 36.5q5 0 14 -8t21 -25t22.5 -39.5 t17.5 -56t7 -69.5q0 -18 -5 -70t-5 -84q0 -4 5 -52.5t5 -111.5q0 -15 -2 -49.5t-2 -75.5q0 -43 1 -101.5t1 -72.5q0 -46 -6 -145q-1 -15 -2.5 -80t-3.5 -132.5t-6 -138t-11 -115t-16 -44.5l-6 1q-6 1 -16.5 2t-22.5 1q-44 0 -153.5 -7t-235.5 -7q-1 0 -50 5t-84 5 q-9 0 -27 -2t-26 -2q-62 0 -153.5 36.5t-118.5 96.5q-2 5 -17 27.5t-33.5 68.5t-43.5 131q-14 48 -26 91.5t-20 83t-14 68t-9.5 63.5t-6 51.5t-3.5 49t-1 39.5zM201 1829q2 0 4 2h-2zM205 1831l139 63l135 -41q1 -18 6.5 -68.5t9 -98t3.5 -82.5q0 -4 -18 -7.5t-40.5 -7 t-27.5 -4.5q-4 -2 -35 -2h-21.5h-23h-22.5t-22 0.5t-19 1t-17 2t-13 3.5t-9 5t-3 7v4q-3 -3 -4 8q-2 15 -4 80q-4 130 -14 137zM752 1847l6 47l164 15q120 -65 122 -131q1 -56 7 -70q0 -11 -55 -50.5t-74 -39.5q-10 0 -52 -8t-79 -16l-37 -9q8 45 8 82q0 34 -2.5 98.5 t-5.5 71.5q-2 2 -2 10z" />
<glyph unicode="&#xfd;" horiz-adv-x="1521" d="M29 1458l34 8q23 0 64 2t73 4l31 1h66q5 2 23 -26t38 -71t27 -76q4 -17 31.5 -66.5t36.5 -90.5q39 -177 110 -328q19 -42 19 -74v-20q0 -9 7.5 -11.5t37.5 -2.5q26 0 64 1t50 1q13 0 72 -7.5t88 -7.5q14 0 31 16t35.5 47.5t33.5 91.5t21 136q2 29 20.5 78t22.5 67 q5 23 7 86.5t7 77.5q16 41 20.5 84.5t4.5 63.5t16 33.5t56 13.5q3 0 13.5 -1t20.5 -1q87 0 165.5 6t97.5 6q14 -33 14 -76q0 -20 -2 -30q-4 -23 -43.5 -136t-40.5 -143q-2 -59 -94 -293q-16 -41 -56 -97.5t-45 -72.5q-3 -11 -10.5 -23t-20.5 -29.5t-24.5 -31t-34 -40 t-37.5 -44.5q-29 -35 -62.5 -59.5t-52 -36t-20.5 -22.5q-2 -6 -16 -43.5t-25.5 -75t-11.5 -56.5q0 -6 4 -22q12 -47 12 -137q0 -4 -17 -10t-20 -17q-3 -9 -28 -12.5t-59.5 -4.5t-45.5 -3q-7 -1 -17 -4t-13 -3q-19 0 -32 28.5t-18 72.5t-6.5 73t-1.5 54q0 53 6.5 127t6.5 84 q0 84 -56 84q-45 0 -79.5 5t-51 10.5t-52.5 19.5t-58 22q-8 3 -22 7t-21 6.5t-17.5 7t-15.5 9.5t-10.5 12.5t-8 18t-2.5 23.5q0 7 2 55.5t2 69.5q0 34 -2 68.5t-2 37.5q0 66 -21 141.5t-42 124.5t-21 52q0 2 -10 18t-27.5 44.5t-29.5 52.5q-4 9 -21.5 30.5t-33 39 t-15.5 18.5zM530 1618q78 79 82 108q2 16 58.5 88t60.5 82q5 12 62.5 71.5t115 116t58.5 58.5l37 78l151 -63l45 -119l-86 -107q-4 7 -52 -86q-46 -90 -54 -127q-5 -24 -12 -48t-11 -36l-4 -12q2 -4 2 -6q0 -8 -20 -8q-27 0 -100.5 15t-90.5 15q-28 0 -121 -9.5t-121 -10.5z " />
<glyph unicode="&#xff;" horiz-adv-x="1521" d="M29 1458l34 8q23 0 64 2t73 4l31 1h66q5 2 23 -26t38 -71t27 -76q4 -17 31.5 -66.5t36.5 -90.5q39 -177 110 -328q19 -42 19 -74v-20q0 -9 7.5 -11.5t37.5 -2.5q26 0 64 1t50 1q13 0 72 -7.5t88 -7.5q14 0 31 16t35.5 47.5t33.5 91.5t21 136q2 29 20.5 78t22.5 67 q5 23 7 86.5t7 77.5q16 41 20.5 84.5t4.5 63.5t16 33.5t56 13.5q3 0 13.5 -1t20.5 -1q87 0 165.5 6t97.5 6q14 -33 14 -76q0 -20 -2 -30q-4 -23 -43.5 -136t-40.5 -143q-2 -59 -94 -293q-16 -41 -56 -97.5t-45 -72.5q-3 -11 -10.5 -23t-20.5 -29.5t-24.5 -31t-34 -40 t-37.5 -44.5q-29 -35 -62.5 -59.5t-52 -36t-20.5 -22.5q-2 -6 -16 -43.5t-25.5 -75t-11.5 -56.5q0 -6 4 -22q12 -47 12 -137q0 -4 -17 -10t-20 -17q-3 -9 -28 -12.5t-59.5 -4.5t-45.5 -3q-7 -1 -17 -4t-13 -3q-19 0 -32 28.5t-18 72.5t-6.5 73t-1.5 54q0 53 6.5 127t6.5 84 q0 84 -56 84q-45 0 -79.5 5t-51 10.5t-52.5 19.5t-58 22q-8 3 -22 7t-21 6.5t-17.5 7t-15.5 9.5t-10.5 12.5t-8 18t-2.5 23.5q0 7 2 55.5t2 69.5q0 34 -2 68.5t-2 37.5q0 66 -21 141.5t-42 124.5t-21 52q0 2 -10 18t-27.5 44.5t-29.5 52.5q-4 9 -21.5 30.5t-33 39 t-15.5 18.5zM358 1909q2 0 4 2h-2zM362 1911l140 63l135 -41q1 -17 6 -68.5t8.5 -99t3.5 -82.5q0 -4 -18 -7.5t-40.5 -6.5t-27.5 -4q-4 -2 -34 -2h-27.5h-30h-27.5t-26 1t-20 3t-14.5 5.5t-4.5 8.5v5q-3 -4 -5 17q-2 16 -4 71q-4 130 -14 137zM909 1927l6 47l164 15 q121 -66 123 -131q0 -56 6 -70q0 -11 -55 -50.5t-74 -39.5q-10 0 -52 -8t-79 -16l-37 -9q9 45 9 82q0 32 -3 97.5t-6 72.5q-2 2 -2 10z" />
<glyph unicode="&#x2c6;" horiz-adv-x="1249" d="M31 1491v22l170 168q44 44 100.5 116.5t91.5 123t35 53.5q0 5 14 18.5t28 24.5l13 11h97l108 10l27 14l73 -6q3 -23 84 -117.5t107 -142.5q8 -15 27 -48t36.5 -64.5t32.5 -59.5q15 -29 49 -66t60 -61.5t26 -28.5q0 -11 -43.5 -16.5t-64.5 -5.5h-246l-41 227l-82 82 l-26 51l-74 8l-82 -8q-4 0 -11 -1.5t-25.5 -6.5t-33 -12.5t-27.5 -21.5t-16 -32q-4 -28 -19 -53t-32.5 -45.5t-21.5 -28.5q-6 -12 -24.5 -35t-34.5 -40l-15 -17l-31 -26z" />
<glyph unicode="&#x2dc;" horiz-adv-x="1458" d="M66 1399q0 141 4 188q1 10 7.5 23t17 26t22.5 26.5t24.5 26l22 22t16.5 15.5l8 7q3 3 114 62.5t114 59.5q1 0 33 -2.5t68.5 -5t49.5 -2.5q16 0 80.5 -22.5t69.5 -22.5q9 0 99.5 -40.5t105.5 -49.5q16 -9 64.5 -47t91.5 -64.5t71 -25.5q6 13 15.5 43t17.5 51.5t14 24.5 l223 26q-4 -49 -4 -63q0 -12 -31 -109.5t-43 -118.5q-7 -12 -26 -12q-13 0 -56 11t-73 14q-36 4 -113 24t-147 41.5t-76 22.5q-25 6 -66 28t-71 54q-37 39 -93 90t-63 51q-88 0 -131 -16t-111 -84q-7 -7 -24 -38.5t-32.5 -58t-22.5 -26.5h-5v-2q0 -5 13.5 -34.5t27.5 -55.5 l13 -27z" />
<glyph unicode="&#x2000;" horiz-adv-x="1126" />
<glyph unicode="&#x2001;" horiz-adv-x="2253" />
<glyph unicode="&#x2002;" horiz-adv-x="1126" />
<glyph unicode="&#x2003;" horiz-adv-x="2253" />
<glyph unicode="&#x2004;" horiz-adv-x="751" />
<glyph unicode="&#x2005;" horiz-adv-x="563" />
<glyph unicode="&#x2006;" horiz-adv-x="375" />
<glyph unicode="&#x2007;" horiz-adv-x="375" />
<glyph unicode="&#x2008;" horiz-adv-x="281" />
<glyph unicode="&#x2009;" horiz-adv-x="450" />
<glyph unicode="&#x200a;" horiz-adv-x="125" />
<glyph unicode="&#x2010;" horiz-adv-x="1101" d="M68 496q0 8 19 61t19 92q0 20 -6 41h2q7 0 30 15.5t42 30.5l19 16q71 14 77 14q2 0 171 -2t175 -2l213 4l179 -23l26 -77l-22 -160q-136 -8 -146 -8q-3 0 -55 2t-68 2l-268 -15h-330q-42 -10 -55 -10q-22 0 -22 19z" />
<glyph unicode="&#x2011;" horiz-adv-x="1101" d="M68 496q0 8 19 61t19 92q0 20 -6 41h2q7 0 30 15.5t42 30.5l19 16q71 14 77 14q2 0 171 -2t175 -2l213 4l179 -23l26 -77l-22 -160q-136 -8 -146 -8q-3 0 -55 2t-68 2l-268 -15h-330q-42 -10 -55 -10q-22 0 -22 19z" />
<glyph unicode="&#x2012;" horiz-adv-x="1101" d="M68 496q0 8 19 61t19 92q0 20 -6 41h2q7 0 30 15.5t42 30.5l19 16q71 14 77 14q2 0 171 -2t175 -2l213 4l179 -23l26 -77l-22 -160q-136 -8 -146 -8q-3 0 -55 2t-68 2l-268 -15h-330q-42 -10 -55 -10q-22 0 -22 19z" />
<glyph unicode="&#x2013;" horiz-adv-x="1159" d="M68 496q0 8 20 61t20 92q0 20 -6 41h2q7 0 31.5 15.5t44.5 30.5l21 16q75 14 81 14q2 0 181.5 -2t185.5 -2l226 4l189 -23l28 -77l-23 -160q-144 -8 -155 -8q-3 0 -58.5 2t-71.5 2l-285 -15h-349q-45 -10 -59 -10q-23 0 -23 19z" />
<glyph unicode="&#x2014;" horiz-adv-x="2183" d="M68 496q0 8 40.5 61t40.5 92q0 20 -13 41h4q15 0 63.5 15.5t89.5 30.5l40 16q151 14 163 14q4 0 362.5 -2t371.5 -2l451 4l380 -23l55 -77l-47 -160q-288 -8 -309 -8q-7 0 -117 2t-144 2l-568 -15h-700q-89 -10 -116 -10q-47 0 -47 19z" />
<glyph unicode="&#x2026;" horiz-adv-x="1327" d="M76 250q0 -4 2 -4zM78 246q4 0 15 8t19 16l9 9q186 -5 196 -5l41 -6q19 -119 19 -131l-33 -119q-69 -14 -98 -14l-152 10q0 27 -4 95q-6 79 -12 137zM508 250q0 -4 2 -4zM510 246q4 0 15 8t19 16l9 9q187 -5 197 -5l41 -6q18 -119 18 -131l-33 -119q-69 -14 -98 -14 l-152 10q0 27 -4 95q-6 79 -12 137zM948 250q0 -4 2 -4zM950 246q4 0 15 8t19 16l9 9q187 -5 197 -5l41 -6q18 -119 18 -131l-32 -119q-70 -14 -99 -14l-151 10q0 27 -4 95q-3 32 -13 137z" />
<glyph unicode="&#x202f;" horiz-adv-x="450" />
<glyph unicode="&#x205f;" horiz-adv-x="563" />
<glyph unicode="&#x2122;" horiz-adv-x="1234" d="M37 1376q0 18 6.5 49t13.5 31h4q-3 -1 9 -2q8 -1 30 -1q27 0 27 -1h31q74 0 176 13.5t117 13.5q1 0 5 -1t7 -1q25 0 60.5 6t62.5 6q10 0 10 -2q0 -1 22.5 -19t22.5 -36q0 -7 -5.5 -22t-11.5 -26l-6 -12q-28 0 -49 5t-48.5 17t-43.5 17h-57q-1 -2 -13.5 -18t-21 -33.5 t-8.5 -34.5q0 -3 1 -18t1 -31q0 -12 -1 -29.5t-1 -25.5q0 -41 12.5 -93.5t13.5 -64.5q2 -36 8.5 -75t12.5 -64t6 -29q0 -12 -12 -12q-4 0 -12.5 1t-12.5 1q-10 0 -43 -5.5t-43 -5.5h-6q-4 0 -10.5 -3t-9.5 -3q-9 0 -9 21v22q0 18 -2 36.5t-2 19.5q0 11 8.5 58t8.5 130v41 q0 18 4 41t9 43t5 23l2 18t1.5 15.5t0.5 12v7.5v2q0 4 -10.5 8t-20.5 6l-10 2q-10 0 -34 -4t-27 -4t-12 1t-13 1q-24 0 -33 -6q-12 -8 -27 -13.5t-27.5 -8.5t-23 -5t-16 -4.5t-4.5 -5.5q-4 0 -12 51zM684 879l6 24q0 2 -1 5t-1 5q0 8 4 31.5t4 38.5l-10 76v33q2 14 6 65 l-4 57l2 56q-4 33 -4 39q0 42 8 92l-8 37l6 37l43 10q2 2 4 2q1 0 3.5 -8t5.5 -17t4 -10l43 -98l16 -60q4 -6 19 -52.5t22 -61.5q2 -26 10.5 -58t20.5 -43l26 -10l33 -2v6q0 1 14.5 34t14.5 60v2q0 48 13 101t15 67q6 48 18 83t22.5 49t17.5 14h51q11 16 19 -55q1 -8 2 -21 q1 -8 1 -10v-27q0 -5 5.5 -44t5.5 -54q0 -16 -0.5 -37t-1 -36t-0.5 -17q0 -41 6 -74q12 -74 12 -131q0 -17 -5 -36.5t-5 -22.5l2 -41q0 -1 -8 -2.5t-19.5 -3t-19.5 -1.5q-4 0 -20 2t-19 2h-2l-10 29q-2 9 -2 19q0 9 12 58.5t12 84.5q0 27 -16 27q-14 0 -22.5 -8.5 t-20.5 -30.5q-5 -11 -10.5 -26t-7 -20.5t-6.5 -13t-7.5 -8.5t-12 -3.5t-17.5 -2.5h-25q-3 0 -12.5 3t-12.5 3l-29 -2q-67 127 -83 127q-15 -2 -15 -92q0 -13 3 -27.5t6.5 -23.5t7.5 -17.5t4 -9.5v-4q0 -41 -12.5 -53.5t-49.5 -12.5h-6z" />
<glyph unicode="&#x25fc;" horiz-adv-x="1546" d="M0 0v1546h1546v-1546h-1546z" />
</font>
</defs>
</svg>
